<svg xmlns="http://www.w3.org/2000/svg" xmlns:xlink="http://www.w3.org/1999/xlink" xmlns:lucid="lucid" width="640" height="208"><g transform="translate(0 0)" lucid:page-tab-id="0_0"><path d="M0 0h640v208H0z" fill="#fff"/><path d="M16 16h200v168H16z" fill="#fff"/><path d="M16 16h200v168H16zM16 56h200M76 56v128" stroke="#494949" stroke-width="2" fill="none"/><use xlink:href="#a" transform="matrix(1,0,0,1,26,16) translate(38.05 23.6)"/><use xlink:href="#b" transform="matrix(1,0,0,1,21,58.5) translate(13 17.1)"/><use xlink:href="#c" transform="matrix(1,0,0,1,81,58.5) translate(0 17.1)"/><use xlink:href="#d" transform="matrix(1,0,0,1,21,90.5) translate(13.524999999999999 17.1)"/><use xlink:href="#e" transform="matrix(1,0,0,1,81,90.5) translate(0 17.1)"/><use xlink:href="#f" transform="matrix(1,0,0,1,81,122.5) translate(0 17.1)"/><use xlink:href="#g" transform="matrix(1,0,0,1,81,154.5) translate(0 17.1)"/><path d="M424 16h200v136H424z" fill="#fff"/><path d="M424 16h200v136H424zM424 56h200M484 56v96" stroke="#494949" stroke-width="2" fill="none"/><use xlink:href="#h" transform="matrix(1,0,0,1,434,16) translate(51.099999999999994 23.6)"/><use xlink:href="#i" transform="matrix(1,0,0,1,429,58.5) translate(13.524999999999999 17.1)"/><use xlink:href="#j" transform="matrix(1,0,0,1,489,58.5) translate(0 17.1)"/><use xlink:href="#k" transform="matrix(1,0,0,1,489,90.5) translate(0 17.1)"/><use xlink:href="#l" transform="matrix(1,0,0,1,489,122.5) translate(0 17.1)"/><path d="M216 72h208" stroke="#494949" stroke-width="2" fill="none"/><path d="M238.24 72l-21.8 10.9-.44-.9v-1.12L233.76 72 216 63.12V62l.45-.9z" fill="#494949"/><path d="M256 72l-.5 3.16-1.43 2.75-2.16 2.17-2.74 1.42-3.16.5-3.16-.5-2.75-1.43-2.17-2.16-1.42-2.74L236 72l.5-3.16 1.43-2.75 2.16-2.17 2.74-1.42L246 62l3.16.5 2.75 1.43 2.17 2.16 1.42 2.74.5 3.16z" fill="#fff"/><path d="M249.48 61.55l3.02 1.56 2.4 2.4 1.55 3.02.54 3.32-1 .16 1 .16-.55 3.32-1.56 3.02-2.4 2.4-3.02 1.55L246 83l-3.48-.55-3.02-1.56-2.4-2.4-1.55-3.02L235 72l.55-3.48 1.56-3.02 2.4-2.4 3.02-1.55L246 61zm-6.32 1.92l-2.47 1.28-1.95 1.94-1.28 2.46L237 72l.47 2.84 1.28 2.47 1.94 1.95 2.46 1.28L246 81l2.84-.47 2.47-1.28 1.95-1.94 1.28-2.46L255 72l-.47-2.84-1.28-2.47-1.94-1.95-2.46-1.28L246 63z" fill="#494949"/><path fill="#fff"/><path d="M415 82h-2V62h2z" fill="#494949"/><path fill="#fff"/><path d="M405 82h-2V62h2z" fill="#494949"/><defs><path fill="#494949" d="M169-182c-1-43-94-46-97-3 18 66 151 10 154 114 3 95-165 93-204 36-6-8-10-19-12-30l50-8c3 46 112 56 116 5-17-69-150-10-154-114-4-87 153-88 188-35 5 8 8 18 10 28" id="m"/><path fill="#494949" d="M133-34C117-15 103 5 69 4 32 3 11-16 11-54c-1-60 55-63 116-61 1-26-3-47-28-47-18 1-26 9-28 27l-52-2c7-38 36-58 82-57s74 22 75 68l1 82c-1 14 12 18 25 15v27c-30 8-71 5-69-32zm-48 3c29 0 43-24 42-57-32 0-66-3-65 30 0 17 8 27 23 27" id="n"/><path fill="#494949" d="M25 0v-261h50V0H25" id="o"/><path fill="#494949" d="M185-48c-13 30-37 53-82 52C43 2 14-33 14-96s30-98 90-98c62 0 83 45 84 108H66c0 31 8 55 39 56 18 0 30-7 34-22zm-45-69c5-46-57-63-70-21-2 6-4 13-4 21h74" id="p"/><path fill="#494949" d="M137-138c1-29-70-34-71-4 15 46 118 7 119 86 1 83-164 76-172 9l43-7c4 19 20 25 44 25 33 8 57-30 24-41C81-84 22-81 20-136c-2-80 154-74 161-7" id="q"/><path fill="#494949" d="M88-194c31-1 46 15 58 34l-1-101h50l1 261h-48c-2-10 0-23-3-31C134-8 116 4 84 4 32 4 16-41 15-95c0-56 19-97 73-99zm17 164c33 0 40-30 41-66 1-37-9-64-41-64s-38 30-39 65c0 43 13 65 39 65" id="r"/><path fill="#494949" d="M115-3C79 11 28 4 28-45v-112H4v-33h27l15-45h31v45h36v33H77v99c-1 23 16 31 38 25v30" id="s"/><path fill="#494949" d="M25-224v-37h50v37H25zM25 0v-190h50V0H25" id="t"/><g id="a"><use transform="matrix(0.05,0,0,0.05,0,0)" xlink:href="#m"/><use transform="matrix(0.05,0,0,0.05,12,0)" xlink:href="#n"/><use transform="matrix(0.05,0,0,0.05,22,0)" xlink:href="#o"/><use transform="matrix(0.05,0,0,0.05,27,0)" xlink:href="#p"/><use transform="matrix(0.05,0,0,0.05,37,0)" xlink:href="#q"/><use transform="matrix(0.05,0,0,0.05,47,0)" xlink:href="#r"/><use transform="matrix(0.05,0,0,0.05,57.95,0)" xlink:href="#p"/><use transform="matrix(0.05,0,0,0.05,67.95,0)" xlink:href="#s"/><use transform="matrix(0.05,0,0,0.05,73.9,0)" xlink:href="#n"/><use transform="matrix(0.05,0,0,0.05,83.9,0)" xlink:href="#t"/><use transform="matrix(0.05,0,0,0.05,88.9,0)" xlink:href="#o"/><use transform="matrix(0.05,0,0,0.05,93.9,0)" xlink:href="#q"/></g><path d="M30-248c87 1 191-15 191 75 0 78-77 80-158 76V0H30v-248zm33 125c57 0 124 11 124-50 0-59-68-47-124-48v98" id="u"/><path d="M194 0L95-120 63-95V0H30v-248h33v124l119-124h40L117-140 236 0h-42" id="v"/><g id="b"><use transform="matrix(0.05,0,0,0.05,0,0)" xlink:href="#u"/><use transform="matrix(0.05,0,0,0.05,12,0)" xlink:href="#v"/></g><path d="M185-189c-5-48-123-54-124 2 14 75 158 14 163 119 3 78-121 87-175 55-17-10-28-26-33-46l33-7c5 56 141 63 141-1 0-78-155-14-162-118-5-82 145-84 179-34 5 7 8 16 11 25" id="w"/><path d="M141-36C126-15 110 5 73 4 37 3 15-17 15-53c-1-64 63-63 125-63 3-35-9-54-41-54-24 1-41 7-42 31l-33-3c5-37 33-52 76-52 45 0 72 20 72 64v82c-1 20 7 32 28 27v20c-31 9-61-2-59-35zM48-53c0 20 12 33 32 33 41-3 63-29 60-74-43 2-92-5-92 41" id="x"/><path d="M24 0v-261h32V0H24" id="y"/><path d="M100-194c63 0 86 42 84 106H49c0 40 14 67 53 68 26 1 43-12 49-29l28 8c-11 28-37 45-77 45C44 4 14-33 15-96c1-61 26-98 85-98zm52 81c6-60-76-77-97-28-3 7-6 17-6 28h103" id="z"/><path d="M135-143c-3-34-86-38-87 0 15 53 115 12 119 90S17 21 10-45l28-5c4 36 97 45 98 0-10-56-113-15-118-90-4-57 82-63 122-42 12 7 21 19 24 35" id="A"/><path d="M190 0L58-211 59 0H30v-248h39L202-35l-2-213h31V0h-41" id="B"/><path d="M84 4C-5 8 30-112 23-190h32v120c0 31 7 50 39 49 72-2 45-101 50-169h31l1 190h-30c-1-10 1-25-2-33-11 22-28 36-60 37" id="C"/><path d="M210-169c-67 3-38 105-44 169h-31v-121c0-29-5-50-35-48C34-165 62-65 56 0H25l-1-190h30c1 10-1 24 2 32 10-44 99-50 107 0 11-21 27-35 58-36 85-2 47 119 55 194h-31v-121c0-29-5-49-35-48" id="D"/><path d="M115-194c53 0 69 39 70 98 0 66-23 100-70 100C84 3 66-7 56-30L54 0H23l1-261h32v101c10-23 28-34 59-34zm-8 174c40 0 45-34 45-75 0-40-5-75-45-74-42 0-51 32-51 76 0 43 10 73 51 73" id="E"/><path d="M114-163C36-179 61-72 57 0H25l-1-190h30c1 12-1 29 2 39 6-27 23-49 58-41v29" id="F"/><g id="c"><use transform="matrix(0.05,0,0,0.05,0,0)" xlink:href="#w"/><use transform="matrix(0.05,0,0,0.05,12,0)" xlink:href="#x"/><use transform="matrix(0.05,0,0,0.05,22,0)" xlink:href="#y"/><use transform="matrix(0.05,0,0,0.05,25.950000000000003,0)" xlink:href="#z"/><use transform="matrix(0.05,0,0,0.05,35.95,0)" xlink:href="#A"/><use transform="matrix(0.05,0,0,0.05,44.95,0)" xlink:href="#B"/><use transform="matrix(0.05,0,0,0.05,57.900000000000006,0)" xlink:href="#C"/><use transform="matrix(0.05,0,0,0.05,67.9,0)" xlink:href="#D"/><use transform="matrix(0.05,0,0,0.05,82.85000000000001,0)" xlink:href="#E"/><use transform="matrix(0.05,0,0,0.05,92.85000000000001,0)" xlink:href="#z"/><use transform="matrix(0.05,0,0,0.05,102.85000000000001,0)" xlink:href="#F"/></g><path d="M63-220v92h138v28H63V0H30v-248h175v28H63" id="G"/><g id="d"><use transform="matrix(0.05,0,0,0.05,0,0)" xlink:href="#u"/><use transform="matrix(0.05,0,0,0.05,12,0)" xlink:href="#G"/></g><path d="M100-194c62-1 85 37 85 99 1 63-27 99-86 99S16-35 15-95c0-66 28-99 85-99zM99-20c44 1 53-31 53-75 0-43-8-75-51-75s-53 32-53 75 10 74 51 75" id="H"/><path d="M85-194c31 0 48 13 60 33l-1-100h32l1 261h-30c-2-10 0-23-3-31C134-8 116 4 85 4 32 4 16-35 15-94c0-66 23-100 70-100zm9 24c-40 0-46 34-46 75 0 40 6 74 45 74 42 0 51-32 51-76 0-42-9-74-50-73" id="I"/><path d="M96-169c-40 0-48 33-48 73s9 75 48 75c24 0 41-14 43-38l32 2c-6 37-31 61-74 61-59 0-76-41-82-99-10-93 101-131 147-64 4 7 5 14 7 22l-32 3c-4-21-16-35-41-35" id="J"/><path d="M59-47c-2 24 18 29 38 22v24C64 9 27 4 27-40v-127H5v-23h24l9-43h21v43h35v23H59v120" id="K"/><g id="e"><use transform="matrix(0.05,0,0,0.05,0,0)" xlink:href="#u"/><use transform="matrix(0.05,0,0,0.05,12,0)" xlink:href="#F"/><use transform="matrix(0.05,0,0,0.05,17.95,0)" xlink:href="#H"/><use transform="matrix(0.05,0,0,0.05,27.950000000000003,0)" xlink:href="#I"/><use transform="matrix(0.05,0,0,0.05,37.95,0)" xlink:href="#C"/><use transform="matrix(0.05,0,0,0.05,47.95,0)" xlink:href="#J"/><use transform="matrix(0.05,0,0,0.05,56.95,0)" xlink:href="#K"/><use transform="matrix(0.05,0,0,0.05,61.95,0)" xlink:href="#B"/><use transform="matrix(0.05,0,0,0.05,74.9,0)" xlink:href="#C"/><use transform="matrix(0.05,0,0,0.05,84.9,0)" xlink:href="#D"/><use transform="matrix(0.05,0,0,0.05,99.85000000000001,0)" xlink:href="#E"/><use transform="matrix(0.05,0,0,0.05,109.85000000000001,0)" xlink:href="#z"/><use transform="matrix(0.05,0,0,0.05,119.85000000000001,0)" xlink:href="#F"/></g><path d="M140-251c81 0 123 46 123 126C263-53 228-8 163 1c7 30 30 48 69 40v23c-55 16-95-15-103-61C56-3 17-48 17-125c0-80 42-126 123-126zm0 227c63 0 89-41 89-101s-29-99-89-99c-61 0-89 39-89 99S79-25 140-24" id="L"/><path d="M117-194c89-4 53 116 60 194h-32v-121c0-31-8-49-39-48C34-167 62-67 57 0H25l-1-190h30c1 10-1 24 2 32 11-22 29-35 61-36" id="M"/><path d="M24-231v-30h32v30H24zM24 0v-190h32V0H24" id="N"/><path d="M179-190L93 31C79 59 56 82 12 73V49c39 6 53-20 64-50L1-190h34L92-34l54-156h33" id="O"/><g id="f"><use transform="matrix(0.05,0,0,0.05,0,0)" xlink:href="#L"/><use transform="matrix(0.05,0,0,0.05,14,0)" xlink:href="#C"/><use transform="matrix(0.05,0,0,0.05,24,0)" xlink:href="#x"/><use transform="matrix(0.05,0,0,0.05,34,0)" xlink:href="#M"/><use transform="matrix(0.05,0,0,0.05,44,0)" xlink:href="#K"/><use transform="matrix(0.05,0,0,0.05,49,0)" xlink:href="#N"/><use transform="matrix(0.05,0,0,0.05,52.95,0)" xlink:href="#N"/><use transform="matrix(0.05,0,0,0.05,56.900000000000006,0)" xlink:href="#K"/><use transform="matrix(0.05,0,0,0.05,61.900000000000006,0)" xlink:href="#O"/></g><path d="M127-220V0H93v-220H8v-28h204v28h-85" id="P"/><g id="g"><use transform="matrix(0.05,0,0,0.05,0,0)" xlink:href="#w"/><use transform="matrix(0.05,0,0,0.05,12,0)" xlink:href="#x"/><use transform="matrix(0.05,0,0,0.05,22,0)" xlink:href="#y"/><use transform="matrix(0.05,0,0,0.05,25.950000000000003,0)" xlink:href="#z"/><use transform="matrix(0.05,0,0,0.05,35.95,0)" xlink:href="#A"/><use transform="matrix(0.05,0,0,0.05,44.95,0)" xlink:href="#P"/><use transform="matrix(0.05,0,0,0.05,53.900000000000006,0)" xlink:href="#H"/><use transform="matrix(0.05,0,0,0.05,63.900000000000006,0)" xlink:href="#K"/><use transform="matrix(0.05,0,0,0.05,68.9,0)" xlink:href="#x"/><use transform="matrix(0.05,0,0,0.05,78.9,0)" xlink:href="#y"/></g><path fill="#494949" d="M24-248c93 1 206-16 204 79-1 75-69 88-152 82V0H24v-248zm52 121c47 0 100 7 100-41 0-47-54-39-100-39v80" id="Q"/><path fill="#494949" d="M135-150c-39-12-60 13-60 57V0H25l-1-190h47c2 13-1 29 3 40 6-28 27-53 61-41v41" id="R"/><path fill="#494949" d="M110-194c64 0 96 36 96 99 0 64-35 99-97 99-61 0-95-36-95-99 0-62 34-99 96-99zm-1 164c35 0 45-28 45-65 0-40-10-65-43-65-34 0-45 26-45 65 0 36 10 65 43 65" id="S"/><path fill="#494949" d="M85 4C-2 5 27-109 22-190h50c7 57-23 150 33 157 60-5 35-97 40-157h50l1 190h-47c-2-12 1-28-3-38-12 25-28 42-61 42" id="T"/><path fill="#494949" d="M190-63c-7 42-38 67-86 67-59 0-84-38-90-98-12-110 154-137 174-36l-49 2c-2-19-15-32-35-32-30 0-35 28-38 64-6 74 65 87 74 30" id="U"/><g id="h"><use transform="matrix(0.05,0,0,0.05,0,0)" xlink:href="#Q"/><use transform="matrix(0.05,0,0,0.05,12,0)" xlink:href="#R"/><use transform="matrix(0.05,0,0,0.05,19,0)" xlink:href="#S"/><use transform="matrix(0.05,0,0,0.05,29.950000000000003,0)" xlink:href="#r"/><use transform="matrix(0.05,0,0,0.05,40.900000000000006,0)" xlink:href="#T"/><use transform="matrix(0.05,0,0,0.05,51.85,0)" xlink:href="#U"/><use transform="matrix(0.05,0,0,0.05,61.85,0)" xlink:href="#s"/><use transform="matrix(0.05,0,0,0.05,67.80000000000001,0)" xlink:href="#q"/></g><path fill="#494949" d="M30-248c87 1 191-15 191 75 0 78-77 80-158 76V0H30v-248zm33 125c57 0 124 11 124-50 0-59-68-47-124-48v98" id="V"/><path fill="#494949" d="M63-220v92h138v28H63V0H30v-248h175v28H63" id="W"/><g id="i"><use transform="matrix(0.05,0,0,0.05,0,0)" xlink:href="#V"/><use transform="matrix(0.05,0,0,0.05,12,0)" xlink:href="#W"/></g><path fill="#494949" d="M114-163C36-179 61-72 57 0H25l-1-190h30c1 12-1 29 2 39 6-27 23-49 58-41v29" id="X"/><path fill="#494949" d="M100-194c62-1 85 37 85 99 1 63-27 99-86 99S16-35 15-95c0-66 28-99 85-99zM99-20c44 1 53-31 53-75 0-43-8-75-51-75s-53 32-53 75 10 74 51 75" id="Y"/><path fill="#494949" d="M85-194c31 0 48 13 60 33l-1-100h32l1 261h-30c-2-10 0-23-3-31C134-8 116 4 85 4 32 4 16-35 15-94c0-66 23-100 70-100zm9 24c-40 0-46 34-46 75 0 40 6 74 45 74 42 0 51-32 51-76 0-42-9-74-50-73" id="Z"/><path fill="#494949" d="M84 4C-5 8 30-112 23-190h32v120c0 31 7 50 39 49 72-2 45-101 50-169h31l1 190h-30c-1-10 1-25-2-33-11 22-28 36-60 37" id="aa"/><path fill="#494949" d="M96-169c-40 0-48 33-48 73s9 75 48 75c24 0 41-14 43-38l32 2c-6 37-31 61-74 61-59 0-76-41-82-99-10-93 101-131 147-64 4 7 5 14 7 22l-32 3c-4-21-16-35-41-35" id="ab"/><path fill="#494949" d="M59-47c-2 24 18 29 38 22v24C64 9 27 4 27-40v-127H5v-23h24l9-43h21v43h35v23H59v120" id="ac"/><path fill="#494949" d="M190 0L58-211 59 0H30v-248h39L202-35l-2-213h31V0h-41" id="ad"/><path fill="#494949" d="M210-169c-67 3-38 105-44 169h-31v-121c0-29-5-50-35-48C34-165 62-65 56 0H25l-1-190h30c1 10-1 24 2 32 10-44 99-50 107 0 11-21 27-35 58-36 85-2 47 119 55 194h-31v-121c0-29-5-49-35-48" id="ae"/><path fill="#494949" d="M115-194c53 0 69 39 70 98 0 66-23 100-70 100C84 3 66-7 56-30L54 0H23l1-261h32v101c10-23 28-34 59-34zm-8 174c40 0 45-34 45-75 0-40-5-75-45-74-42 0-51 32-51 76 0 43 10 73 51 73" id="af"/><path fill="#494949" d="M100-194c63 0 86 42 84 106H49c0 40 14 67 53 68 26 1 43-12 49-29l28 8c-11 28-37 45-77 45C44 4 14-33 15-96c1-61 26-98 85-98zm52 81c6-60-76-77-97-28-3 7-6 17-6 28h103" id="ag"/><g id="j"><use transform="matrix(0.05,0,0,0.05,0,0)" xlink:href="#V"/><use transform="matrix(0.05,0,0,0.05,12,0)" xlink:href="#X"/><use transform="matrix(0.05,0,0,0.05,17.95,0)" xlink:href="#Y"/><use transform="matrix(0.05,0,0,0.05,27.950000000000003,0)" xlink:href="#Z"/><use transform="matrix(0.05,0,0,0.05,37.95,0)" xlink:href="#aa"/><use transform="matrix(0.05,0,0,0.05,47.95,0)" xlink:href="#ab"/><use transform="matrix(0.05,0,0,0.05,56.95,0)" xlink:href="#ac"/><use transform="matrix(0.05,0,0,0.05,61.95,0)" xlink:href="#ad"/><use transform="matrix(0.05,0,0,0.05,74.9,0)" xlink:href="#aa"/><use transform="matrix(0.05,0,0,0.05,84.9,0)" xlink:href="#ae"/><use transform="matrix(0.05,0,0,0.05,99.85000000000001,0)" xlink:href="#af"/><use transform="matrix(0.05,0,0,0.05,109.85000000000001,0)" xlink:href="#ag"/><use transform="matrix(0.05,0,0,0.05,119.85000000000001,0)" xlink:href="#X"/></g><path fill="#494949" d="M140-251c81 0 123 46 123 126C263-46 219 4 140 4 59 4 17-45 17-125s42-126 123-126zm0 227c63 0 89-41 89-101s-29-99-89-99c-61 0-89 39-89 99S79-25 140-24" id="ah"/><path fill="#494949" d="M212-179c-10-28-35-45-73-45-59 0-87 40-87 99 0 60 29 101 89 101 43 0 62-24 78-52l27 14C228-24 195 4 139 4 59 4 22-46 18-125c-6-104 99-153 187-111 19 9 31 26 39 46" id="ai"/><g id="k"><use transform="matrix(0.05,0,0,0.05,0,0)" xlink:href="#ah"/><use transform="matrix(0.05,0,0,0.05,14,0)" xlink:href="#X"/><use transform="matrix(0.05,0,0,0.05,19.95,0)" xlink:href="#Z"/><use transform="matrix(0.05,0,0,0.05,29.950000000000003,0)" xlink:href="#ag"/><use transform="matrix(0.05,0,0,0.05,39.95,0)" xlink:href="#X"/><use transform="matrix(0.05,0,0,0.05,45.900000000000006,0)" xlink:href="#ai"/><use transform="matrix(0.05,0,0,0.05,58.85,0)" xlink:href="#Y"/><use transform="matrix(0.05,0,0,0.05,68.85000000000001,0)" xlink:href="#Z"/><use transform="matrix(0.05,0,0,0.05,78.85000000000001,0)" xlink:href="#ag"/></g><path d="M232-93c-1 65-40 97-104 97C67 4 28-28 28-90v-158h33c8 89-33 224 67 224 102 0 64-133 71-224h33v155" id="aj"/><g id="l"><use transform="matrix(0.05,0,0,0.05,0,0)" xlink:href="#aj"/><use transform="matrix(0.05,0,0,0.05,12.950000000000001,0)" xlink:href="#M"/><use transform="matrix(0.05,0,0,0.05,22.950000000000003,0)" xlink:href="#N"/><use transform="matrix(0.05,0,0,0.05,26.900000000000002,0)" xlink:href="#K"/><use transform="matrix(0.05,0,0,0.05,31.900000000000002,0)" xlink:href="#u"/><use transform="matrix(0.05,0,0,0.05,43.900000000000006,0)" xlink:href="#F"/><use transform="matrix(0.05,0,0,0.05,49.85000000000001,0)" xlink:href="#N"/><use transform="matrix(0.05,0,0,0.05,53.80000000000001,0)" xlink:href="#J"/><use transform="matrix(0.05,0,0,0.05,62.80000000000001,0)" xlink:href="#z"/></g></defs></g></svg>