<svg xmlns="http://www.w3.org/2000/svg" xmlns:xlink="http://www.w3.org/1999/xlink" xmlns:lucid="lucid" width="896" height="800"><g transform="translate(0 0)" lucid:page-tab-id="0_0"><path d="M0 0h896v800H0z" fill="#fff"/><path d="M548 72h132" stroke="#494949" stroke-width="2" fill="none"/><path fill="#fff"/><path d="M559 82h-2V62h2z" fill="#494949"/><path fill="#fff"/><path d="M569 82h-2V62h2zM680 62v1.12L662.24 72 680 80.88V82l-.45.9-21.8-10.9 21.8-10.9z" fill="#494949"/><path d="M660 72l-.5 3.16-1.43 2.75-2.16 2.17-2.74 1.42-3.16.5-3.16-.5-2.75-1.43-2.17-2.16-1.42-2.74L640 72l.5-3.16 1.43-2.75 2.16-2.17 2.74-1.42L650 62l3.16.5 2.75 1.43 2.17 2.16 1.42 2.74.5 3.16z" fill="#fff"/><path d="M653.48 61.55l3.02 1.56 2.4 2.4 1.55 3.02.54 3.32-1 .16 1 .16-.55 3.32-1.56 3.02-2.4 2.4-3.02 1.55L650 83l-3.48-.55-3.02-1.56-2.4-2.4-1.55-3.02L639 72l.55-3.48 1.56-3.02 2.4-2.4 3.02-1.55L650 61zm-6.32 1.92l-2.47 1.28-1.95 1.94-1.28 2.46L641 72l.47 2.84 1.28 2.47 1.94 1.95 2.46 1.28L650 81l2.84-.47 2.47-1.28 1.95-1.94 1.28-2.46L659 72l-.47-2.84-1.28-2.47-1.94-1.95-2.46-1.28L650 63z" fill="#494949"/><path d="M123.5 280v127.56h252.42v127.56" stroke="#494949" stroke-width="2" fill="none"/><path fill="#fff"/><path d="M133.5 291h-20v-2h20z" fill="#494949"/><path fill="#fff"/><path d="M133.5 301h-20v-2h20zM386.8 534.67l-1.77.9-9.1-18.2-9.12 18.2-1.77-.9 10.9-21.8z" fill="#494949"/><path d="M385.92 505.12l-.5 3.16-1.43 2.75-2.17 2.16-2.75 1.4-3.16.52-3.16-.5-2.75-1.43-2.15-2.17-1.42-2.75-.5-3.16.5-3.16 1.42-2.75 2.16-2.15 2.76-1.42 3.16-.5 3.16.5 2.75 1.42 2.16 2.16 1.4 2.76.52 3.16z" fill="#fff"/><path d="M379.4 494.67l3.02 1.56 2.4 2.4 1.55 3 .54 3.33-.98.16 1 .16-.55 3.32-1.56 3.02-2.38 2.4-3.02 1.55-3.48.56-3.48-.56-3.02-1.56-2.4-2.38-1.55-3.02-.56-3.48.57-3.48 1.56-3.02 2.4-2.4 3-1.55 3.5-.56zm-6.32 1.92l-2.47 1.27-1.93 1.94-1.28 2.48-.47 2.84.46 2.84 1.27 2.47 1.94 1.94 2.48 1.28 2.84.46 2.84-.45 2.47-1.28 1.94-1.94 1.28-2.47.46-2.84-.45-2.84-1.28-2.47-1.94-1.93-2.47-1.28-2.84-.47z" fill="#494949"/><path d="M780 453v36.5H515.84v45.62" stroke="#494949" stroke-width="2" fill="none"/><path fill="#fff"/><path d="M790 464h-20v-2h20z" fill="#494949"/><path fill="#fff"/><path d="M790 474h-20v-2h20zM526.73 534.67l-1.78.9-9.1-18.2-9.12 18.2-1.78-.9 10.9-21.8z" fill="#494949"/><path d="M525.84 505.12l-.5 3.16-1.43 2.75-2.15 2.16-2.75 1.4-3.16.52-3.16-.5-2.75-1.43-2.16-2.17-1.42-2.75-.5-3.16.5-3.16 1.42-2.75 2.16-2.15 2.75-1.42 3.16-.5 3.16.5 2.75 1.42 2.16 2.16 1.43 2.76.5 3.16z" fill="#fff"/><path d="M519.32 494.67l3.02 1.56 2.4 2.4 1.55 3 .53 3.33-1 .16 1 .16-.54 3.32-1.57 3.02-2.4 2.4-3 1.55-3.5.56-3.47-.56-3.02-1.56-2.4-2.38-1.55-3.02-.57-3.48.56-3.48 1.55-3.02 2.4-2.4 3-1.55 3.5-.56zM513 496.6l-2.47 1.27-1.94 1.94-1.3 2.48-.45 2.84.46 2.84 1.3 2.47 1.93 1.94 2.47 1.28 2.84.46 2.84-.45 2.47-1.28 1.94-1.94 1.27-2.47.46-2.84-.46-2.84-1.28-2.47-1.95-1.93-2.47-1.28-2.84-.47z" fill="#494949"/><path d="M236 624h52.47v.12h52.47" stroke="#494949" stroke-width="2" fill="none"/><path fill="#fff"/><path d="M247 634h-2v-20h2z" fill="#494949"/><path fill="#fff"/><path d="M257 634h-2v-20h2zM341.4 615l-18.22 9.12 18.2 9.1-.9 1.8-21.78-10.9 21.8-10.9z" fill="#494949"/><path d="M320.94 624.12l-.5 3.16-1.43 2.75-2.15 2.16-2.75 1.4-3.16.52-3.16-.5-2.75-1.43-2.16-2.17-1.42-2.75-.5-3.16.5-3.16 1.42-2.75 2.16-2.15 2.75-1.42 3.16-.5 3.16.5 2.75 1.42 2.16 2.16 1.43 2.76.5 3.16z" fill="#fff"/><path d="M314.42 613.67l3.02 1.56 2.4 2.4 1.55 3 .53 3.33-1 .16 1 .16-.54 3.32-1.57 3.02-2.4 2.4-3 1.55-3.5.56-3.47-.56-3.02-1.56-2.4-2.38-1.55-3.02-.57-3.48.56-3.48 1.55-3.02 2.4-2.4 3-1.55 3.5-.56zm-6.32 1.92l-2.47 1.27-1.94 1.94-1.3 2.48-.45 2.84.46 2.84 1.3 2.47 1.93 1.94 2.47 1.28 2.84.46 2.84-.45 2.47-1.28 1.94-1.94 1.27-2.47.46-2.84-.46-2.84-1.28-2.47-1.95-1.93-2.47-1.28-2.84-.47z" fill="#494949"/><path d="M448 184v73" stroke="#494949" stroke-width="2" fill="none"/><path fill="#fff"/><path d="M458 195h-20v-2h20z" fill="#494949"/><path fill="#fff"/><path d="M458 205h-20v-2h20zM458.9 256.55l-.9.45h-1.12L448 239.24 439.12 257H438l-.9-.45 10.9-21.8z" fill="#494949"/><path d="M458 227l-.5 3.16-1.43 2.75-2.16 2.17-2.74 1.42-3.16.5-3.16-.5-2.75-1.43-2.17-2.16-1.42-2.74-.5-3.16.5-3.16 1.43-2.75 2.16-2.17 2.74-1.42 3.16-.5 3.16.5 2.75 1.43 2.17 2.16 1.42 2.74.5 3.16z" fill="#fff"/><path d="M451.48 216.55l3.02 1.56 2.4 2.4 1.55 3.02.54 3.32-1 .16 1 .16-.55 3.32-1.56 3.02-2.4 2.4-3.02 1.55-3.48.56-3.48-.55-3.02-1.56-2.4-2.4-1.55-3.02L437 227l.55-3.48 1.56-3.02 2.4-2.4 3.02-1.55L448 216zm-6.32 1.92l-2.47 1.28-1.95 1.94-1.28 2.46L439 227l.47 2.84 1.28 2.47 1.94 1.95 2.46 1.28 2.84.46 2.84-.47 2.47-1.28 1.95-1.94 1.28-2.46.46-2.84-.47-2.84-1.28-2.47-1.94-1.95-2.46-1.28L448 218z" fill="#494949"/><path d="M448 536.12V393" stroke="#494949" stroke-width="2" fill="none"/><path fill="#fff"/><path d="M458 527.12h-20v-2h20z" fill="#494949"/><path fill="#fff"/><path d="M458 517.12h-20v-2h20zM458.9 393.45l-10.9 21.8-10.9-21.8.9-.45h1.12l8.88 17.76 8.88-17.76H458z" fill="#494949"/><path d="M458 423l-.5 3.16-1.43 2.75-2.16 2.17-2.74 1.42-3.16.5-3.16-.5-2.75-1.43-2.17-2.16-1.42-2.74-.5-3.16.5-3.16 1.43-2.75 2.16-2.17 2.74-1.42 3.16-.5 3.16.5 2.75 1.43 2.17 2.16 1.42 2.74.5 3.16z" fill="#fff"/><path d="M451.48 412.55l3.02 1.56 2.4 2.4 1.55 3.02.54 3.32-1 .16 1 .16-.55 3.32-1.56 3.02-2.4 2.4-3.02 1.55-3.48.56-3.48-.55-3.02-1.56-2.4-2.4-1.55-3.02L437 423l.55-3.48 1.56-3.02 2.4-2.4 3.02-1.55L448 412zm-6.32 1.92l-2.47 1.28-1.95 1.94-1.28 2.46L439 423l.47 2.84 1.28 2.47 1.94 1.95 2.46 1.28 2.84.46 2.84-.47 2.47-1.28 1.95-1.94 1.28-2.46.46-2.84-.47-2.84-1.28-2.47-1.94-1.95-2.46-1.28L448 414z" fill="#494949"/><path d="M780 152v69" stroke="#494949" stroke-width="2" fill="none"/><path d="M790.9 152.45l-10.9 21.8-10.9-21.8.9-.45h1.12l8.88 17.76 8.88-17.76H790z" fill="#494949"/><path d="M790 182l-.5 3.16-1.43 2.75-2.16 2.17-2.74 1.42-3.16.5-3.16-.5-2.75-1.43-2.17-2.16-1.42-2.74-.5-3.16.5-3.16 1.43-2.75 2.16-2.17 2.74-1.42 3.16-.5 3.16.5 2.75 1.43 2.17 2.16 1.42 2.74.5 3.16z" fill="#fff"/><path d="M783.48 171.55l3.02 1.56 2.4 2.4 1.55 3.02.54 3.32-1 .16 1 .16-.55 3.32-1.56 3.02-2.4 2.4-3.02 1.55-3.48.56-3.48-.55-3.02-1.56-2.4-2.4-1.55-3.02L769 182l.55-3.48 1.56-3.02 2.4-2.4 3.02-1.55L780 171zm-6.32 1.92l-2.47 1.28-1.95 1.94-1.28 2.46L771 182l.47 2.84 1.28 2.47 1.94 1.95 2.46 1.28 2.84.46 2.84-.47 2.47-1.28 1.95-1.94 1.28-2.46.46-2.84-.47-2.84-1.28-2.47-1.94-1.95-2.46-1.28L780 173z" fill="#494949"/><path fill="#fff"/><path d="M790 212h-20v-2h20z" fill="#494949"/><path fill="#fff"/><path d="M790 202h-20v-2h20z" fill="#494949"/><path d="M16 16h215v264H16z" fill="#fff"/><path d="M16 16h215v264H16zM16 56h215M76 56v224" stroke="#494949" stroke-width="2" fill="none"/><use xlink:href="#a" transform="matrix(1,0,0,1,26,16) translate(50.599999999999994 23.6)"/><use xlink:href="#b" transform="matrix(1,0,0,1,21,58.5) translate(13 17.1)"/><use xlink:href="#c" transform="matrix(1,0,0,1,81,58.5) translate(0 17.1)"/><use xlink:href="#d" transform="matrix(1,0,0,1,81,90.5) translate(0 17.1)"/><use xlink:href="#e" transform="matrix(1,0,0,1,81,122.5) translate(0 17.1)"/><use xlink:href="#f" transform="matrix(1,0,0,1,81,154.5) translate(0 17.1)"/><use xlink:href="#g" transform="matrix(1,0,0,1,81,186.5) translate(0 17.1)"/><use xlink:href="#h" transform="matrix(1,0,0,1,81,218.5) translate(0 17.1)"/><use xlink:href="#i" transform="matrix(1,0,0,1,81,250.5) translate(0 17.1)"/><path d="M348 16h200v168H348z" fill="#fff"/><path d="M348 16h200v168H348zM348 56h200M408 56v128" stroke="#494949" stroke-width="2" fill="none"/><use xlink:href="#j" transform="matrix(1,0,0,1,358,16) translate(51.099999999999994 23.6)"/><use xlink:href="#b" transform="matrix(1,0,0,1,353,58.5) translate(13 17.1)"/><use xlink:href="#k" transform="matrix(1,0,0,1,413,58.5) translate(0 17.1)"/><use xlink:href="#l" transform="matrix(1,0,0,1,413,90.5) translate(0 17.1)"/><use xlink:href="#m" transform="matrix(1,0,0,1,413,122.5) translate(0 17.1)"/><use xlink:href="#n" transform="matrix(1,0,0,1,413,154.5) translate(0 17.1)"/><path d="M680 16h200v136H680z" fill="#fff"/><path d="M680 16h200v136H680zM680 56h200M740 56v96" stroke="#494949" stroke-width="2" fill="none"/><use xlink:href="#o" transform="matrix(1,0,0,1,690,16) translate(65.55 23.6)"/><use xlink:href="#p" transform="matrix(1,0,0,1,685,58.5) translate(13.524999999999999 17.1)"/><use xlink:href="#k" transform="matrix(1,0,0,1,745,58.5) translate(0 17.1)"/><use xlink:href="#p" transform="matrix(1,0,0,1,685,90.5) translate(13.524999999999999 17.1)"/><use xlink:href="#q" transform="matrix(1,0,0,1,745,90.5) translate(0 17.1)"/><use xlink:href="#r" transform="matrix(1,0,0,1,745,122.5) translate(0 17.1)"/><path d="M680 221h200v232H680z" fill="#fff"/><path d="M680 221h200v232H680zM680 261h200M740 261v192" stroke="#494949" stroke-width="2" fill="none"/><use xlink:href="#s" transform="matrix(1,0,0,1,690,221) translate(62.05 23.6)"/><use xlink:href="#b" transform="matrix(1,0,0,1,685,263.5) translate(13 17.1)"/><use xlink:href="#q" transform="matrix(1,0,0,1,745,263.5) translate(0 17.1)"/><use xlink:href="#t" transform="matrix(1,0,0,1,745,295.5) translate(0 17.1)"/><use xlink:href="#u" transform="matrix(1,0,0,1,745,327.5) translate(0 17.1)"/><use xlink:href="#g" transform="matrix(1,0,0,1,745,359.5) translate(0 17.1)"/><use xlink:href="#h" transform="matrix(1,0,0,1,745,391.5) translate(0 17.1)"/><use xlink:href="#i" transform="matrix(1,0,0,1,745,423.5) translate(0 17.1)"/><path d="M348 257h200v136H348z" fill="#fff"/><path d="M348 257h200v136H348zM348 297h200M408 297v96" stroke="#494949" stroke-width="2" fill="none"/><use xlink:href="#v" transform="matrix(1,0,0,1,358,257) translate(38.05 23.6)"/><use xlink:href="#p" transform="matrix(1,0,0,1,353,299.5) translate(13.524999999999999 17.1)"/><use xlink:href="#k" transform="matrix(1,0,0,1,413,299.5) translate(0 17.1)"/><use xlink:href="#p" transform="matrix(1,0,0,1,353,331.5) translate(13.524999999999999 17.1)"/><use xlink:href="#w" transform="matrix(1,0,0,1,413,331.5) translate(0 17.1)"/><use xlink:href="#r" transform="matrix(1,0,0,1,413,363.5) translate(0 17.1)"/><path d="M16 568h220v104H16z" fill="#fff"/><path d="M16 568h220v104H16zM16 608h220M76 608v64" stroke="#494949" stroke-width="2" fill="none"/><use xlink:href="#x" transform="matrix(1,0,0,1,26,568) translate(41.574999999999996 23.6)"/><use xlink:href="#b" transform="matrix(1,0,0,1,21,610.5) translate(13 17.1)"/><use xlink:href="#y" transform="matrix(1,0,0,1,81,610.5) translate(0 17.1)"/><use xlink:href="#z" transform="matrix(1,0,0,1,81,642.5) translate(0 17.1)"/><path d="M342 536.12h212v232H342z" fill="#fff"/><path d="M342 536.12h212v232H342zM342 576.12h212M402 576.12v192" stroke="#494949" stroke-width="2" fill="none"/><use xlink:href="#A" transform="matrix(1,0,0,1,352,536.1200012400025) translate(72.5 23.6)"/><use xlink:href="#b" transform="matrix(1,0,0,1,347,578.6200012400025) translate(13 17.1)"/><use xlink:href="#w" transform="matrix(1,0,0,1,407,578.6200012400025) translate(0 17.1)"/><use xlink:href="#B" transform="matrix(1,0,0,1,347,610.6200012400025) translate(13.524999999999999 17.1)"/><use xlink:href="#c" transform="matrix(1,0,0,1,407,610.6200012400025) translate(0 17.1)"/><use xlink:href="#B" transform="matrix(1,0,0,1,347,642.6200012400025) translate(13.524999999999999 17.1)"/><use xlink:href="#y" transform="matrix(1,0,0,1,407,642.6200012400025) translate(0 17.1)"/><use xlink:href="#B" transform="matrix(1,0,0,1,347,674.6200012400025) translate(13.524999999999999 17.1)"/><use xlink:href="#C" transform="matrix(1,0,0,1,407,674.6200012400025) translate(0 17.1)"/><use xlink:href="#D" transform="matrix(1,0,0,1,407,706.6200012400025) translate(0 17.1)"/><use xlink:href="#E" transform="matrix(1,0,0,1,407,738.6200012400025) translate(0 17.1)"/><defs><path fill="#494949" d="M67-125c0 53 21 87 73 88 37 1 54-22 65-47l45 17C233-25 199 4 140 4 58 4 20-42 15-125 8-235 124-281 211-232c18 10 29 29 36 50l-46 12c-8-25-30-41-62-41-52 0-71 34-72 86" id="F"/><path fill="#494949" d="M85 4C-2 5 27-109 22-190h50c7 57-23 150 33 157 60-5 35-97 40-157h50l1 190h-47c-2-12 1-28-3-38-12 25-28 42-61 42" id="G"/><path fill="#494949" d="M137-138c1-29-70-34-71-4 15 46 118 7 119 86 1 83-164 76-172 9l43-7c4 19 20 25 44 25 33 8 57-30 24-41C81-84 22-81 20-136c-2-80 154-74 161-7" id="H"/><path fill="#494949" d="M115-3C79 11 28 4 28-45v-112H4v-33h27l15-45h31v45h36v33H77v99c-1 23 16 31 38 25v30" id="I"/><path fill="#494949" d="M110-194c64 0 96 36 96 99 0 64-35 99-97 99-61 0-95-36-95-99 0-62 34-99 96-99zm-1 164c35 0 45-28 45-65 0-40-10-65-43-65-34 0-45 26-45 65 0 36 10 65 43 65" id="J"/><path fill="#494949" d="M220-157c-53 9-28 100-34 157h-49v-107c1-27-5-49-29-50C55-147 81-57 75 0H25l-1-190h47c2 12-1 28 3 38 10-53 101-56 108 0 13-22 24-43 59-42 82 1 51 116 57 194h-49v-107c-1-25-5-48-29-50" id="K"/><path fill="#494949" d="M185-48c-13 30-37 53-82 52C43 2 14-33 14-96s30-98 90-98c62 0 83 45 84 108H66c0 31 8 55 39 56 18 0 30-7 34-22zm-45-69c5-46-57-63-70-21-2 6-4 13-4 21h74" id="L"/><path fill="#494949" d="M135-150c-39-12-60 13-60 57V0H25l-1-190h47c2 13-1 29 3 40 6-28 27-53 61-41v41" id="M"/><g id="a"><use transform="matrix(0.05,0,0,0.05,0,0)" xlink:href="#F"/><use transform="matrix(0.05,0,0,0.05,12.950000000000001,0)" xlink:href="#G"/><use transform="matrix(0.05,0,0,0.05,23.900000000000002,0)" xlink:href="#H"/><use transform="matrix(0.05,0,0,0.05,33.900000000000006,0)" xlink:href="#I"/><use transform="matrix(0.05,0,0,0.05,39.85000000000001,0)" xlink:href="#J"/><use transform="matrix(0.05,0,0,0.05,50.80000000000001,0)" xlink:href="#K"/><use transform="matrix(0.05,0,0,0.05,66.80000000000001,0)" xlink:href="#L"/><use transform="matrix(0.05,0,0,0.05,76.80000000000001,0)" xlink:href="#M"/><use transform="matrix(0.05,0,0,0.05,83.80000000000001,0)" xlink:href="#H"/></g><path fill="#494949" d="M30-248c87 1 191-15 191 75 0 78-77 80-158 76V0H30v-248zm33 125c57 0 124 11 124-50 0-59-68-47-124-48v98" id="N"/><path fill="#494949" d="M194 0L95-120 63-95V0H30v-248h33v124l119-124h40L117-140 236 0h-42" id="O"/><g id="b"><use transform="matrix(0.05,0,0,0.05,0,0)" xlink:href="#N"/><use transform="matrix(0.05,0,0,0.05,12,0)" xlink:href="#O"/></g><path fill="#494949" d="M212-179c-10-28-35-45-73-45-59 0-87 40-87 99 0 60 29 101 89 101 43 0 62-24 78-52l27 14C228-24 195 4 139 4 59 4 22-46 18-125c-6-104 99-153 187-111 19 9 31 26 39 46" id="P"/><path fill="#494949" d="M84 4C-5 8 30-112 23-190h32v120c0 31 7 50 39 49 72-2 45-101 50-169h31l1 190h-30c-1-10 1-25-2-33-11 22-28 36-60 37" id="Q"/><path fill="#494949" d="M135-143c-3-34-86-38-87 0 15 53 115 12 119 90S17 21 10-45l28-5c4 36 97 45 98 0-10-56-113-15-118-90-4-57 82-63 122-42 12 7 21 19 24 35" id="R"/><path fill="#494949" d="M59-47c-2 24 18 29 38 22v24C64 9 27 4 27-40v-127H5v-23h24l9-43h21v43h35v23H59v120" id="S"/><path fill="#494949" d="M100-194c62-1 85 37 85 99 1 63-27 99-86 99S16-35 15-95c0-66 28-99 85-99zM99-20c44 1 53-31 53-75 0-43-8-75-51-75s-53 32-53 75 10 74 51 75" id="T"/><path fill="#494949" d="M210-169c-67 3-38 105-44 169h-31v-121c0-29-5-50-35-48C34-165 62-65 56 0H25l-1-190h30c1 10-1 24 2 32 10-44 99-50 107 0 11-21 27-35 58-36 85-2 47 119 55 194h-31v-121c0-29-5-49-35-48" id="U"/><path fill="#494949" d="M100-194c63 0 86 42 84 106H49c0 40 14 67 53 68 26 1 43-12 49-29l28 8c-11 28-37 45-77 45C44 4 14-33 15-96c1-61 26-98 85-98zm52 81c6-60-76-77-97-28-3 7-6 17-6 28h103" id="V"/><path fill="#494949" d="M114-163C36-179 61-72 57 0H25l-1-190h30c1 12-1 29 2 39 6-27 23-49 58-41v29" id="W"/><path fill="#494949" d="M190 0L58-211 59 0H30v-248h39L202-35l-2-213h31V0h-41" id="X"/><path fill="#494949" d="M115-194c53 0 69 39 70 98 0 66-23 100-70 100C84 3 66-7 56-30L54 0H23l1-261h32v101c10-23 28-34 59-34zm-8 174c40 0 45-34 45-75 0-40-5-75-45-74-42 0-51 32-51 76 0 43 10 73 51 73" id="Y"/><g id="c"><use transform="matrix(0.05,0,0,0.05,0,0)" xlink:href="#P"/><use transform="matrix(0.05,0,0,0.05,12.950000000000001,0)" xlink:href="#Q"/><use transform="matrix(0.05,0,0,0.05,22.950000000000003,0)" xlink:href="#R"/><use transform="matrix(0.05,0,0,0.05,31.950000000000003,0)" xlink:href="#S"/><use transform="matrix(0.05,0,0,0.05,36.95,0)" xlink:href="#T"/><use transform="matrix(0.05,0,0,0.05,46.95,0)" xlink:href="#U"/><use transform="matrix(0.05,0,0,0.05,61.900000000000006,0)" xlink:href="#V"/><use transform="matrix(0.05,0,0,0.05,71.9,0)" xlink:href="#W"/><use transform="matrix(0.05,0,0,0.05,77.85000000000001,0)" xlink:href="#X"/><use transform="matrix(0.05,0,0,0.05,90.80000000000001,0)" xlink:href="#Q"/><use transform="matrix(0.05,0,0,0.05,100.80000000000001,0)" xlink:href="#U"/><use transform="matrix(0.05,0,0,0.05,115.75,0)" xlink:href="#Y"/><use transform="matrix(0.05,0,0,0.05,125.75,0)" xlink:href="#V"/><use transform="matrix(0.05,0,0,0.05,135.75,0)" xlink:href="#W"/></g><path fill="#494949" d="M106-169C34-169 62-67 57 0H25v-261h32l-1 103c12-21 28-36 61-36 89 0 53 116 60 194h-32v-121c2-32-8-49-39-48" id="Z"/><path fill="#494949" d="M117-194c89-4 53 116 60 194h-32v-121c0-31-8-49-39-48C34-167 62-67 57 0H25l-1-190h30c1 10-1 24 2 32 11-22 29-35 61-36" id="aa"/><g id="d"><use transform="matrix(0.05,0,0,0.05,0,0)" xlink:href="#N"/><use transform="matrix(0.05,0,0,0.05,12,0)" xlink:href="#Z"/><use transform="matrix(0.05,0,0,0.05,22,0)" xlink:href="#T"/><use transform="matrix(0.05,0,0,0.05,32,0)" xlink:href="#aa"/><use transform="matrix(0.05,0,0,0.05,42,0)" xlink:href="#V"/><use transform="matrix(0.05,0,0,0.05,52,0)" xlink:href="#X"/><use transform="matrix(0.05,0,0,0.05,64.95,0)" xlink:href="#Q"/><use transform="matrix(0.05,0,0,0.05,74.95,0)" xlink:href="#U"/><use transform="matrix(0.05,0,0,0.05,89.9,0)" xlink:href="#Y"/><use transform="matrix(0.05,0,0,0.05,99.9,0)" xlink:href="#V"/><use transform="matrix(0.05,0,0,0.05,109.9,0)" xlink:href="#W"/></g><path fill="#494949" d="M141-36C126-15 110 5 73 4 37 3 15-17 15-53c-1-64 63-63 125-63 3-35-9-54-41-54-24 1-41 7-42 31l-33-3c5-37 33-52 76-52 45 0 72 20 72 64v82c-1 20 7 32 28 27v20c-31 9-61-2-59-35zM48-53c0 20 12 33 32 33 41-3 63-29 60-74-43 2-92-5-92 41" id="ab"/><g id="e"><use transform="matrix(0.05,0,0,0.05,0,0)" xlink:href="#P"/><use transform="matrix(0.05,0,0,0.05,12.950000000000001,0)" xlink:href="#Q"/><use transform="matrix(0.05,0,0,0.05,22.950000000000003,0)" xlink:href="#R"/><use transform="matrix(0.05,0,0,0.05,31.950000000000003,0)" xlink:href="#S"/><use transform="matrix(0.05,0,0,0.05,36.95,0)" xlink:href="#T"/><use transform="matrix(0.05,0,0,0.05,46.95,0)" xlink:href="#U"/><use transform="matrix(0.05,0,0,0.05,61.900000000000006,0)" xlink:href="#V"/><use transform="matrix(0.05,0,0,0.05,71.9,0)" xlink:href="#W"/><use transform="matrix(0.05,0,0,0.05,77.85000000000001,0)" xlink:href="#X"/><use transform="matrix(0.05,0,0,0.05,90.80000000000001,0)" xlink:href="#ab"/><use transform="matrix(0.05,0,0,0.05,100.80000000000001,0)" xlink:href="#U"/><use transform="matrix(0.05,0,0,0.05,115.75,0)" xlink:href="#V"/></g><path d="M205 0l-28-72H64L36 0H1l101-248h38L239 0h-34zm-38-99l-47-123c-12 45-31 82-46 123h93" id="ac"/><path d="M85-194c31 0 48 13 60 33l-1-100h32l1 261h-30c-2-10 0-23-3-31C134-8 116 4 85 4 32 4 16-35 15-94c0-66 23-100 70-100zm9 24c-40 0-46 34-46 75 0 40 6 74 45 74 42 0 51-32 51-76 0-42-9-74-50-73" id="ad"/><path d="M114-163C36-179 61-72 57 0H25l-1-190h30c1 12-1 29 2 39 6-27 23-49 58-41v29" id="ae"/><path d="M100-194c63 0 86 42 84 106H49c0 40 14 67 53 68 26 1 43-12 49-29l28 8c-11 28-37 45-77 45C44 4 14-33 15-96c1-61 26-98 85-98zm52 81c6-60-76-77-97-28-3 7-6 17-6 28h103" id="af"/><path d="M135-143c-3-34-86-38-87 0 15 53 115 12 119 90S17 21 10-45l28-5c4 36 97 45 98 0-10-56-113-15-118-90-4-57 82-63 122-42 12 7 21 19 24 35" id="ag"/><g id="f"><use transform="matrix(0.05,0,0,0.05,0,0)" xlink:href="#ac"/><use transform="matrix(0.05,0,0,0.05,12,0)" xlink:href="#ad"/><use transform="matrix(0.05,0,0,0.05,22,0)" xlink:href="#ad"/><use transform="matrix(0.05,0,0,0.05,32,0)" xlink:href="#ae"/><use transform="matrix(0.05,0,0,0.05,37.95,0)" xlink:href="#af"/><use transform="matrix(0.05,0,0,0.05,47.95,0)" xlink:href="#ag"/><use transform="matrix(0.05,0,0,0.05,56.95,0)" xlink:href="#ag"/></g><path d="M212-179c-10-28-35-45-73-45-59 0-87 40-87 99 0 60 29 101 89 101 43 0 62-24 78-52l27 14C228-24 195 4 139 4 59 4 22-46 18-125c-6-104 99-153 187-111 19 9 31 26 39 46" id="ah"/><path d="M24-231v-30h32v30H24zM24 0v-190h32V0H24" id="ai"/><path d="M59-47c-2 24 18 29 38 22v24C64 9 27 4 27-40v-127H5v-23h24l9-43h21v43h35v23H59v120" id="aj"/><path d="M179-190L93 31C79 59 56 82 12 73V49c39 6 53-20 64-50L1-190h34L92-34l54-156h33" id="ak"/><g id="g"><use transform="matrix(0.05,0,0,0.05,0,0)" xlink:href="#ah"/><use transform="matrix(0.05,0,0,0.05,12.950000000000001,0)" xlink:href="#ai"/><use transform="matrix(0.05,0,0,0.05,16.900000000000002,0)" xlink:href="#aj"/><use transform="matrix(0.05,0,0,0.05,21.900000000000002,0)" xlink:href="#ak"/></g><path d="M185-189c-5-48-123-54-124 2 14 75 158 14 163 119 3 78-121 87-175 55-17-10-28-26-33-46l33-7c5 56 141 63 141-1 0-78-155-14-162-118-5-82 145-84 179-34 5 7 8 16 11 25" id="al"/><path d="M141-36C126-15 110 5 73 4 37 3 15-17 15-53c-1-64 63-63 125-63 3-35-9-54-41-54-24 1-41 7-42 31l-33-3c5-37 33-52 76-52 45 0 72 20 72 64v82c-1 20 7 32 28 27v20c-31 9-61-2-59-35zM48-53c0 20 12 33 32 33 41-3 63-29 60-74-43 2-92-5-92 41" id="am"/><g id="h"><use transform="matrix(0.05,0,0,0.05,0,0)" xlink:href="#al"/><use transform="matrix(0.05,0,0,0.05,12,0)" xlink:href="#aj"/><use transform="matrix(0.05,0,0,0.05,17,0)" xlink:href="#am"/><use transform="matrix(0.05,0,0,0.05,27,0)" xlink:href="#aj"/><use transform="matrix(0.05,0,0,0.05,32,0)" xlink:href="#af"/></g><path d="M209 0H11v-25l151-195H24v-28h176v25L50-27h159V0" id="an"/><path d="M115-194c55 1 70 41 70 98S169 2 115 4C84 4 66-9 55-30l1 105H24l-1-265h31l2 30c10-21 28-34 59-34zm-8 174c40 0 45-34 45-75s-6-73-45-74c-42 0-51 32-51 76 0 43 10 73 51 73" id="ao"/><g id="i"><use transform="matrix(0.05,0,0,0.05,0,0)" xlink:href="#an"/><use transform="matrix(0.05,0,0,0.05,10.950000000000001,0)" xlink:href="#ai"/><use transform="matrix(0.05,0,0,0.05,14.9,0)" xlink:href="#ao"/></g><path fill="#494949" d="M24-248c93 1 206-16 204 79-1 75-69 88-152 82V0H24v-248zm52 121c47 0 100 7 100-41 0-47-54-39-100-39v80" id="ap"/><path fill="#494949" d="M88-194c31-1 46 15 58 34l-1-101h50l1 261h-48c-2-10 0-23-3-31C134-8 116 4 84 4 32 4 16-41 15-95c0-56 19-97 73-99zm17 164c33 0 40-30 41-66 1-37-9-64-41-64s-38 30-39 65c0 43 13 65 39 65" id="aq"/><path fill="#494949" d="M190-63c-7 42-38 67-86 67-59 0-84-38-90-98-12-110 154-137 174-36l-49 2c-2-19-15-32-35-32-30 0-35 28-38 64-6 74 65 87 74 30" id="ar"/><g id="j"><use transform="matrix(0.05,0,0,0.05,0,0)" xlink:href="#ap"/><use transform="matrix(0.05,0,0,0.05,12,0)" xlink:href="#M"/><use transform="matrix(0.05,0,0,0.05,19,0)" xlink:href="#J"/><use transform="matrix(0.05,0,0,0.05,29.950000000000003,0)" xlink:href="#aq"/><use transform="matrix(0.05,0,0,0.05,40.900000000000006,0)" xlink:href="#G"/><use transform="matrix(0.05,0,0,0.05,51.85,0)" xlink:href="#ar"/><use transform="matrix(0.05,0,0,0.05,61.85,0)" xlink:href="#I"/><use transform="matrix(0.05,0,0,0.05,67.80000000000001,0)" xlink:href="#H"/></g><path fill="#494949" d="M85-194c31 0 48 13 60 33l-1-100h32l1 261h-30c-2-10 0-23-3-31C134-8 116 4 85 4 32 4 16-35 15-94c0-66 23-100 70-100zm9 24c-40 0-46 34-46 75 0 40 6 74 45 74 42 0 51-32 51-76 0-42-9-74-50-73" id="as"/><path fill="#494949" d="M96-169c-40 0-48 33-48 73s9 75 48 75c24 0 41-14 43-38l32 2c-6 37-31 61-74 61-59 0-76-41-82-99-10-93 101-131 147-64 4 7 5 14 7 22l-32 3c-4-21-16-35-41-35" id="at"/><g id="k"><use transform="matrix(0.05,0,0,0.05,0,0)" xlink:href="#N"/><use transform="matrix(0.05,0,0,0.05,12,0)" xlink:href="#W"/><use transform="matrix(0.05,0,0,0.05,17.95,0)" xlink:href="#T"/><use transform="matrix(0.05,0,0,0.05,27.950000000000003,0)" xlink:href="#as"/><use transform="matrix(0.05,0,0,0.05,37.95,0)" xlink:href="#Q"/><use transform="matrix(0.05,0,0,0.05,47.95,0)" xlink:href="#at"/><use transform="matrix(0.05,0,0,0.05,56.95,0)" xlink:href="#S"/><use transform="matrix(0.05,0,0,0.05,61.95,0)" xlink:href="#P"/><use transform="matrix(0.05,0,0,0.05,74.9,0)" xlink:href="#T"/><use transform="matrix(0.05,0,0,0.05,84.9,0)" xlink:href="#as"/><use transform="matrix(0.05,0,0,0.05,94.9,0)" xlink:href="#V"/></g><path fill="#494949" d="M24-231v-30h32v30H24zM24 0v-190h32V0H24" id="au"/><g id="l"><use transform="matrix(0.05,0,0,0.05,0,0)" xlink:href="#N"/><use transform="matrix(0.05,0,0,0.05,12,0)" xlink:href="#W"/><use transform="matrix(0.05,0,0,0.05,17.95,0)" xlink:href="#au"/><use transform="matrix(0.05,0,0,0.05,21.9,0)" xlink:href="#at"/><use transform="matrix(0.05,0,0,0.05,30.899999999999995,0)" xlink:href="#V"/></g><path fill="#494949" d="M127-220V0H93v-220H8v-28h204v28h-85" id="av"/><path fill="#494949" d="M179-190L93 31C79 59 56 82 12 73V49c39 6 53-20 64-50L1-190h34L92-34l54-156h33" id="aw"/><path fill="#494949" d="M115-194c55 1 70 41 70 98S169 2 115 4C84 4 66-9 55-30l1 105H24l-1-265h31l2 30c10-21 28-34 59-34zm-8 174c40 0 45-34 45-75s-6-73-45-74c-42 0-51 32-51 76 0 43 10 73 51 73" id="ax"/><g id="m"><use transform="matrix(0.05,0,0,0.05,0,0)" xlink:href="#av"/><use transform="matrix(0.05,0,0,0.05,9.950000000000001,0)" xlink:href="#aw"/><use transform="matrix(0.05,0,0,0.05,18.950000000000003,0)" xlink:href="#ax"/><use transform="matrix(0.05,0,0,0.05,28.950000000000003,0)" xlink:href="#V"/></g><path d="M240 0l2-218c-23 76-54 145-80 218h-23L58-218 59 0H30v-248h44l77 211c21-75 51-140 76-211h43V0h-30" id="ay"/><path d="M117-194c89-4 53 116 60 194h-32v-121c0-31-8-49-39-48C34-167 62-67 57 0H25l-1-190h30c1 10-1 24 2 32 11-22 29-35 61-36" id="az"/><path d="M84 4C-5 8 30-112 23-190h32v120c0 31 7 50 39 49 72-2 45-101 50-169h31l1 190h-30c-1-10 1-25-2-33-11 22-28 36-60 37" id="aA"/><path d="M101-234c-31-9-42 10-38 44h38v23H63V0H32v-167H5v-23h27c-7-52 17-82 69-68v24" id="aB"/><path d="M96-169c-40 0-48 33-48 73s9 75 48 75c24 0 41-14 43-38l32 2c-6 37-31 61-74 61-59 0-76-41-82-99-10-93 101-131 147-64 4 7 5 14 7 22l-32 3c-4-21-16-35-41-35" id="aC"/><g id="n"><use transform="matrix(0.05,0,0,0.05,0,0)" xlink:href="#ay"/><use transform="matrix(0.05,0,0,0.05,14.950000000000001,0)" xlink:href="#am"/><use transform="matrix(0.05,0,0,0.05,24.950000000000003,0)" xlink:href="#az"/><use transform="matrix(0.05,0,0,0.05,34.95,0)" xlink:href="#aA"/><use transform="matrix(0.05,0,0,0.05,44.95,0)" xlink:href="#aB"/><use transform="matrix(0.05,0,0,0.05,49.95,0)" xlink:href="#am"/><use transform="matrix(0.05,0,0,0.05,59.95,0)" xlink:href="#aC"/><use transform="matrix(0.05,0,0,0.05,68.95,0)" xlink:href="#aj"/><use transform="matrix(0.05,0,0,0.05,73.95,0)" xlink:href="#aA"/><use transform="matrix(0.05,0,0,0.05,83.95,0)" xlink:href="#ae"/><use transform="matrix(0.05,0,0,0.05,89.9,0)" xlink:href="#af"/><use transform="matrix(0.05,0,0,0.05,99.9,0)" xlink:href="#ae"/></g><path fill="#494949" d="M169-182c-1-43-94-46-97-3 18 66 151 10 154 114 3 95-165 93-204 36-6-8-10-19-12-30l50-8c3 46 112 56 116 5-17-69-150-10-154-114-4-87 153-88 188-35 5 8 8 18 10 28" id="aD"/><path fill="#494949" d="M147 0L96-86 75-71V0H25v-261h50v150l67-79h53l-66 74L201 0h-54" id="aE"/><g id="o"><use transform="matrix(0.05,0,0,0.05,0,0)" xlink:href="#aD"/><use transform="matrix(0.05,0,0,0.05,12,0)" xlink:href="#I"/><use transform="matrix(0.05,0,0,0.05,17.95,0)" xlink:href="#J"/><use transform="matrix(0.05,0,0,0.05,28.899999999999995,0)" xlink:href="#ar"/><use transform="matrix(0.05,0,0,0.05,38.9,0)" xlink:href="#aE"/></g><path fill="#494949" d="M63-220v92h138v28H63V0H30v-248h175v28H63" id="aF"/><g id="p"><use transform="matrix(0.05,0,0,0.05,0,0)" xlink:href="#N"/><use transform="matrix(0.05,0,0,0.05,12,0)" xlink:href="#aF"/></g><path fill="#494949" d="M185-189c-5-48-123-54-124 2 14 75 158 14 163 119 3 78-121 87-175 55-17-10-28-26-33-46l33-7c5 56 141 63 141-1 0-78-155-14-162-118-5-82 145-84 179-34 5 7 8 16 11 25" id="aG"/><g id="q"><use transform="matrix(0.05,0,0,0.05,0,0)" xlink:href="#aG"/><use transform="matrix(0.05,0,0,0.05,12,0)" xlink:href="#S"/><use transform="matrix(0.05,0,0,0.05,17,0)" xlink:href="#T"/><use transform="matrix(0.05,0,0,0.05,27,0)" xlink:href="#W"/><use transform="matrix(0.05,0,0,0.05,32.95,0)" xlink:href="#V"/><use transform="matrix(0.05,0,0,0.05,42.95,0)" xlink:href="#X"/><use transform="matrix(0.05,0,0,0.05,55.900000000000006,0)" xlink:href="#Q"/><use transform="matrix(0.05,0,0,0.05,65.9,0)" xlink:href="#U"/><use transform="matrix(0.05,0,0,0.05,80.85000000000001,0)" xlink:href="#Y"/><use transform="matrix(0.05,0,0,0.05,90.85000000000001,0)" xlink:href="#V"/><use transform="matrix(0.05,0,0,0.05,100.85000000000001,0)" xlink:href="#W"/></g><path fill="#494949" d="M140-251c81 0 123 46 123 126C263-53 228-8 163 1c7 30 30 48 69 40v23c-55 16-95-15-103-61C56-3 17-48 17-125c0-80 42-126 123-126zm0 227c63 0 89-41 89-101s-29-99-89-99c-61 0-89 39-89 99S79-25 140-24" id="aH"/><g id="r"><use transform="matrix(0.05,0,0,0.05,0,0)" xlink:href="#aH"/><use transform="matrix(0.05,0,0,0.05,14,0)" xlink:href="#Q"/><use transform="matrix(0.05,0,0,0.05,24,0)" xlink:href="#ab"/><use transform="matrix(0.05,0,0,0.05,34,0)" xlink:href="#aa"/><use transform="matrix(0.05,0,0,0.05,44,0)" xlink:href="#S"/><use transform="matrix(0.05,0,0,0.05,49,0)" xlink:href="#au"/><use transform="matrix(0.05,0,0,0.05,52.95,0)" xlink:href="#S"/><use transform="matrix(0.05,0,0,0.05,57.95,0)" xlink:href="#aw"/></g><g id="s"><use transform="matrix(0.05,0,0,0.05,0,0)" xlink:href="#aD"/><use transform="matrix(0.05,0,0,0.05,12,0)" xlink:href="#I"/><use transform="matrix(0.05,0,0,0.05,17.95,0)" xlink:href="#J"/><use transform="matrix(0.05,0,0,0.05,28.899999999999995,0)" xlink:href="#M"/><use transform="matrix(0.05,0,0,0.05,35.9,0)" xlink:href="#L"/><use transform="matrix(0.05,0,0,0.05,45.9,0)" xlink:href="#H"/></g><g id="t"><use transform="matrix(0.05,0,0,0.05,0,0)" xlink:href="#aG"/><use transform="matrix(0.05,0,0,0.05,12,0)" xlink:href="#S"/><use transform="matrix(0.05,0,0,0.05,17,0)" xlink:href="#T"/><use transform="matrix(0.05,0,0,0.05,27,0)" xlink:href="#W"/><use transform="matrix(0.05,0,0,0.05,32.95,0)" xlink:href="#V"/><use transform="matrix(0.05,0,0,0.05,42.95,0)" xlink:href="#X"/><use transform="matrix(0.05,0,0,0.05,55.900000000000006,0)" xlink:href="#ab"/><use transform="matrix(0.05,0,0,0.05,65.9,0)" xlink:href="#U"/><use transform="matrix(0.05,0,0,0.05,80.85000000000001,0)" xlink:href="#V"/></g><path fill="#494949" d="M205 0l-28-72H64L36 0H1l101-248h38L239 0h-34zm-38-99l-47-123c-12 45-31 82-46 123h93" id="aI"/><g id="u"><use transform="matrix(0.05,0,0,0.05,0,0)" xlink:href="#aI"/><use transform="matrix(0.05,0,0,0.05,12,0)" xlink:href="#as"/><use transform="matrix(0.05,0,0,0.05,22,0)" xlink:href="#as"/><use transform="matrix(0.05,0,0,0.05,32,0)" xlink:href="#W"/><use transform="matrix(0.05,0,0,0.05,37.95,0)" xlink:href="#V"/><use transform="matrix(0.05,0,0,0.05,47.95,0)" xlink:href="#R"/><use transform="matrix(0.05,0,0,0.05,56.95,0)" xlink:href="#R"/></g><path fill="#494949" d="M133-34C117-15 103 5 69 4 32 3 11-16 11-54c-1-60 55-63 116-61 1-26-3-47-28-47-18 1-26 9-28 27l-52-2c7-38 36-58 82-57s74 22 75 68l1 82c-1 14 12 18 25 15v27c-30 8-71 5-69-32zm-48 3c29 0 43-24 42-57-32 0-66-3-65 30 0 17 8 27 23 27" id="aJ"/><path fill="#494949" d="M25 0v-261h50V0H25" id="aK"/><path fill="#494949" d="M25-224v-37h50v37H25zM25 0v-190h50V0H25" id="aL"/><g id="v"><use transform="matrix(0.05,0,0,0.05,0,0)" xlink:href="#aD"/><use transform="matrix(0.05,0,0,0.05,12,0)" xlink:href="#aJ"/><use transform="matrix(0.05,0,0,0.05,22,0)" xlink:href="#aK"/><use transform="matrix(0.05,0,0,0.05,27,0)" xlink:href="#L"/><use transform="matrix(0.05,0,0,0.05,37,0)" xlink:href="#H"/><use transform="matrix(0.05,0,0,0.05,47,0)" xlink:href="#aq"/><use transform="matrix(0.05,0,0,0.05,57.95,0)" xlink:href="#L"/><use transform="matrix(0.05,0,0,0.05,67.95,0)" xlink:href="#I"/><use transform="matrix(0.05,0,0,0.05,73.9,0)" xlink:href="#aJ"/><use transform="matrix(0.05,0,0,0.05,83.9,0)" xlink:href="#aL"/><use transform="matrix(0.05,0,0,0.05,88.9,0)" xlink:href="#aK"/><use transform="matrix(0.05,0,0,0.05,93.9,0)" xlink:href="#H"/></g><path fill="#494949" d="M24 0v-261h32V0H24" id="aM"/><g id="w"><use transform="matrix(0.05,0,0,0.05,0,0)" xlink:href="#aG"/><use transform="matrix(0.05,0,0,0.05,12,0)" xlink:href="#ab"/><use transform="matrix(0.05,0,0,0.05,22,0)" xlink:href="#aM"/><use transform="matrix(0.05,0,0,0.05,25.950000000000003,0)" xlink:href="#V"/><use transform="matrix(0.05,0,0,0.05,35.95,0)" xlink:href="#R"/><use transform="matrix(0.05,0,0,0.05,44.95,0)" xlink:href="#X"/><use transform="matrix(0.05,0,0,0.05,57.900000000000006,0)" xlink:href="#Q"/><use transform="matrix(0.05,0,0,0.05,67.9,0)" xlink:href="#U"/><use transform="matrix(0.05,0,0,0.05,82.85000000000001,0)" xlink:href="#Y"/><use transform="matrix(0.05,0,0,0.05,92.85000000000001,0)" xlink:href="#V"/><use transform="matrix(0.05,0,0,0.05,102.85000000000001,0)" xlink:href="#W"/></g><path fill="#494949" d="M135-194c53 0 70 44 70 98 0 56-19 98-73 100-31 1-45-17-59-34 3 33 2 69 2 105H25l-1-265h48c2 10 0 23 3 31 11-24 29-35 60-35zM114-30c33 0 39-31 40-66 0-38-9-64-40-64-56 0-55 130 0 130" id="aN"/><path fill="#494949" d="M135-194c87-1 58 113 63 194h-50c-7-57 23-157-34-157-59 0-34 97-39 157H25l-1-190h47c2 12-1 28 3 38 12-26 28-41 61-42" id="aO"/><g id="x"><use transform="matrix(0.05,0,0,0.05,0,0)" xlink:href="#aD"/><use transform="matrix(0.05,0,0,0.05,12,0)" xlink:href="#aJ"/><use transform="matrix(0.05,0,0,0.05,22,0)" xlink:href="#aK"/><use transform="matrix(0.05,0,0,0.05,27,0)" xlink:href="#L"/><use transform="matrix(0.05,0,0,0.05,37,0)" xlink:href="#H"/><use transform="matrix(0.05,0,0,0.05,47,0)" xlink:href="#aN"/><use transform="matrix(0.05,0,0,0.05,57.95,0)" xlink:href="#L"/><use transform="matrix(0.05,0,0,0.05,67.95,0)" xlink:href="#M"/><use transform="matrix(0.05,0,0,0.05,74.95,0)" xlink:href="#H"/><use transform="matrix(0.05,0,0,0.05,84.95,0)" xlink:href="#J"/><use transform="matrix(0.05,0,0,0.05,95.9,0)" xlink:href="#aO"/><use transform="matrix(0.05,0,0,0.05,106.85000000000001,0)" xlink:href="#H"/></g><path fill="#494949" d="M30 0v-248h187v28H63v79h144v27H63v87h162V0H30" id="aP"/><path fill="#494949" d="M33 0v-248h34V0H33" id="aQ"/><path fill="#494949" d="M30-248c118-7 216 8 213 122C240-48 200 0 122 0H30v-248zM63-27c89 8 146-16 146-99s-60-101-146-95v194" id="aR"/><g id="y"><use transform="matrix(0.05,0,0,0.05,0,0)" xlink:href="#aP"/><use transform="matrix(0.05,0,0,0.05,12,0)" xlink:href="#U"/><use transform="matrix(0.05,0,0,0.05,26.950000000000003,0)" xlink:href="#ax"/><use transform="matrix(0.05,0,0,0.05,36.95,0)" xlink:href="#aM"/><use transform="matrix(0.05,0,0,0.05,40.900000000000006,0)" xlink:href="#T"/><use transform="matrix(0.05,0,0,0.05,50.900000000000006,0)" xlink:href="#aw"/><use transform="matrix(0.05,0,0,0.05,59.900000000000006,0)" xlink:href="#V"/><use transform="matrix(0.05,0,0,0.05,69.9,0)" xlink:href="#V"/><use transform="matrix(0.05,0,0,0.05,79.9,0)" xlink:href="#aQ"/><use transform="matrix(0.05,0,0,0.05,84.9,0)" xlink:href="#aR"/></g><g id="z"><use transform="matrix(0.05,0,0,0.05,0,0)" xlink:href="#aG"/><use transform="matrix(0.05,0,0,0.05,12,0)" xlink:href="#ab"/><use transform="matrix(0.05,0,0,0.05,22,0)" xlink:href="#aM"/><use transform="matrix(0.05,0,0,0.05,25.950000000000003,0)" xlink:href="#V"/><use transform="matrix(0.05,0,0,0.05,35.95,0)" xlink:href="#R"/><use transform="matrix(0.05,0,0,0.05,44.95,0)" xlink:href="#N"/><use transform="matrix(0.05,0,0,0.05,56.95,0)" xlink:href="#V"/><use transform="matrix(0.05,0,0,0.05,66.95,0)" xlink:href="#W"/><use transform="matrix(0.05,0,0,0.05,72.9,0)" xlink:href="#R"/><use transform="matrix(0.05,0,0,0.05,81.9,0)" xlink:href="#T"/><use transform="matrix(0.05,0,0,0.05,91.9,0)" xlink:href="#aa"/><use transform="matrix(0.05,0,0,0.05,101.9,0)" xlink:href="#X"/><use transform="matrix(0.05,0,0,0.05,114.85000000000001,0)" xlink:href="#ab"/><use transform="matrix(0.05,0,0,0.05,124.85000000000001,0)" xlink:href="#U"/><use transform="matrix(0.05,0,0,0.05,139.8,0)" xlink:href="#V"/></g><g id="A"><use transform="matrix(0.05,0,0,0.05,0,0)" xlink:href="#aD"/><use transform="matrix(0.05,0,0,0.05,12,0)" xlink:href="#aJ"/><use transform="matrix(0.05,0,0,0.05,22,0)" xlink:href="#aK"/><use transform="matrix(0.05,0,0,0.05,27,0)" xlink:href="#L"/><use transform="matrix(0.05,0,0,0.05,37,0)" xlink:href="#H"/></g><g id="B"><use transform="matrix(0.05,0,0,0.05,0,0)" xlink:href="#aF"/><use transform="matrix(0.05,0,0,0.05,10.950000000000001,0)" xlink:href="#O"/></g><path d="M100-194c62-1 85 37 85 99 1 63-27 99-86 99S16-35 15-95c0-66 28-99 85-99zM99-20c44 1 53-31 53-75 0-43-8-75-51-75s-53 32-53 75 10 74 51 75" id="aS"/><path d="M190 0L58-211 59 0H30v-248h39L202-35l-2-213h31V0h-41" id="aT"/><path d="M210-169c-67 3-38 105-44 169h-31v-121c0-29-5-50-35-48C34-165 62-65 56 0H25l-1-190h30c1 10-1 24 2 32 10-44 99-50 107 0 11-21 27-35 58-36 85-2 47 119 55 194h-31v-121c0-29-5-49-35-48" id="aU"/><path d="M115-194c53 0 69 39 70 98 0 66-23 100-70 100C84 3 66-7 56-30L54 0H23l1-261h32v101c10-23 28-34 59-34zm-8 174c40 0 45-34 45-75 0-40-5-75-45-74-42 0-51 32-51 76 0 43 10 73 51 73" id="aV"/><g id="C"><use transform="matrix(0.05,0,0,0.05,0,0)" xlink:href="#al"/><use transform="matrix(0.05,0,0,0.05,12,0)" xlink:href="#aj"/><use transform="matrix(0.05,0,0,0.05,17,0)" xlink:href="#aS"/><use transform="matrix(0.05,0,0,0.05,27,0)" xlink:href="#ae"/><use transform="matrix(0.05,0,0,0.05,32.95,0)" xlink:href="#af"/><use transform="matrix(0.05,0,0,0.05,42.95,0)" xlink:href="#aT"/><use transform="matrix(0.05,0,0,0.05,55.900000000000006,0)" xlink:href="#aA"/><use transform="matrix(0.05,0,0,0.05,65.9,0)" xlink:href="#aU"/><use transform="matrix(0.05,0,0,0.05,80.85000000000001,0)" xlink:href="#aV"/><use transform="matrix(0.05,0,0,0.05,90.85000000000001,0)" xlink:href="#af"/><use transform="matrix(0.05,0,0,0.05,100.85000000000001,0)" xlink:href="#ae"/></g><path d="M24 0v-261h32V0H24" id="aW"/><path d="M30-248c118-7 216 8 213 122C240-48 200 0 122 0H30v-248zM63-27c89 8 146-16 146-99s-60-101-146-95v194" id="aX"/><g id="D"><use transform="matrix(0.05,0,0,0.05,0,0)" xlink:href="#al"/><use transform="matrix(0.05,0,0,0.05,12,0)" xlink:href="#am"/><use transform="matrix(0.05,0,0,0.05,22,0)" xlink:href="#aW"/><use transform="matrix(0.05,0,0,0.05,25.950000000000003,0)" xlink:href="#af"/><use transform="matrix(0.05,0,0,0.05,35.95,0)" xlink:href="#ag"/><use transform="matrix(0.05,0,0,0.05,44.95,0)" xlink:href="#aX"/><use transform="matrix(0.05,0,0,0.05,57.900000000000006,0)" xlink:href="#am"/><use transform="matrix(0.05,0,0,0.05,67.9,0)" xlink:href="#aj"/><use transform="matrix(0.05,0,0,0.05,72.9,0)" xlink:href="#af"/></g><path d="M127-220V0H93v-220H8v-28h204v28h-85" id="aY"/><g id="E"><use transform="matrix(0.05,0,0,0.05,0,0)" xlink:href="#al"/><use transform="matrix(0.05,0,0,0.05,12,0)" xlink:href="#am"/><use transform="matrix(0.05,0,0,0.05,22,0)" xlink:href="#aW"/><use transform="matrix(0.05,0,0,0.05,25.950000000000003,0)" xlink:href="#af"/><use transform="matrix(0.05,0,0,0.05,35.95,0)" xlink:href="#ag"/><use transform="matrix(0.05,0,0,0.05,44.95,0)" xlink:href="#aY"/><use transform="matrix(0.05,0,0,0.05,53.900000000000006,0)" xlink:href="#aS"/><use transform="matrix(0.05,0,0,0.05,63.900000000000006,0)" xlink:href="#aj"/><use transform="matrix(0.05,0,0,0.05,68.9,0)" xlink:href="#am"/><use transform="matrix(0.05,0,0,0.05,78.9,0)" xlink:href="#aW"/></g></defs></g></svg>