<svg xmlns="http://www.w3.org/2000/svg" xmlns:xlink="http://www.w3.org/1999/xlink" width="240" height="272"><g transform="translate(0 0)"><path d="M0 0h240v272H0z" fill="#fff"/><path d="M16 16h200v232H16z" fill="#fff"/><path d="M16 16h200v232H16zM16 56h200" stroke="#494949" stroke-width="2" fill="none"/><use xlink:href="#a" transform="matrix(1,0,0,1,26,16) translate(66.5 23.6)"/><use xlink:href="#b" transform="matrix(1,0,0,1,21,58.5) translate(0 17.1)"/><use xlink:href="#c" transform="matrix(1,0,0,1,21,90.5) translate(0 17.1)"/><use xlink:href="#d" transform="matrix(1,0,0,1,21,122.5) translate(0 17.1)"/><use xlink:href="#e" transform="matrix(1,0,0,1,21,154.5) translate(0 17.1)"/><use xlink:href="#f" transform="matrix(1,0,0,1,21,186.5) translate(0 17.1)"/><use xlink:href="#g" transform="matrix(1,0,0,1,21,218.5) translate(0 17.1)"/><defs><path fill="#494949" d="M169-182c-1-43-94-46-97-3 18 66 151 10 154 114 3 95-165 93-204 36-6-8-10-19-12-30l50-8c3 46 112 56 116 5-17-69-150-10-154-114-4-87 153-88 188-35 5 8 8 18 10 28" id="h"/><path fill="#494949" d="M133-34C117-15 103 5 69 4 32 3 11-16 11-54c-1-60 55-63 116-61 1-26-3-47-28-47-18 1-26 9-28 27l-52-2c7-38 36-58 82-57s74 22 75 68l1 82c-1 14 12 18 25 15v27c-30 8-71 5-69-32zm-48 3c29 0 43-24 42-57-32 0-66-3-65 30 0 17 8 27 23 27" id="i"/><path fill="#494949" d="M25 0v-261h50V0H25" id="j"/><path fill="#494949" d="M185-48c-13 30-37 53-82 52C43 2 14-33 14-96s30-98 90-98c62 0 83 45 84 108H66c0 31 8 55 39 56 18 0 30-7 34-22zm-45-69c5-46-57-63-70-21-2 6-4 13-4 21h74" id="k"/><path fill="#494949" d="M137-138c1-29-70-34-71-4 15 46 118 7 119 86 1 83-164 76-172 9l43-7c4 19 20 25 44 25 33 8 57-30 24-41C81-84 22-81 20-136c-2-80 154-74 161-7" id="l"/><g id="a"><use transform="matrix(0.05,0,0,0.05,0,0)" xlink:href="#h"/><use transform="matrix(0.05,0,0,0.05,12,0)" xlink:href="#i"/><use transform="matrix(0.05,0,0,0.05,22,0)" xlink:href="#j"/><use transform="matrix(0.05,0,0,0.05,27,0)" xlink:href="#k"/><use transform="matrix(0.05,0,0,0.05,37,0)" xlink:href="#l"/></g><path fill="#494949" d="M30-248c87 1 191-15 191 75 0 78-77 80-158 76V0H30v-248zm33 125c57 0 124 11 124-50 0-59-68-47-124-48v98" id="m"/><path fill="#494949" d="M114-163C36-179 61-72 57 0H25l-1-190h30c1 12-1 29 2 39 6-27 23-49 58-41v29" id="n"/><path fill="#494949" d="M100-194c62-1 85 37 85 99 1 63-27 99-86 99S16-35 15-95c0-66 28-99 85-99zM99-20c44 1 53-31 53-75 0-43-8-75-51-75s-53 32-53 75 10 74 51 75" id="o"/><path fill="#494949" d="M85-194c31 0 48 13 60 33l-1-100h32l1 261h-30c-2-10 0-23-3-31C134-8 116 4 85 4 32 4 16-35 15-94c0-66 23-100 70-100zm9 24c-40 0-46 34-46 75 0 40 6 74 45 74 42 0 51-32 51-76 0-42-9-74-50-73" id="p"/><path fill="#494949" d="M84 4C-5 8 30-112 23-190h32v120c0 31 7 50 39 49 72-2 45-101 50-169h31l1 190h-30c-1-10 1-25-2-33-11 22-28 36-60 37" id="q"/><path fill="#494949" d="M96-169c-40 0-48 33-48 73s9 75 48 75c24 0 41-14 43-38l32 2c-6 37-31 61-74 61-59 0-76-41-82-99-10-93 101-131 147-64 4 7 5 14 7 22l-32 3c-4-21-16-35-41-35" id="r"/><path fill="#494949" d="M59-47c-2 24 18 29 38 22v24C64 9 27 4 27-40v-127H5v-23h24l9-43h21v43h35v23H59v120" id="s"/><path fill="#494949" d="M27 0v-27h64v-190l-56 39v-29l58-41h29v221h61V0H27" id="t"/><g id="b"><use transform="matrix(0.05,0,0,0.05,0,0)" xlink:href="#m"/><use transform="matrix(0.05,0,0,0.05,12,0)" xlink:href="#n"/><use transform="matrix(0.05,0,0,0.05,17.95,0)" xlink:href="#o"/><use transform="matrix(0.05,0,0,0.05,27.950000000000003,0)" xlink:href="#p"/><use transform="matrix(0.05,0,0,0.05,37.95,0)" xlink:href="#q"/><use transform="matrix(0.05,0,0,0.05,47.95,0)" xlink:href="#r"/><use transform="matrix(0.05,0,0,0.05,56.95,0)" xlink:href="#s"/><use transform="matrix(0.05,0,0,0.05,61.95,0)" xlink:href="#t"/></g><path fill="#494949" d="M101-251c82-7 93 87 43 132L82-64C71-53 59-42 53-27h129V0H18c2-99 128-94 128-182 0-28-16-43-45-43s-46 15-49 41l-32-3c6-41 34-60 81-64" id="u"/><g id="c"><use transform="matrix(0.05,0,0,0.05,0,0)" xlink:href="#m"/><use transform="matrix(0.05,0,0,0.05,12,0)" xlink:href="#n"/><use transform="matrix(0.05,0,0,0.05,17.95,0)" xlink:href="#o"/><use transform="matrix(0.05,0,0,0.05,27.950000000000003,0)" xlink:href="#p"/><use transform="matrix(0.05,0,0,0.05,37.95,0)" xlink:href="#q"/><use transform="matrix(0.05,0,0,0.05,47.95,0)" xlink:href="#r"/><use transform="matrix(0.05,0,0,0.05,56.95,0)" xlink:href="#s"/><use transform="matrix(0.05,0,0,0.05,61.95,0)" xlink:href="#u"/></g><path fill="#494949" d="M126-127c33 6 58 20 58 59 0 88-139 92-164 29-3-8-5-16-6-25l32-3c6 27 21 44 54 44 32 0 52-15 52-46 0-38-36-46-79-43v-28c39 1 72-4 72-42 0-27-17-43-46-43-28 0-47 15-49 41l-32-3c6-42 35-63 81-64 48-1 79 21 79 65 0 36-21 52-52 59" id="v"/><g id="d"><use transform="matrix(0.05,0,0,0.05,0,0)" xlink:href="#m"/><use transform="matrix(0.05,0,0,0.05,12,0)" xlink:href="#n"/><use transform="matrix(0.05,0,0,0.05,17.95,0)" xlink:href="#o"/><use transform="matrix(0.05,0,0,0.05,27.950000000000003,0)" xlink:href="#p"/><use transform="matrix(0.05,0,0,0.05,37.95,0)" xlink:href="#q"/><use transform="matrix(0.05,0,0,0.05,47.95,0)" xlink:href="#r"/><use transform="matrix(0.05,0,0,0.05,56.95,0)" xlink:href="#s"/><use transform="matrix(0.05,0,0,0.05,61.95,0)" xlink:href="#v"/></g><path d="M185-189c-5-48-123-54-124 2 14 75 158 14 163 119 3 78-121 87-175 55-17-10-28-26-33-46l33-7c5 56 141 63 141-1 0-78-155-14-162-118-5-82 145-84 179-34 5 7 8 16 11 25" id="w"/><path d="M59-47c-2 24 18 29 38 22v24C64 9 27 4 27-40v-127H5v-23h24l9-43h21v43h35v23H59v120" id="x"/><path d="M100-194c62-1 85 37 85 99 1 63-27 99-86 99S16-35 15-95c0-66 28-99 85-99zM99-20c44 1 53-31 53-75 0-43-8-75-51-75s-53 32-53 75 10 74 51 75" id="y"/><path d="M114-163C36-179 61-72 57 0H25l-1-190h30c1 12-1 29 2 39 6-27 23-49 58-41v29" id="z"/><path d="M100-194c63 0 86 42 84 106H49c0 40 14 67 53 68 26 1 43-12 49-29l28 8c-11 28-37 45-77 45C44 4 14-33 15-96c1-61 26-98 85-98zm52 81c6-60-76-77-97-28-3 7-6 17-6 28h103" id="A"/><path d="M190 0L58-211 59 0H30v-248h39L202-35l-2-213h31V0h-41" id="B"/><path d="M84 4C-5 8 30-112 23-190h32v120c0 31 7 50 39 49 72-2 45-101 50-169h31l1 190h-30c-1-10 1-25-2-33-11 22-28 36-60 37" id="C"/><path d="M210-169c-67 3-38 105-44 169h-31v-121c0-29-5-50-35-48C34-165 62-65 56 0H25l-1-190h30c1 10-1 24 2 32 10-44 99-50 107 0 11-21 27-35 58-36 85-2 47 119 55 194h-31v-121c0-29-5-49-35-48" id="D"/><path d="M115-194c53 0 69 39 70 98 0 66-23 100-70 100C84 3 66-7 56-30L54 0H23l1-261h32v101c10-23 28-34 59-34zm-8 174c40 0 45-34 45-75 0-40-5-75-45-74-42 0-51 32-51 76 0 43 10 73 51 73" id="E"/><g id="e"><use transform="matrix(0.05,0,0,0.05,0,0)" xlink:href="#w"/><use transform="matrix(0.05,0,0,0.05,12,0)" xlink:href="#x"/><use transform="matrix(0.05,0,0,0.05,17,0)" xlink:href="#y"/><use transform="matrix(0.05,0,0,0.05,27,0)" xlink:href="#z"/><use transform="matrix(0.05,0,0,0.05,32.95,0)" xlink:href="#A"/><use transform="matrix(0.05,0,0,0.05,42.95,0)" xlink:href="#B"/><use transform="matrix(0.05,0,0,0.05,55.900000000000006,0)" xlink:href="#C"/><use transform="matrix(0.05,0,0,0.05,65.9,0)" xlink:href="#D"/><use transform="matrix(0.05,0,0,0.05,80.85000000000001,0)" xlink:href="#E"/><use transform="matrix(0.05,0,0,0.05,90.85000000000001,0)" xlink:href="#A"/><use transform="matrix(0.05,0,0,0.05,100.85000000000001,0)" xlink:href="#z"/></g><path d="M141-36C126-15 110 5 73 4 37 3 15-17 15-53c-1-64 63-63 125-63 3-35-9-54-41-54-24 1-41 7-42 31l-33-3c5-37 33-52 76-52 45 0 72 20 72 64v82c-1 20 7 32 28 27v20c-31 9-61-2-59-35zM48-53c0 20 12 33 32 33 41-3 63-29 60-74-43 2-92-5-92 41" id="F"/><path d="M24 0v-261h32V0H24" id="G"/><path d="M135-143c-3-34-86-38-87 0 15 53 115 12 119 90S17 21 10-45l28-5c4 36 97 45 98 0-10-56-113-15-118-90-4-57 82-63 122-42 12 7 21 19 24 35" id="H"/><path d="M30-248c118-7 216 8 213 122C240-48 200 0 122 0H30v-248zM63-27c89 8 146-16 146-99s-60-101-146-95v194" id="I"/><g id="f"><use transform="matrix(0.05,0,0,0.05,0,0)" xlink:href="#w"/><use transform="matrix(0.05,0,0,0.05,12,0)" xlink:href="#F"/><use transform="matrix(0.05,0,0,0.05,22,0)" xlink:href="#G"/><use transform="matrix(0.05,0,0,0.05,25.950000000000003,0)" xlink:href="#A"/><use transform="matrix(0.05,0,0,0.05,35.95,0)" xlink:href="#H"/><use transform="matrix(0.05,0,0,0.05,44.95,0)" xlink:href="#I"/><use transform="matrix(0.05,0,0,0.05,57.900000000000006,0)" xlink:href="#F"/><use transform="matrix(0.05,0,0,0.05,67.9,0)" xlink:href="#x"/><use transform="matrix(0.05,0,0,0.05,72.9,0)" xlink:href="#A"/></g><path d="M127-220V0H93v-220H8v-28h204v28h-85" id="J"/><g id="g"><use transform="matrix(0.05,0,0,0.05,0,0)" xlink:href="#w"/><use transform="matrix(0.05,0,0,0.05,12,0)" xlink:href="#F"/><use transform="matrix(0.05,0,0,0.05,22,0)" xlink:href="#G"/><use transform="matrix(0.05,0,0,0.05,25.950000000000003,0)" xlink:href="#A"/><use transform="matrix(0.05,0,0,0.05,35.95,0)" xlink:href="#H"/><use transform="matrix(0.05,0,0,0.05,44.95,0)" xlink:href="#J"/><use transform="matrix(0.05,0,0,0.05,53.900000000000006,0)" xlink:href="#y"/><use transform="matrix(0.05,0,0,0.05,63.900000000000006,0)" xlink:href="#x"/><use transform="matrix(0.05,0,0,0.05,68.9,0)" xlink:href="#F"/><use transform="matrix(0.05,0,0,0.05,78.9,0)" xlink:href="#G"/></g></defs></g></svg>