<svg xmlns="http://www.w3.org/2000/svg" xmlns:xlink="http://www.w3.org/1999/xlink" xmlns:lucid="lucid" width="896" height="640"><g transform="translate(0 0)" lucid:page-tab-id="0_0"><path d="M0 0h896v640H0z" fill="#fff"/><path d="M16 16h200v264H16z" fill="#fff"/><path d="M16 16h200v264H16zM16 56h200" stroke="#494949" stroke-width="2" fill="none"/><use xlink:href="#a" transform="matrix(1,0,0,1,26,16) translate(43.099999999999994 23.6)"/><use xlink:href="#b" transform="matrix(1,0,0,1,21,58.5) translate(0 17.1)"/><use xlink:href="#c" transform="matrix(1,0,0,1,21,90.5) translate(0 17.1)"/><use xlink:href="#d" transform="matrix(1,0,0,1,21,122.5) translate(0 17.1)"/><use xlink:href="#e" transform="matrix(1,0,0,1,21,154.5) translate(0 17.1)"/><use xlink:href="#f" transform="matrix(1,0,0,1,21,186.5) translate(0 17.1)"/><use xlink:href="#g" transform="matrix(1,0,0,1,21,218.5) translate(0 17.1)"/><use xlink:href="#h" transform="matrix(1,0,0,1,21,250.5) translate(0 17.1)"/><path d="M348 16h200v136H348z" fill="#fff"/><path d="M348 16h200v136H348zM348 56h200" stroke="#494949" stroke-width="2" fill="none"/><use xlink:href="#i" transform="matrix(1,0,0,1,358,16) translate(51.099999999999994 23.6)"/><use xlink:href="#j" transform="matrix(1,0,0,1,353,58.5) translate(0 17.1)"/><use xlink:href="#k" transform="matrix(1,0,0,1,353,90.5) translate(0 17.1)"/><use xlink:href="#l" transform="matrix(1,0,0,1,353,122.5) translate(0 17.1)"/><path d="M680 16h200v200H680z" fill="#fff"/><path d="M680 16h200v200H680zM680 56h200" stroke="#494949" stroke-width="2" fill="none"/><use xlink:href="#m" transform="matrix(1,0,0,1,690,16) translate(62.05 23.6)"/><use xlink:href="#n" transform="matrix(1,0,0,1,685,58.5) translate(0 17.1)"/><use xlink:href="#e" transform="matrix(1,0,0,1,685,90.5) translate(0 17.1)"/><use xlink:href="#f" transform="matrix(1,0,0,1,685,122.5) translate(0 17.1)"/><use xlink:href="#g" transform="matrix(1,0,0,1,685,154.5) translate(0 17.1)"/><use xlink:href="#o" transform="matrix(1,0,0,1,685,186.5) translate(0 17.1)"/><path d="M16 480h200v104H16z" fill="#fff"/><path d="M16 480h200v104H16zM16 520h200" stroke="#494949" stroke-width="2" fill="none"/><use xlink:href="#p" transform="matrix(1,0,0,1,26,480) translate(31.574999999999996 23.6)"/><use xlink:href="#q" transform="matrix(1,0,0,1,21,522.5) translate(0 17.1)"/><use xlink:href="#r" transform="matrix(1,0,0,1,21,554.5) translate(0 17.1)"/><path d="M350 480h200v136H350z" fill="#fff"/><path d="M350 480h200v136H350zM350 520h200" stroke="#494949" stroke-width="2" fill="none"/><use xlink:href="#s" transform="matrix(1,0,0,1,360,480) translate(66.5 23.6)"/><use xlink:href="#t" transform="matrix(1,0,0,1,355,522.5) translate(0 17.1)"/><use xlink:href="#u" transform="matrix(1,0,0,1,355,554.5) translate(0 17.1)"/><use xlink:href="#v" transform="matrix(1,0,0,1,355,586.5) translate(0 17.1)"/><path d="M216 72h132" stroke="#494949" stroke-width="2" fill="none"/><path fill="#fff"/><path d="M227 82h-2V62h2z" fill="#494949"/><path fill="#fff"/><path d="M237 82h-2V62h2zM348 62v1.12L330.24 72 348 80.88V82l-.45.9-21.8-10.9 21.8-10.9z" fill="#494949"/><path d="M328 72l-.5 3.16-1.43 2.75-2.16 2.17-2.74 1.42-3.16.5-3.16-.5-2.75-1.43-2.17-2.16-1.42-2.74L308 72l.5-3.16 1.43-2.75 2.16-2.17 2.74-1.42L318 62l3.16.5 2.75 1.43 2.17 2.16 1.42 2.74.5 3.16z" fill="#fff"/><path d="M321.48 61.55l3.02 1.56 2.4 2.4 1.55 3.02.54 3.32-1 .16 1 .16-.55 3.32-1.56 3.02-2.4 2.4-3.02 1.55L318 83l-3.48-.55-3.02-1.56-2.4-2.4-1.55-3.02L307 72l.55-3.48 1.56-3.02 2.4-2.4 3.02-1.55L318 61zm-6.32 1.92l-2.47 1.28-1.95 1.94-1.28 2.46L309 72l.47 2.84 1.28 2.47 1.94 1.95 2.46 1.28L318 81l2.84-.47 2.47-1.28 1.95-1.94 1.28-2.46L327 72l-.47-2.84-1.28-2.47-1.94-1.95-2.46-1.28L318 63z" fill="#494949"/><path d="M548 72h132" stroke="#494949" stroke-width="2" fill="none"/><path d="M570.24 72l-21.8 10.9-.44-.9v-1.12L565.76 72 548 63.12V62l.45-.9z" fill="#494949"/><path d="M588 72l-.5 3.16-1.43 2.75-2.16 2.17-2.74 1.42-3.16.5-3.16-.5-2.75-1.43-2.17-2.16-1.42-2.74L568 72l.5-3.16 1.43-2.75 2.16-2.17 2.74-1.42L578 62l3.16.5 2.75 1.43 2.17 2.16 1.42 2.74.5 3.16z" fill="#fff"/><path d="M581.48 61.55l3.02 1.56 2.4 2.4 1.55 3.02.54 3.32-1 .16 1 .16-.55 3.32-1.56 3.02-2.4 2.4-3.02 1.55L578 83l-3.48-.55-3.02-1.56-2.4-2.4-1.55-3.02L567 72l.55-3.48 1.56-3.02 2.4-2.4 3.02-1.55L578 61zm-6.32 1.92l-2.47 1.28-1.95 1.94-1.28 2.46L569 72l.47 2.84 1.28 2.47 1.94 1.95 2.46 1.28L578 81l2.84-.47 2.47-1.28 1.95-1.94 1.28-2.46L587 72l-.47-2.84-1.28-2.47-1.94-1.95-2.46-1.28L578 63zM680 62v1.12L662.24 72 680 80.88V82l-.45.9-21.8-10.9 21.8-10.9z" fill="#494949"/><path d="M660 72l-.5 3.16-1.43 2.75-2.16 2.17-2.74 1.42-3.16.5-3.16-.5-2.75-1.43-2.17-2.16-1.42-2.74L640 72l.5-3.16 1.43-2.75 2.16-2.17 2.74-1.42L650 62l3.16.5 2.75 1.43 2.17 2.16 1.42 2.74.5 3.16z" fill="#fff"/><path d="M653.48 61.55l3.02 1.56 2.4 2.4 1.55 3.02.54 3.32-1 .16 1 .16-.55 3.32-1.56 3.02-2.4 2.4-3.02 1.55L650 83l-3.48-.55-3.02-1.56-2.4-2.4-1.55-3.02L639 72l.55-3.48 1.56-3.02 2.4-2.4 3.02-1.55L650 61zm-6.32 1.92l-2.47 1.28-1.95 1.94-1.28 2.46L641 72l.47 2.84 1.28 2.47 1.94 1.95 2.46 1.28L650 81l2.84-.47 2.47-1.28 1.95-1.94 1.28-2.46L659 72l-.47-2.84-1.28-2.47-1.94-1.95-2.46-1.28L650 63z" fill="#494949"/><path d="M448 152v327" stroke="#494949" stroke-width="2" fill="none"/><path d="M458.9 152.45l-10.9 21.8-10.9-21.8.9-.45h1.12l8.88 17.76 8.88-17.76H458z" fill="#494949"/><path d="M458 182l-.5 3.16-1.43 2.75-2.16 2.17-2.74 1.42-3.16.5-3.16-.5-2.75-1.43-2.17-2.16-1.42-2.74-.5-3.16.5-3.16 1.43-2.75 2.16-2.17 2.74-1.42 3.16-.5 3.16.5 2.75 1.43 2.17 2.16 1.42 2.74.5 3.16z" fill="#fff"/><path d="M451.48 171.55l3.02 1.56 2.4 2.4 1.55 3.02.54 3.32-1 .16 1 .16-.55 3.32-1.56 3.02-2.4 2.4-3.02 1.55-3.48.56-3.48-.55-3.02-1.56-2.4-2.4-1.55-3.02L437 182l.55-3.48 1.56-3.02 2.4-2.4 3.02-1.55L448 171zm-6.32 1.92l-2.47 1.28-1.95 1.94-1.28 2.46L439 182l.47 2.84 1.28 2.47 1.94 1.95 2.46 1.28 2.84.46 2.84-.47 2.47-1.28 1.95-1.94 1.28-2.46.46-2.84-.47-2.84-1.28-2.47-1.94-1.95-2.46-1.28L448 173zM458.9 478.55l-1.8.9-9.1-18.2-9.1 18.2-1.8-.9 10.9-21.8z" fill="#494949"/><path d="M458 449l-.5 3.16-1.43 2.75-2.16 2.17-2.74 1.42-3.16.5-3.16-.5-2.75-1.43-2.17-2.16-1.42-2.74-.5-3.16.5-3.16 1.43-2.75 2.16-2.17 2.74-1.42 3.16-.5 3.16.5 2.75 1.43 2.17 2.16 1.42 2.74.5 3.16z" fill="#fff"/><path d="M451.48 438.55l3.02 1.56 2.4 2.4 1.55 3.02.54 3.32-1 .16 1 .16-.55 3.32-1.56 3.02-2.4 2.4-3.02 1.55-3.48.56-3.48-.55-3.02-1.56-2.4-2.4-1.55-3.02L437 449l.55-3.48 1.56-3.02 2.4-2.4 3.02-1.55L448 438zm-6.32 1.92l-2.47 1.28-1.95 1.94-1.28 2.46L439 449l.47 2.84 1.28 2.47 1.94 1.95 2.46 1.28 2.84.46 2.84-.47 2.47-1.28 1.95-1.94 1.28-2.46.46-2.84-.47-2.84-1.28-2.47-1.94-1.95-2.46-1.28L448 440z" fill="#494949"/><path d="M116 280v99.5h277.33V479" stroke="#494949" stroke-width="2" fill="none"/><path fill="#fff"/><path d="M126 291h-20v-2h20z" fill="#494949"/><path fill="#fff"/><path d="M126 301h-20v-2h20zM404.23 478.55l-1.8.9-9.1-18.2-9.1 18.2-1.8-.9 10.9-21.8z" fill="#494949"/><path d="M403.33 449l-.5 3.16-1.43 2.75-2.16 2.17-2.75 1.42-3.17.5-3.16-.5-2.74-1.43-2.17-2.16-1.42-2.74-.5-3.16.5-3.16 1.42-2.75 2.17-2.17 2.74-1.42 3.16-.5 3.16.5 2.74 1.43 2.16 2.16 1.42 2.74.5 3.16z" fill="#fff"/><path d="M396.8 438.55l3.04 1.56 2.38 2.4 1.57 3.02.52 3.32-1 .16 1 .16-.53 3.32-1.58 3.02-2.38 2.4-3.03 1.55-3.47.56-3.47-.55-3.03-1.56-2.38-2.4-1.57-3.02-.56-3.48.56-3.48 1.57-3.02 2.38-2.4 3.03-1.55 3.47-.56zm-6.3 1.92l-2.48 1.28-1.94 1.94-1.28 2.46-.45 2.84.45 2.84 1.28 2.47 1.94 1.95 2.47 1.28 2.83.46 2.85-.47 2.46-1.28 1.95-1.94 1.26-2.46.46-2.84-.46-2.84-1.27-2.47-1.96-1.95-2.46-1.28-2.85-.46z" fill="#494949"/><path d="M780 216v164H502.67v99" stroke="#494949" stroke-width="2" fill="none"/><path fill="#fff"/><path d="M790 227h-20v-2h20z" fill="#494949"/><path fill="#fff"/><path d="M790 237h-20v-2h20zM513.56 478.55l-1.8.9-9.1-18.2-9.1 18.2-1.8-.9 10.9-21.8z" fill="#494949"/><path d="M512.67 449l-.5 3.16-1.43 2.75-2.17 2.17-2.74 1.42-3.16.5-3.16-.5-2.74-1.43-2.16-2.16-1.42-2.74-.5-3.16.5-3.16 1.42-2.75 2.16-2.17 2.75-1.42 3.17-.5 3.16.5 2.74 1.43 2.17 2.16 1.42 2.74.5 3.16z" fill="#fff"/><path d="M506.14 438.55l3.03 1.56 2.38 2.4 1.57 3.02.53 3.32-.98.16.98.16-.53 3.32-1.57 3.02-2.38 2.4-3.03 1.55-3.47.56-3.48-.55-3.04-1.56-2.38-2.4-1.57-3.02-.55-3.48.56-3.48 1.58-3.02 2.38-2.4 3.03-1.55 3.47-.56zm-6.32 1.92l-2.46 1.28-1.95 1.94-1.26 2.46-.46 2.84.46 2.84 1.27 2.47 1.96 1.95 2.46 1.28 2.85.46 2.84-.47 2.48-1.28 1.94-1.94 1.28-2.46.45-2.84-.45-2.84-1.28-2.47-1.94-1.95-2.47-1.28-2.83-.46z" fill="#494949"/><path d="M216 536h133" stroke="#494949" stroke-width="2" fill="none"/><path fill="#fff"/><path d="M227 546h-2v-20h2z" fill="#494949"/><path fill="#fff"/><path d="M237 546h-2v-20h2zM349.45 526.9l-18.2 9.1 18.2 9.1-.9 1.8-21.8-10.9 21.8-10.9z" fill="#494949"/><path d="M329 536l-.5 3.16-1.43 2.75-2.16 2.17-2.74 1.42-3.16.5-3.16-.5-2.75-1.43-2.17-2.16-1.42-2.74-.5-3.16.5-3.16 1.43-2.75 2.16-2.17 2.74-1.42 3.16-.5 3.16.5 2.75 1.43 2.17 2.16 1.42 2.74.5 3.16z" fill="#fff"/><path d="M322.48 525.55l3.02 1.56 2.4 2.4 1.55 3.02.54 3.32-1 .16 1 .16-.55 3.32-1.56 3.02-2.4 2.4-3.02 1.55-3.48.56-3.48-.55-3.02-1.56-2.4-2.4-1.55-3.02L308 536l.55-3.48 1.56-3.02 2.4-2.4 3.02-1.55L319 525zm-6.32 1.92l-2.47 1.28-1.95 1.94-1.28 2.46L310 536l.47 2.84 1.28 2.47 1.94 1.95 2.46 1.28 2.84.46 2.84-.47 2.47-1.28 1.95-1.94 1.28-2.46.46-2.84-.47-2.84-1.28-2.47-1.94-1.95-2.46-1.28L319 527z" fill="#494949"/><defs><path fill="#494949" d="M67-125c0 53 21 87 73 88 37 1 54-22 65-47l45 17C233-25 199 4 140 4 58 4 20-42 15-125 8-235 124-281 211-232c18 10 29 29 36 50l-46 12c-8-25-30-41-62-41-52 0-71 34-72 86" id="w"/><path fill="#494949" d="M85 4C-2 5 27-109 22-190h50c7 57-23 150 33 157 60-5 35-97 40-157h50l1 190h-47c-2-12 1-28-3-38-12 25-28 42-61 42" id="x"/><path fill="#494949" d="M137-138c1-29-70-34-71-4 15 46 118 7 119 86 1 83-164 76-172 9l43-7c4 19 20 25 44 25 33 8 57-30 24-41C81-84 22-81 20-136c-2-80 154-74 161-7" id="y"/><path fill="#494949" d="M115-3C79 11 28 4 28-45v-112H4v-33h27l15-45h31v45h36v33H77v99c-1 23 16 31 38 25v30" id="z"/><path fill="#494949" d="M110-194c64 0 96 36 96 99 0 64-35 99-97 99-61 0-95-36-95-99 0-62 34-99 96-99zm-1 164c35 0 45-28 45-65 0-40-10-65-43-65-34 0-45 26-45 65 0 36 10 65 43 65" id="A"/><path fill="#494949" d="M220-157c-53 9-28 100-34 157h-49v-107c1-27-5-49-29-50C55-147 81-57 75 0H25l-1-190h47c2 12-1 28 3 38 10-53 101-56 108 0 13-22 24-43 59-42 82 1 51 116 57 194h-49v-107c-1-25-5-48-29-50" id="B"/><path fill="#494949" d="M185-48c-13 30-37 53-82 52C43 2 14-33 14-96s30-98 90-98c62 0 83 45 84 108H66c0 31 8 55 39 56 18 0 30-7 34-22zm-45-69c5-46-57-63-70-21-2 6-4 13-4 21h74" id="C"/><path fill="#494949" d="M135-150c-39-12-60 13-60 57V0H25l-1-190h47c2 13-1 29 3 40 6-28 27-53 61-41v41" id="D"/><g id="a"><use transform="matrix(0.05,0,0,0.05,0,0)" xlink:href="#w"/><use transform="matrix(0.05,0,0,0.05,12.950000000000001,0)" xlink:href="#x"/><use transform="matrix(0.05,0,0,0.05,23.900000000000002,0)" xlink:href="#y"/><use transform="matrix(0.05,0,0,0.05,33.900000000000006,0)" xlink:href="#z"/><use transform="matrix(0.05,0,0,0.05,39.85000000000001,0)" xlink:href="#A"/><use transform="matrix(0.05,0,0,0.05,50.80000000000001,0)" xlink:href="#B"/><use transform="matrix(0.05,0,0,0.05,66.80000000000001,0)" xlink:href="#C"/><use transform="matrix(0.05,0,0,0.05,76.80000000000001,0)" xlink:href="#D"/><use transform="matrix(0.05,0,0,0.05,83.80000000000001,0)" xlink:href="#y"/></g><path fill="#494949" d="M30-248c87 1 191-15 191 75 0 78-77 80-158 76V0H30v-248zm33 125c57 0 124 11 124-50 0-59-68-47-124-48v98" id="E"/><path fill="#494949" d="M106-169C34-169 62-67 57 0H25v-261h32l-1 103c12-21 28-36 61-36 89 0 53 116 60 194h-32v-121c2-32-8-49-39-48" id="F"/><path fill="#494949" d="M100-194c62-1 85 37 85 99 1 63-27 99-86 99S16-35 15-95c0-66 28-99 85-99zM99-20c44 1 53-31 53-75 0-43-8-75-51-75s-53 32-53 75 10 74 51 75" id="G"/><path fill="#494949" d="M117-194c89-4 53 116 60 194h-32v-121c0-31-8-49-39-48C34-167 62-67 57 0H25l-1-190h30c1 10-1 24 2 32 11-22 29-35 61-36" id="H"/><path fill="#494949" d="M100-194c63 0 86 42 84 106H49c0 40 14 67 53 68 26 1 43-12 49-29l28 8c-11 28-37 45-77 45C44 4 14-33 15-96c1-61 26-98 85-98zm52 81c6-60-76-77-97-28-3 7-6 17-6 28h103" id="I"/><path fill="#494949" d="M190 0L58-211 59 0H30v-248h39L202-35l-2-213h31V0h-41" id="J"/><path fill="#494949" d="M84 4C-5 8 30-112 23-190h32v120c0 31 7 50 39 49 72-2 45-101 50-169h31l1 190h-30c-1-10 1-25-2-33-11 22-28 36-60 37" id="K"/><path fill="#494949" d="M210-169c-67 3-38 105-44 169h-31v-121c0-29-5-50-35-48C34-165 62-65 56 0H25l-1-190h30c1 10-1 24 2 32 10-44 99-50 107 0 11-21 27-35 58-36 85-2 47 119 55 194h-31v-121c0-29-5-49-35-48" id="L"/><path fill="#494949" d="M115-194c53 0 69 39 70 98 0 66-23 100-70 100C84 3 66-7 56-30L54 0H23l1-261h32v101c10-23 28-34 59-34zm-8 174c40 0 45-34 45-75 0-40-5-75-45-74-42 0-51 32-51 76 0 43 10 73 51 73" id="M"/><path fill="#494949" d="M114-163C36-179 61-72 57 0H25l-1-190h30c1 12-1 29 2 39 6-27 23-49 58-41v29" id="N"/><g id="b"><use transform="matrix(0.05,0,0,0.05,0,0)" xlink:href="#E"/><use transform="matrix(0.05,0,0,0.05,12,0)" xlink:href="#F"/><use transform="matrix(0.05,0,0,0.05,22,0)" xlink:href="#G"/><use transform="matrix(0.05,0,0,0.05,32,0)" xlink:href="#H"/><use transform="matrix(0.05,0,0,0.05,42,0)" xlink:href="#I"/><use transform="matrix(0.05,0,0,0.05,52,0)" xlink:href="#J"/><use transform="matrix(0.05,0,0,0.05,64.95,0)" xlink:href="#K"/><use transform="matrix(0.05,0,0,0.05,74.95,0)" xlink:href="#L"/><use transform="matrix(0.05,0,0,0.05,89.9,0)" xlink:href="#M"/><use transform="matrix(0.05,0,0,0.05,99.9,0)" xlink:href="#I"/><use transform="matrix(0.05,0,0,0.05,109.9,0)" xlink:href="#N"/></g><path fill="#494949" d="M212-179c-10-28-35-45-73-45-59 0-87 40-87 99 0 60 29 101 89 101 43 0 62-24 78-52l27 14C228-24 195 4 139 4 59 4 22-46 18-125c-6-104 99-153 187-111 19 9 31 26 39 46" id="O"/><path fill="#494949" d="M135-143c-3-34-86-38-87 0 15 53 115 12 119 90S17 21 10-45l28-5c4 36 97 45 98 0-10-56-113-15-118-90-4-57 82-63 122-42 12 7 21 19 24 35" id="P"/><path fill="#494949" d="M59-47c-2 24 18 29 38 22v24C64 9 27 4 27-40v-127H5v-23h24l9-43h21v43h35v23H59v120" id="Q"/><g id="c"><use transform="matrix(0.05,0,0,0.05,0,0)" xlink:href="#O"/><use transform="matrix(0.05,0,0,0.05,12.950000000000001,0)" xlink:href="#K"/><use transform="matrix(0.05,0,0,0.05,22.950000000000003,0)" xlink:href="#P"/><use transform="matrix(0.05,0,0,0.05,31.950000000000003,0)" xlink:href="#Q"/><use transform="matrix(0.05,0,0,0.05,36.95,0)" xlink:href="#G"/><use transform="matrix(0.05,0,0,0.05,46.95,0)" xlink:href="#L"/><use transform="matrix(0.05,0,0,0.05,61.900000000000006,0)" xlink:href="#I"/><use transform="matrix(0.05,0,0,0.05,71.9,0)" xlink:href="#N"/><use transform="matrix(0.05,0,0,0.05,77.85000000000001,0)" xlink:href="#J"/><use transform="matrix(0.05,0,0,0.05,90.80000000000001,0)" xlink:href="#K"/><use transform="matrix(0.05,0,0,0.05,100.80000000000001,0)" xlink:href="#L"/><use transform="matrix(0.05,0,0,0.05,115.75,0)" xlink:href="#M"/><use transform="matrix(0.05,0,0,0.05,125.75,0)" xlink:href="#I"/><use transform="matrix(0.05,0,0,0.05,135.75,0)" xlink:href="#N"/></g><path fill="#494949" d="M141-36C126-15 110 5 73 4 37 3 15-17 15-53c-1-64 63-63 125-63 3-35-9-54-41-54-24 1-41 7-42 31l-33-3c5-37 33-52 76-52 45 0 72 20 72 64v82c-1 20 7 32 28 27v20c-31 9-61-2-59-35zM48-53c0 20 12 33 32 33 41-3 63-29 60-74-43 2-92-5-92 41" id="R"/><g id="d"><use transform="matrix(0.05,0,0,0.05,0,0)" xlink:href="#O"/><use transform="matrix(0.05,0,0,0.05,12.950000000000001,0)" xlink:href="#K"/><use transform="matrix(0.05,0,0,0.05,22.950000000000003,0)" xlink:href="#P"/><use transform="matrix(0.05,0,0,0.05,31.950000000000003,0)" xlink:href="#Q"/><use transform="matrix(0.05,0,0,0.05,36.95,0)" xlink:href="#G"/><use transform="matrix(0.05,0,0,0.05,46.95,0)" xlink:href="#L"/><use transform="matrix(0.05,0,0,0.05,61.900000000000006,0)" xlink:href="#I"/><use transform="matrix(0.05,0,0,0.05,71.9,0)" xlink:href="#N"/><use transform="matrix(0.05,0,0,0.05,77.85000000000001,0)" xlink:href="#J"/><use transform="matrix(0.05,0,0,0.05,90.80000000000001,0)" xlink:href="#R"/><use transform="matrix(0.05,0,0,0.05,100.80000000000001,0)" xlink:href="#L"/><use transform="matrix(0.05,0,0,0.05,115.75,0)" xlink:href="#I"/></g><path fill="#494949" d="M205 0l-28-72H64L36 0H1l101-248h38L239 0h-34zm-38-99l-47-123c-12 45-31 82-46 123h93" id="S"/><path fill="#494949" d="M85-194c31 0 48 13 60 33l-1-100h32l1 261h-30c-2-10 0-23-3-31C134-8 116 4 85 4 32 4 16-35 15-94c0-66 23-100 70-100zm9 24c-40 0-46 34-46 75 0 40 6 74 45 74 42 0 51-32 51-76 0-42-9-74-50-73" id="T"/><g id="e"><use transform="matrix(0.05,0,0,0.05,0,0)" xlink:href="#S"/><use transform="matrix(0.05,0,0,0.05,12,0)" xlink:href="#T"/><use transform="matrix(0.05,0,0,0.05,22,0)" xlink:href="#T"/><use transform="matrix(0.05,0,0,0.05,32,0)" xlink:href="#N"/><use transform="matrix(0.05,0,0,0.05,37.95,0)" xlink:href="#I"/><use transform="matrix(0.05,0,0,0.05,47.95,0)" xlink:href="#P"/><use transform="matrix(0.05,0,0,0.05,56.95,0)" xlink:href="#P"/></g><path fill="#494949" d="M24-231v-30h32v30H24zM24 0v-190h32V0H24" id="U"/><path fill="#494949" d="M179-190L93 31C79 59 56 82 12 73V49c39 6 53-20 64-50L1-190h34L92-34l54-156h33" id="V"/><g id="f"><use transform="matrix(0.05,0,0,0.05,0,0)" xlink:href="#O"/><use transform="matrix(0.05,0,0,0.05,12.950000000000001,0)" xlink:href="#U"/><use transform="matrix(0.05,0,0,0.05,16.900000000000002,0)" xlink:href="#Q"/><use transform="matrix(0.05,0,0,0.05,21.900000000000002,0)" xlink:href="#V"/></g><path d="M185-189c-5-48-123-54-124 2 14 75 158 14 163 119 3 78-121 87-175 55-17-10-28-26-33-46l33-7c5 56 141 63 141-1 0-78-155-14-162-118-5-82 145-84 179-34 5 7 8 16 11 25" id="W"/><path d="M59-47c-2 24 18 29 38 22v24C64 9 27 4 27-40v-127H5v-23h24l9-43h21v43h35v23H59v120" id="X"/><path d="M141-36C126-15 110 5 73 4 37 3 15-17 15-53c-1-64 63-63 125-63 3-35-9-54-41-54-24 1-41 7-42 31l-33-3c5-37 33-52 76-52 45 0 72 20 72 64v82c-1 20 7 32 28 27v20c-31 9-61-2-59-35zM48-53c0 20 12 33 32 33 41-3 63-29 60-74-43 2-92-5-92 41" id="Y"/><path d="M100-194c63 0 86 42 84 106H49c0 40 14 67 53 68 26 1 43-12 49-29l28 8c-11 28-37 45-77 45C44 4 14-33 15-96c1-61 26-98 85-98zm52 81c6-60-76-77-97-28-3 7-6 17-6 28h103" id="Z"/><g id="g"><use transform="matrix(0.05,0,0,0.05,0,0)" xlink:href="#W"/><use transform="matrix(0.05,0,0,0.05,12,0)" xlink:href="#X"/><use transform="matrix(0.05,0,0,0.05,17,0)" xlink:href="#Y"/><use transform="matrix(0.05,0,0,0.05,27,0)" xlink:href="#X"/><use transform="matrix(0.05,0,0,0.05,32,0)" xlink:href="#Z"/></g><path d="M209 0H11v-25l151-195H24v-28h176v25L50-27h159V0" id="aa"/><path d="M33 0v-248h34V0H33" id="ab"/><path d="M30-248c87 1 191-15 191 75 0 78-77 80-158 76V0H30v-248zm33 125c57 0 124 11 124-50 0-59-68-47-124-48v98" id="ac"/><g id="h"><use transform="matrix(0.05,0,0,0.05,0,0)" xlink:href="#aa"/><use transform="matrix(0.05,0,0,0.05,10.950000000000001,0)" xlink:href="#ab"/><use transform="matrix(0.05,0,0,0.05,15.950000000000001,0)" xlink:href="#ac"/></g><path fill="#494949" d="M24-248c93 1 206-16 204 79-1 75-69 88-152 82V0H24v-248zm52 121c47 0 100 7 100-41 0-47-54-39-100-39v80" id="ad"/><path fill="#494949" d="M88-194c31-1 46 15 58 34l-1-101h50l1 261h-48c-2-10 0-23-3-31C134-8 116 4 84 4 32 4 16-41 15-95c0-56 19-97 73-99zm17 164c33 0 40-30 41-66 1-37-9-64-41-64s-38 30-39 65c0 43 13 65 39 65" id="ae"/><path fill="#494949" d="M190-63c-7 42-38 67-86 67-59 0-84-38-90-98-12-110 154-137 174-36l-49 2c-2-19-15-32-35-32-30 0-35 28-38 64-6 74 65 87 74 30" id="af"/><g id="i"><use transform="matrix(0.05,0,0,0.05,0,0)" xlink:href="#ad"/><use transform="matrix(0.05,0,0,0.05,12,0)" xlink:href="#D"/><use transform="matrix(0.05,0,0,0.05,19,0)" xlink:href="#A"/><use transform="matrix(0.05,0,0,0.05,29.950000000000003,0)" xlink:href="#ae"/><use transform="matrix(0.05,0,0,0.05,40.900000000000006,0)" xlink:href="#x"/><use transform="matrix(0.05,0,0,0.05,51.85,0)" xlink:href="#af"/><use transform="matrix(0.05,0,0,0.05,61.85,0)" xlink:href="#z"/><use transform="matrix(0.05,0,0,0.05,67.80000000000001,0)" xlink:href="#y"/></g><path fill="#494949" d="M96-169c-40 0-48 33-48 73s9 75 48 75c24 0 41-14 43-38l32 2c-6 37-31 61-74 61-59 0-76-41-82-99-10-93 101-131 147-64 4 7 5 14 7 22l-32 3c-4-21-16-35-41-35" id="ag"/><g id="j"><use transform="matrix(0.05,0,0,0.05,0,0)" xlink:href="#E"/><use transform="matrix(0.05,0,0,0.05,12,0)" xlink:href="#N"/><use transform="matrix(0.05,0,0,0.05,17.95,0)" xlink:href="#U"/><use transform="matrix(0.05,0,0,0.05,21.9,0)" xlink:href="#ag"/><use transform="matrix(0.05,0,0,0.05,30.899999999999995,0)" xlink:href="#I"/></g><path fill="#494949" d="M127-220V0H93v-220H8v-28h204v28h-85" id="ah"/><path fill="#494949" d="M115-194c55 1 70 41 70 98S169 2 115 4C84 4 66-9 55-30l1 105H24l-1-265h31l2 30c10-21 28-34 59-34zm-8 174c40 0 45-34 45-75s-6-73-45-74c-42 0-51 32-51 76 0 43 10 73 51 73" id="ai"/><g id="k"><use transform="matrix(0.05,0,0,0.05,0,0)" xlink:href="#ah"/><use transform="matrix(0.05,0,0,0.05,9.950000000000001,0)" xlink:href="#V"/><use transform="matrix(0.05,0,0,0.05,18.950000000000003,0)" xlink:href="#ai"/><use transform="matrix(0.05,0,0,0.05,28.950000000000003,0)" xlink:href="#I"/></g><path fill="#494949" d="M240 0l2-218c-23 76-54 145-80 218h-23L58-218 59 0H30v-248h44l77 211c21-75 51-140 76-211h43V0h-30" id="aj"/><path fill="#494949" d="M101-234c-31-9-42 10-38 44h38v23H63V0H32v-167H5v-23h27c-7-52 17-82 69-68v24" id="ak"/><g id="l"><use transform="matrix(0.05,0,0,0.05,0,0)" xlink:href="#aj"/><use transform="matrix(0.05,0,0,0.05,14.950000000000001,0)" xlink:href="#R"/><use transform="matrix(0.05,0,0,0.05,24.950000000000003,0)" xlink:href="#H"/><use transform="matrix(0.05,0,0,0.05,34.95,0)" xlink:href="#K"/><use transform="matrix(0.05,0,0,0.05,44.95,0)" xlink:href="#ak"/><use transform="matrix(0.05,0,0,0.05,49.95,0)" xlink:href="#R"/><use transform="matrix(0.05,0,0,0.05,59.95,0)" xlink:href="#ag"/><use transform="matrix(0.05,0,0,0.05,68.95,0)" xlink:href="#Q"/><use transform="matrix(0.05,0,0,0.05,73.95,0)" xlink:href="#K"/><use transform="matrix(0.05,0,0,0.05,83.95,0)" xlink:href="#N"/><use transform="matrix(0.05,0,0,0.05,89.9,0)" xlink:href="#I"/><use transform="matrix(0.05,0,0,0.05,99.9,0)" xlink:href="#N"/></g><path fill="#494949" d="M169-182c-1-43-94-46-97-3 18 66 151 10 154 114 3 95-165 93-204 36-6-8-10-19-12-30l50-8c3 46 112 56 116 5-17-69-150-10-154-114-4-87 153-88 188-35 5 8 8 18 10 28" id="al"/><g id="m"><use transform="matrix(0.05,0,0,0.05,0,0)" xlink:href="#al"/><use transform="matrix(0.05,0,0,0.05,12,0)" xlink:href="#z"/><use transform="matrix(0.05,0,0,0.05,17.95,0)" xlink:href="#A"/><use transform="matrix(0.05,0,0,0.05,28.899999999999995,0)" xlink:href="#D"/><use transform="matrix(0.05,0,0,0.05,35.9,0)" xlink:href="#C"/><use transform="matrix(0.05,0,0,0.05,45.9,0)" xlink:href="#y"/></g><path fill="#494949" d="M185-189c-5-48-123-54-124 2 14 75 158 14 163 119 3 78-121 87-175 55-17-10-28-26-33-46l33-7c5 56 141 63 141-1 0-78-155-14-162-118-5-82 145-84 179-34 5 7 8 16 11 25" id="am"/><g id="n"><use transform="matrix(0.05,0,0,0.05,0,0)" xlink:href="#am"/><use transform="matrix(0.05,0,0,0.05,12,0)" xlink:href="#Q"/><use transform="matrix(0.05,0,0,0.05,17,0)" xlink:href="#G"/><use transform="matrix(0.05,0,0,0.05,27,0)" xlink:href="#N"/><use transform="matrix(0.05,0,0,0.05,32.95,0)" xlink:href="#I"/><use transform="matrix(0.05,0,0,0.05,42.95,0)" xlink:href="#J"/><use transform="matrix(0.05,0,0,0.05,55.900000000000006,0)" xlink:href="#R"/><use transform="matrix(0.05,0,0,0.05,65.9,0)" xlink:href="#L"/><use transform="matrix(0.05,0,0,0.05,80.85000000000001,0)" xlink:href="#I"/></g><path d="M24-231v-30h32v30H24zM24 0v-190h32V0H24" id="an"/><path d="M115-194c55 1 70 41 70 98S169 2 115 4C84 4 66-9 55-30l1 105H24l-1-265h31l2 30c10-21 28-34 59-34zm-8 174c40 0 45-34 45-75s-6-73-45-74c-42 0-51 32-51 76 0 43 10 73 51 73" id="ao"/><g id="o"><use transform="matrix(0.05,0,0,0.05,0,0)" xlink:href="#aa"/><use transform="matrix(0.05,0,0,0.05,10.950000000000001,0)" xlink:href="#an"/><use transform="matrix(0.05,0,0,0.05,14.9,0)" xlink:href="#ao"/></g><path fill="#494949" d="M133-34C117-15 103 5 69 4 32 3 11-16 11-54c-1-60 55-63 116-61 1-26-3-47-28-47-18 1-26 9-28 27l-52-2c7-38 36-58 82-57s74 22 75 68l1 82c-1 14 12 18 25 15v27c-30 8-71 5-69-32zm-48 3c29 0 43-24 42-57-32 0-66-3-65 30 0 17 8 27 23 27" id="ap"/><path fill="#494949" d="M25 0v-261h50V0H25" id="aq"/><path fill="#494949" d="M135-194c53 0 70 44 70 98 0 56-19 98-73 100-31 1-45-17-59-34 3 33 2 69 2 105H25l-1-265h48c2 10 0 23 3 31 11-24 29-35 60-35zM114-30c33 0 39-31 40-66 0-38-9-64-40-64-56 0-55 130 0 130" id="ar"/><path fill="#494949" d="M135-194c87-1 58 113 63 194h-50c-7-57 23-157-34-157-59 0-34 97-39 157H25l-1-190h47c2 12-1 28 3 38 12-26 28-41 61-42" id="as"/><g id="p"><use transform="matrix(0.05,0,0,0.05,0,0)" xlink:href="#al"/><use transform="matrix(0.05,0,0,0.05,12,0)" xlink:href="#ap"/><use transform="matrix(0.05,0,0,0.05,22,0)" xlink:href="#aq"/><use transform="matrix(0.05,0,0,0.05,27,0)" xlink:href="#C"/><use transform="matrix(0.05,0,0,0.05,37,0)" xlink:href="#y"/><use transform="matrix(0.05,0,0,0.05,47,0)" xlink:href="#ar"/><use transform="matrix(0.05,0,0,0.05,57.95,0)" xlink:href="#C"/><use transform="matrix(0.05,0,0,0.05,67.95,0)" xlink:href="#D"/><use transform="matrix(0.05,0,0,0.05,74.95,0)" xlink:href="#y"/><use transform="matrix(0.05,0,0,0.05,84.95,0)" xlink:href="#A"/><use transform="matrix(0.05,0,0,0.05,95.9,0)" xlink:href="#as"/><use transform="matrix(0.05,0,0,0.05,106.85000000000001,0)" xlink:href="#y"/></g><path fill="#494949" d="M30 0v-248h187v28H63v79h144v27H63v87h162V0H30" id="at"/><path fill="#494949" d="M24 0v-261h32V0H24" id="au"/><path fill="#494949" d="M33 0v-248h34V0H33" id="av"/><path fill="#494949" d="M30-248c118-7 216 8 213 122C240-48 200 0 122 0H30v-248zM63-27c89 8 146-16 146-99s-60-101-146-95v194" id="aw"/><g id="q"><use transform="matrix(0.05,0,0,0.05,0,0)" xlink:href="#at"/><use transform="matrix(0.05,0,0,0.05,12,0)" xlink:href="#L"/><use transform="matrix(0.05,0,0,0.05,26.950000000000003,0)" xlink:href="#ai"/><use transform="matrix(0.05,0,0,0.05,36.95,0)" xlink:href="#au"/><use transform="matrix(0.05,0,0,0.05,40.900000000000006,0)" xlink:href="#G"/><use transform="matrix(0.05,0,0,0.05,50.900000000000006,0)" xlink:href="#V"/><use transform="matrix(0.05,0,0,0.05,59.900000000000006,0)" xlink:href="#I"/><use transform="matrix(0.05,0,0,0.05,69.9,0)" xlink:href="#I"/><use transform="matrix(0.05,0,0,0.05,79.9,0)" xlink:href="#av"/><use transform="matrix(0.05,0,0,0.05,84.9,0)" xlink:href="#aw"/></g><g id="r"><use transform="matrix(0.05,0,0,0.05,0,0)" xlink:href="#am"/><use transform="matrix(0.05,0,0,0.05,12,0)" xlink:href="#R"/><use transform="matrix(0.05,0,0,0.05,22,0)" xlink:href="#au"/><use transform="matrix(0.05,0,0,0.05,25.950000000000003,0)" xlink:href="#I"/><use transform="matrix(0.05,0,0,0.05,35.95,0)" xlink:href="#P"/><use transform="matrix(0.05,0,0,0.05,44.95,0)" xlink:href="#E"/><use transform="matrix(0.05,0,0,0.05,56.95,0)" xlink:href="#I"/><use transform="matrix(0.05,0,0,0.05,66.95,0)" xlink:href="#N"/><use transform="matrix(0.05,0,0,0.05,72.9,0)" xlink:href="#P"/><use transform="matrix(0.05,0,0,0.05,81.9,0)" xlink:href="#G"/><use transform="matrix(0.05,0,0,0.05,91.9,0)" xlink:href="#H"/><use transform="matrix(0.05,0,0,0.05,101.9,0)" xlink:href="#J"/><use transform="matrix(0.05,0,0,0.05,114.85000000000001,0)" xlink:href="#R"/><use transform="matrix(0.05,0,0,0.05,124.85000000000001,0)" xlink:href="#L"/><use transform="matrix(0.05,0,0,0.05,139.8,0)" xlink:href="#I"/></g><g id="s"><use transform="matrix(0.05,0,0,0.05,0,0)" xlink:href="#al"/><use transform="matrix(0.05,0,0,0.05,12,0)" xlink:href="#ap"/><use transform="matrix(0.05,0,0,0.05,22,0)" xlink:href="#aq"/><use transform="matrix(0.05,0,0,0.05,27,0)" xlink:href="#C"/><use transform="matrix(0.05,0,0,0.05,37,0)" xlink:href="#y"/></g><g id="t"><use transform="matrix(0.05,0,0,0.05,0,0)" xlink:href="#E"/><use transform="matrix(0.05,0,0,0.05,12,0)" xlink:href="#N"/><use transform="matrix(0.05,0,0,0.05,17.95,0)" xlink:href="#G"/><use transform="matrix(0.05,0,0,0.05,27.950000000000003,0)" xlink:href="#T"/><use transform="matrix(0.05,0,0,0.05,37.95,0)" xlink:href="#K"/><use transform="matrix(0.05,0,0,0.05,47.95,0)" xlink:href="#ag"/><use transform="matrix(0.05,0,0,0.05,56.95,0)" xlink:href="#Q"/><use transform="matrix(0.05,0,0,0.05,61.95,0)" xlink:href="#P"/></g><g id="u"><use transform="matrix(0.05,0,0,0.05,0,0)" xlink:href="#aw"/><use transform="matrix(0.05,0,0,0.05,12.950000000000001,0)" xlink:href="#R"/><use transform="matrix(0.05,0,0,0.05,22.950000000000003,0)" xlink:href="#Q"/><use transform="matrix(0.05,0,0,0.05,27.950000000000003,0)" xlink:href="#I"/></g><g id="v"><use transform="matrix(0.05,0,0,0.05,0,0)" xlink:href="#am"/><use transform="matrix(0.05,0,0,0.05,12,0)" xlink:href="#K"/><use transform="matrix(0.05,0,0,0.05,22,0)" xlink:href="#L"/><use transform="matrix(0.05,0,0,0.05,36.95,0)" xlink:href="#ah"/><use transform="matrix(0.05,0,0,0.05,45.900000000000006,0)" xlink:href="#G"/><use transform="matrix(0.05,0,0,0.05,55.900000000000006,0)" xlink:href="#Q"/><use transform="matrix(0.05,0,0,0.05,60.900000000000006,0)" xlink:href="#R"/><use transform="matrix(0.05,0,0,0.05,70.9,0)" xlink:href="#au"/></g></defs></g></svg>