<svg xmlns="http://www.w3.org/2000/svg" xmlns:xlink="http://www.w3.org/1999/xlink" width="896" height="208"><g transform="translate(0 0)"><path d="M16 16h200v68H16z" fill="#fff"/><path d="M16 16h200v68H16zM16 56h200" stroke="#494949" stroke-width="2" fill="none"/><use xlink:href="#a" transform="matrix(1,0,0,1,26,16) translate(43.099999999999994 23.6)"/><path d="M350 20h200v68H350z" fill="#fff"/><path d="M350 20h200v68H350zM350 60h200" stroke="#494949" stroke-width="2" fill="none"/><use xlink:href="#b" transform="matrix(1,0,0,1,360,20) translate(51.099999999999994 23.6)"/><path d="M680 16h200v68H680z" fill="#fff"/><path d="M680 16h200v68H680zM680 56h200" stroke="#494949" stroke-width="2" fill="none"/><use xlink:href="#c" transform="matrix(1,0,0,1,690,16) translate(62.05 23.6)"/><path d="M16 124h200v68H16z" fill="#fff"/><path d="M16 124h200v68H16zM16 164h200" stroke="#494949" stroke-width="2" fill="none"/><use xlink:href="#d" transform="matrix(1,0,0,1,26,124) translate(31.574999999999996 23.6)"/><path d="M350 124h200v68H350z" fill="#fff"/><path d="M350 124h200v68H350zM350 164h200" stroke="#494949" stroke-width="2" fill="none"/><use xlink:href="#e" transform="matrix(1,0,0,1,360,124) translate(66.5 23.6)"/><defs><path fill="#494949" d="M67-125c0 53 21 87 73 88 37 1 54-22 65-47l45 17C233-25 199 4 140 4 58 4 20-42 15-125 8-235 124-281 211-232c18 10 29 29 36 50l-46 12c-8-25-30-41-62-41-52 0-71 34-72 86" id="f"/><path fill="#494949" d="M85 4C-2 5 27-109 22-190h50c7 57-23 150 33 157 60-5 35-97 40-157h50l1 190h-47c-2-12 1-28-3-38-12 25-28 42-61 42" id="g"/><path fill="#494949" d="M137-138c1-29-70-34-71-4 15 46 118 7 119 86 1 83-164 76-172 9l43-7c4 19 20 25 44 25 33 8 57-30 24-41C81-84 22-81 20-136c-2-80 154-74 161-7" id="h"/><path fill="#494949" d="M115-3C79 11 28 4 28-45v-112H4v-33h27l15-45h31v45h36v33H77v99c-1 23 16 31 38 25v30" id="i"/><path fill="#494949" d="M110-194c64 0 96 36 96 99 0 64-35 99-97 99-61 0-95-36-95-99 0-62 34-99 96-99zm-1 164c35 0 45-28 45-65 0-40-10-65-43-65-34 0-45 26-45 65 0 36 10 65 43 65" id="j"/><path fill="#494949" d="M220-157c-53 9-28 100-34 157h-49v-107c1-27-5-49-29-50C55-147 81-57 75 0H25l-1-190h47c2 12-1 28 3 38 10-53 101-56 108 0 13-22 24-43 59-42 82 1 51 116 57 194h-49v-107c-1-25-5-48-29-50" id="k"/><path fill="#494949" d="M185-48c-13 30-37 53-82 52C43 2 14-33 14-96s30-98 90-98c62 0 83 45 84 108H66c0 31 8 55 39 56 18 0 30-7 34-22zm-45-69c5-46-57-63-70-21-2 6-4 13-4 21h74" id="l"/><path fill="#494949" d="M135-150c-39-12-60 13-60 57V0H25l-1-190h47c2 13-1 29 3 40 6-28 27-53 61-41v41" id="m"/><g id="a"><use transform="matrix(0.05,0,0,0.05,0,0)" xlink:href="#f"/><use transform="matrix(0.05,0,0,0.05,12.950000000000001,0)" xlink:href="#g"/><use transform="matrix(0.05,0,0,0.05,23.900000000000002,0)" xlink:href="#h"/><use transform="matrix(0.05,0,0,0.05,33.900000000000006,0)" xlink:href="#i"/><use transform="matrix(0.05,0,0,0.05,39.85000000000001,0)" xlink:href="#j"/><use transform="matrix(0.05,0,0,0.05,50.80000000000001,0)" xlink:href="#k"/><use transform="matrix(0.05,0,0,0.05,66.80000000000001,0)" xlink:href="#l"/><use transform="matrix(0.05,0,0,0.05,76.80000000000001,0)" xlink:href="#m"/><use transform="matrix(0.05,0,0,0.05,83.80000000000001,0)" xlink:href="#h"/></g><path fill="#494949" d="M24-248c93 1 206-16 204 79-1 75-69 88-152 82V0H24v-248zm52 121c47 0 100 7 100-41 0-47-54-39-100-39v80" id="n"/><path fill="#494949" d="M88-194c31-1 46 15 58 34l-1-101h50l1 261h-48c-2-10 0-23-3-31C134-8 116 4 84 4 32 4 16-41 15-95c0-56 19-97 73-99zm17 164c33 0 40-30 41-66 1-37-9-64-41-64s-38 30-39 65c0 43 13 65 39 65" id="o"/><path fill="#494949" d="M190-63c-7 42-38 67-86 67-59 0-84-38-90-98-12-110 154-137 174-36l-49 2c-2-19-15-32-35-32-30 0-35 28-38 64-6 74 65 87 74 30" id="p"/><g id="b"><use transform="matrix(0.05,0,0,0.05,0,0)" xlink:href="#n"/><use transform="matrix(0.05,0,0,0.05,12,0)" xlink:href="#m"/><use transform="matrix(0.05,0,0,0.05,19,0)" xlink:href="#j"/><use transform="matrix(0.05,0,0,0.05,29.950000000000003,0)" xlink:href="#o"/><use transform="matrix(0.05,0,0,0.05,40.900000000000006,0)" xlink:href="#g"/><use transform="matrix(0.05,0,0,0.05,51.85,0)" xlink:href="#p"/><use transform="matrix(0.05,0,0,0.05,61.85,0)" xlink:href="#i"/><use transform="matrix(0.05,0,0,0.05,67.80000000000001,0)" xlink:href="#h"/></g><path fill="#494949" d="M169-182c-1-43-94-46-97-3 18 66 151 10 154 114 3 95-165 93-204 36-6-8-10-19-12-30l50-8c3 46 112 56 116 5-17-69-150-10-154-114-4-87 153-88 188-35 5 8 8 18 10 28" id="q"/><g id="c"><use transform="matrix(0.05,0,0,0.05,0,0)" xlink:href="#q"/><use transform="matrix(0.05,0,0,0.05,12,0)" xlink:href="#i"/><use transform="matrix(0.05,0,0,0.05,17.95,0)" xlink:href="#j"/><use transform="matrix(0.05,0,0,0.05,28.899999999999995,0)" xlink:href="#m"/><use transform="matrix(0.05,0,0,0.05,35.9,0)" xlink:href="#l"/><use transform="matrix(0.05,0,0,0.05,45.9,0)" xlink:href="#h"/></g><path fill="#494949" d="M133-34C117-15 103 5 69 4 32 3 11-16 11-54c-1-60 55-63 116-61 1-26-3-47-28-47-18 1-26 9-28 27l-52-2c7-38 36-58 82-57s74 22 75 68l1 82c-1 14 12 18 25 15v27c-30 8-71 5-69-32zm-48 3c29 0 43-24 42-57-32 0-66-3-65 30 0 17 8 27 23 27" id="r"/><path fill="#494949" d="M25 0v-261h50V0H25" id="s"/><path fill="#494949" d="M135-194c53 0 70 44 70 98 0 56-19 98-73 100-31 1-45-17-59-34 3 33 2 69 2 105H25l-1-265h48c2 10 0 23 3 31 11-24 29-35 60-35zM114-30c33 0 39-31 40-66 0-38-9-64-40-64-56 0-55 130 0 130" id="t"/><path fill="#494949" d="M135-194c87-1 58 113 63 194h-50c-7-57 23-157-34-157-59 0-34 97-39 157H25l-1-190h47c2 12-1 28 3 38 12-26 28-41 61-42" id="u"/><g id="d"><use transform="matrix(0.05,0,0,0.05,0,0)" xlink:href="#q"/><use transform="matrix(0.05,0,0,0.05,12,0)" xlink:href="#r"/><use transform="matrix(0.05,0,0,0.05,22,0)" xlink:href="#s"/><use transform="matrix(0.05,0,0,0.05,27,0)" xlink:href="#l"/><use transform="matrix(0.05,0,0,0.05,37,0)" xlink:href="#h"/><use transform="matrix(0.05,0,0,0.05,47,0)" xlink:href="#t"/><use transform="matrix(0.05,0,0,0.05,57.95,0)" xlink:href="#l"/><use transform="matrix(0.05,0,0,0.05,67.95,0)" xlink:href="#m"/><use transform="matrix(0.05,0,0,0.05,74.95,0)" xlink:href="#h"/><use transform="matrix(0.05,0,0,0.05,84.95,0)" xlink:href="#j"/><use transform="matrix(0.05,0,0,0.05,95.9,0)" xlink:href="#u"/><use transform="matrix(0.05,0,0,0.05,106.85000000000001,0)" xlink:href="#h"/></g><g id="e"><use transform="matrix(0.05,0,0,0.05,0,0)" xlink:href="#q"/><use transform="matrix(0.05,0,0,0.05,12,0)" xlink:href="#r"/><use transform="matrix(0.05,0,0,0.05,22,0)" xlink:href="#s"/><use transform="matrix(0.05,0,0,0.05,27,0)" xlink:href="#l"/><use transform="matrix(0.05,0,0,0.05,37,0)" xlink:href="#h"/></g></defs></g></svg>