<svg xmlns="http://www.w3.org/2000/svg" xmlns:xlink="http://www.w3.org/1999/xlink" xmlns:lucid="lucid" width="896" height="208"><g transform="translate(0 0)" lucid:page-tab-id="0_0"><path d="M0 0h896v208H0z" fill="#fff"/><path d="M16 16h200v68H16z" fill="#fff"/><path d="M16 16h200v68H16zM16 56h200" stroke="#494949" stroke-width="2" fill="none"/><use xlink:href="#a" transform="matrix(1,0,0,1,26,16) translate(57.574999999999996 23.6)"/><use xlink:href="#b" transform="matrix(1,0,0,1,26,16) translate(112.42500000000001 23.6)"/><path d="M680 16h200v68H680z" fill="#fff"/><path d="M680 16h200v68H680zM680 56h200" stroke="#494949" stroke-width="2" fill="none"/><use xlink:href="#a" transform="matrix(1,0,0,1,690,16) translate(57.574999999999996 23.6)"/><use xlink:href="#c" transform="matrix(1,0,0,1,690,16) translate(112.42500000000001 23.6)"/><path d="M16 126.67h200v68H16z" fill="#fff"/><path d="M16 126.67h200v68H16zM16 166.67h200" stroke="#494949" stroke-width="2" fill="none"/><use xlink:href="#a" transform="matrix(1,0,0,1,26,126.66666666666666) translate(57.574999999999996 23.6)"/><use xlink:href="#b" transform="matrix(1,0,0,1,26,126.66666666666666) translate(112.42500000000001 23.6)"/><path d="M350 130.67h200v68H350z" fill="#fff"/><path d="M350 130.67h200v68H350zM350 170.67h200" stroke="#494949" stroke-width="2" fill="none"/><use xlink:href="#d" transform="matrix(1,0,0,1,359.99999999999994,130.66666666666666) translate(12.649999999999991 23.6)"/><use xlink:href="#e" transform="matrix(1,0,0,1,359.99999999999994,130.66666666666666) translate(117.5 23.6)"/><path d="M680 126.67h200v68H680z" fill="#fff"/><path d="M680 126.67h200v68H680zM680 166.67h200" stroke="#494949" stroke-width="2" fill="none"/><use xlink:href="#a" transform="matrix(1,0,0,1,690,126.66666666666666) translate(57.574999999999996 23.6)"/><use xlink:href="#c" transform="matrix(1,0,0,1,690,126.66666666666666) translate(112.42500000000001 23.6)"/><path d="M217 54h462" stroke="#494949" stroke-width="2" fill="none"/><path d="M239.24 54l-21.8 10.9-.9-1.8 18.22-9.1-18.2-9.1.9-1.8z" fill="#494949"/><path d="M257 54l-.5 3.16-1.43 2.75-2.16 2.17-2.74 1.42-3.16.5-3.16-.5-2.75-1.43-2.17-2.16-1.42-2.74L237 54l.5-3.16 1.43-2.75 2.16-2.17 2.74-1.42L247 44l3.16.5 2.75 1.43 2.17 2.16 1.42 2.74.5 3.16z" fill="#fff"/><path d="M250.48 43.55l3.02 1.56 2.4 2.4 1.55 3.02.54 3.32-1 .16 1 .16-.55 3.32-1.56 3.02-2.4 2.4-3.02 1.55L247 65l-3.48-.55-3.02-1.56-2.4-2.4-1.55-3.02L236 54l.55-3.48 1.56-3.02 2.4-2.4 3.02-1.55L247 43zm-6.32 1.92l-2.47 1.28-1.95 1.94-1.28 2.46L238 54l.47 2.84 1.28 2.47 1.94 1.95 2.46 1.28L247 63l2.84-.47 2.47-1.28 1.95-1.94 1.28-2.46L256 54l-.47-2.84-1.28-2.47-1.94-1.95-2.46-1.28L247 45zM679.45 44.9l-18.2 9.1 18.2 9.1-.9 1.8-21.8-10.9 21.8-10.9z" fill="#494949"/><path d="M659 54l-.5 3.16-1.43 2.75-2.16 2.17-2.74 1.42-3.16.5-3.16-.5-2.75-1.43-2.17-2.16-1.42-2.74L639 54l.5-3.16 1.43-2.75 2.16-2.17 2.74-1.42L649 44l3.16.5 2.75 1.43 2.17 2.16 1.42 2.74.5 3.16z" fill="#fff"/><path d="M652.48 43.55l3.02 1.56 2.4 2.4 1.55 3.02.54 3.32-1 .16 1 .16-.55 3.32-1.56 3.02-2.4 2.4-3.02 1.55L649 65l-3.48-.55-3.02-1.56-2.4-2.4-1.55-3.02L638 54l.55-3.48 1.56-3.02 2.4-2.4 3.02-1.55L649 43zm-6.32 1.92l-2.47 1.28-1.95 1.94-1.28 2.46L640 54l.47 2.84 1.28 2.47 1.94 1.95 2.46 1.28L649 63l2.84-.47 2.47-1.28 1.95-1.94 1.28-2.46L658 54l-.47-2.84-1.28-2.47-1.94-1.95-2.46-1.28L649 45z" fill="#494949"/><path d="M217 162h132" stroke="#494949" stroke-width="2" fill="none"/><path fill="#fff"/><path d="M228 172h-2v-20h2z" fill="#494949"/><path fill="#fff"/><path d="M238 172h-2v-20h2zM349.45 152.9l-18.2 9.1 18.2 9.1-.9 1.8-21.8-10.9 21.8-10.9z" fill="#494949"/><path d="M329 162l-.5 3.16-1.43 2.75-2.16 2.17-2.74 1.42-3.16.5-3.16-.5-2.75-1.43-2.17-2.16-1.42-2.74-.5-3.16.5-3.16 1.43-2.75 2.16-2.17 2.74-1.42 3.16-.5 3.16.5 2.75 1.43 2.17 2.16 1.42 2.74.5 3.16z" fill="#fff"/><path d="M322.48 151.55l3.02 1.56 2.4 2.4 1.55 3.02.54 3.32-1 .16 1 .16-.55 3.32-1.56 3.02-2.4 2.4-3.02 1.55-3.48.56-3.48-.55-3.02-1.56-2.4-2.4-1.55-3.02L308 162l.55-3.48 1.56-3.02 2.4-2.4 3.02-1.55L319 151zm-6.32 1.92l-2.47 1.28-1.95 1.94-1.28 2.46L310 162l.47 2.84 1.28 2.47 1.94 1.95 2.46 1.28 2.84.46 2.84-.47 2.47-1.28 1.95-1.94 1.28-2.46.46-2.84-.47-2.84-1.28-2.47-1.94-1.95-2.46-1.28L319 153z" fill="#494949"/><path d="M551 164.67h128" stroke="#494949" stroke-width="2" fill="none"/><path d="M573.24 164.67l-21.8 10.9-.9-1.8 18.22-9.1-18.2-9.1.9-1.8z" fill="#494949"/><path d="M591 164.67l-.5 3.16-1.43 2.74-2.16 2.17-2.74 1.42-3.16.5-3.16-.5-2.75-1.42-2.17-2.17-1.42-2.74-.5-3.16.5-3.16 1.43-2.74 2.16-2.16 2.74-1.42 3.16-.5 3.16.5 2.75 1.42 2.17 2.16 1.42 2.75.5 3.17z" fill="#fff"/><path d="M584.48 154.2l3.02 1.58 2.4 2.38 1.55 3.03.54 3.3-1 .17 1 .16-.55 3.3-1.56 3.04-2.4 2.38-3.02 1.57-3.48.56-3.48-.56-3.02-1.57-2.4-2.38-1.55-3.03-.56-3.47.55-3.48 1.56-3.04 2.4-2.38 3.02-1.57 3.48-.55zm-6.32 1.94l-2.47 1.27-1.95 1.96-1.28 2.46-.46 2.85.47 2.84 1.28 2.48 1.94 1.94 2.46 1.28 2.84.45 2.84-.45 2.47-1.28 1.95-1.94 1.28-2.47.46-2.83-.47-2.85-1.28-2.46-1.94-1.95-2.46-1.26-2.84-.46z" fill="#494949"/><path fill="#fff"/><path d="M670 174.67h-2v-20h2z" fill="#494949"/><path fill="#fff"/><path d="M660 174.67h-2v-20h2z" fill="#494949"/><defs><path fill="#494949" d="M24 0v-248h195v40H76v63h132v40H76v65h150V0H24" id="f"/><path fill="#494949" d="M135-194c87-1 58 113 63 194h-50c-7-57 23-157-34-157-59 0-34 97-39 157H25l-1-190h47c2 12-1 28 3 38 12-26 28-41 61-42" id="g"/><path fill="#494949" d="M115-3C79 11 28 4 28-45v-112H4v-33h27l15-45h31v45h36v33H77v99c-1 23 16 31 38 25v30" id="h"/><path fill="#494949" d="M25-224v-37h50v37H25zM25 0v-190h50V0H25" id="i"/><path fill="#494949" d="M123 10C108 53 80 86 19 72V37c35 8 53-11 59-39L3-190h52l48 148c12-52 28-100 44-148h51" id="j"/><g id="a"><use transform="matrix(0.05,0,0,0.05,0,0)" xlink:href="#f"/><use transform="matrix(0.05,0,0,0.05,12,0)" xlink:href="#g"/><use transform="matrix(0.05,0,0,0.05,22.950000000000003,0)" xlink:href="#h"/><use transform="matrix(0.05,0,0,0.05,28.900000000000002,0)" xlink:href="#i"/><use transform="matrix(0.05,0,0,0.05,33.900000000000006,0)" xlink:href="#h"/><use transform="matrix(0.05,0,0,0.05,39.85000000000001,0)" xlink:href="#j"/></g><path fill="#494949" d="M23 0v-37h61v-169l-59 37v-38l62-41h46v211h57V0H23" id="k"/><use transform="matrix(0.05,0,0,0.05,0,0)" xlink:href="#k" id="b"/><path fill="#494949" d="M182-182c0 78-84 86-111 141h115V0H12c-6-101 99-100 120-180 1-22-12-31-33-32-23 0-32 14-35 34l-49-3c5-45 32-70 84-70 51 0 83 22 83 69" id="l"/><use transform="matrix(0.05,0,0,0.05,0,0)" xlink:href="#l" id="c"/><path fill="#494949" d="M199 0l-22-63H83L61 0H9l90-248h61L250 0h-51zm-33-102l-36-108c-10 38-24 72-36 108h72" id="m"/><path fill="#494949" d="M137-138c1-29-70-34-71-4 15 46 118 7 119 86 1 83-164 76-172 9l43-7c4 19 20 25 44 25 33 8 57-30 24-41C81-84 22-81 20-136c-2-80 154-74 161-7" id="n"/><path fill="#494949" d="M110-194c64 0 96 36 96 99 0 64-35 99-97 99-61 0-95-36-95-99 0-62 34-99 96-99zm-1 164c35 0 45-28 45-65 0-40-10-65-43-65-34 0-45 26-45 65 0 36 10 65 43 65" id="o"/><path fill="#494949" d="M190-63c-7 42-38 67-86 67-59 0-84-38-90-98-12-110 154-137 174-36l-49 2c-2-19-15-32-35-32-30 0-35 28-38 64-6 74 65 87 74 30" id="p"/><path fill="#494949" d="M133-34C117-15 103 5 69 4 32 3 11-16 11-54c-1-60 55-63 116-61 1-26-3-47-28-47-18 1-26 9-28 27l-52-2c7-38 36-58 82-57s74 22 75 68l1 82c-1 14 12 18 25 15v27c-30 8-71 5-69-32zm-48 3c29 0 43-24 42-57-32 0-66-3-65 30 0 17 8 27 23 27" id="q"/><path fill="#494949" d="M128 0H69L1-190h53L99-40l48-150h52" id="r"/><path fill="#494949" d="M185-48c-13 30-37 53-82 52C43 2 14-33 14-96s30-98 90-98c62 0 83 45 84 108H66c0 31 8 55 39 56 18 0 30-7 34-22zm-45-69c5-46-57-63-70-21-2 6-4 13-4 21h74" id="s"/><g id="d"><use transform="matrix(0.05,0,0,0.05,0,0)" xlink:href="#m"/><use transform="matrix(0.05,0,0,0.05,12.950000000000001,0)" xlink:href="#n"/><use transform="matrix(0.05,0,0,0.05,22.950000000000003,0)" xlink:href="#n"/><use transform="matrix(0.05,0,0,0.05,32.95,0)" xlink:href="#o"/><use transform="matrix(0.05,0,0,0.05,43.900000000000006,0)" xlink:href="#p"/><use transform="matrix(0.05,0,0,0.05,53.900000000000006,0)" xlink:href="#i"/><use transform="matrix(0.05,0,0,0.05,58.900000000000006,0)" xlink:href="#q"/><use transform="matrix(0.05,0,0,0.05,68.9,0)" xlink:href="#h"/><use transform="matrix(0.05,0,0,0.05,74.85000000000001,0)" xlink:href="#i"/><use transform="matrix(0.05,0,0,0.05,79.85000000000001,0)" xlink:href="#r"/><use transform="matrix(0.05,0,0,0.05,89.85000000000001,0)" xlink:href="#s"/></g><g id="e"><use transform="matrix(0.05,0,0,0.05,0,0)" xlink:href="#f"/><use transform="matrix(0.05,0,0,0.05,12,0)" xlink:href="#g"/><use transform="matrix(0.05,0,0,0.05,22.950000000000003,0)" xlink:href="#h"/><use transform="matrix(0.05,0,0,0.05,28.900000000000002,0)" xlink:href="#i"/><use transform="matrix(0.05,0,0,0.05,33.900000000000006,0)" xlink:href="#h"/><use transform="matrix(0.05,0,0,0.05,39.85000000000001,0)" xlink:href="#j"/></g></defs></g></svg>