<svg xmlns="http://www.w3.org/2000/svg" xmlns:xlink="http://www.w3.org/1999/xlink" xmlns:lucid="lucid" width="1251.57" height="962.75"><g transform="translate(0 0)" lucid:page-tab-id="0_0"><path d="M0 0h1251.57v962.75H0z" fill="#fff"/><path d="M798.66 107.25h43.95V107h43.97" stroke="#494949" stroke-width="2" fill="none"/><path fill="#fff"/><path d="M819.66 117.25h-2v-20h2zM886.57 97v1.12L868.8 107l17.77 8.88V117l-.45.9-21.8-10.9 21.8-10.9z" fill="#494949"/><path d="M866.57 107l-.5 3.16-1.43 2.75-2.16 2.17-2.75 1.42-3.16.5-3.16-.5-2.74-1.43-2.16-2.16-1.42-2.74-.5-3.16.5-3.16 1.42-2.75 2.16-2.17 2.75-1.42 3.17-.5 3.16.5 2.75 1.43 2.16 2.16 1.42 2.74.5 3.16z" fill="#fff"/><path d="M860.05 96.55l3.02 1.56 2.4 2.4 1.55 3.02.54 3.32-1 .16 1 .16-.54 3.32-1.56 3.02-2.4 2.4-3 1.55-3.5.56-3.47-.55-3.03-1.56-2.4-2.4-1.55-3.02-.56-3.48.56-3.48 1.56-3.02 2.4-2.4 3-1.55 3.5-.56zm-6.32 1.92l-2.47 1.28-1.94 1.94-1.28 2.46-.46 2.84.46 2.84 1.28 2.47 1.94 1.95 2.47 1.28 2.84.46 2.84-.47 2.48-1.28 1.94-1.94 1.28-2.46.46-2.84-.46-2.84-1.28-2.47-1.94-1.95-2.47-1.28-2.83-.46z" fill="#494949"/><path d="M192.24 283.25v171.78h307V626.8" stroke="#494949" stroke-width="2" fill="none"/><path fill="#fff"/><path d="M202.24 294.25h-20v-2h20z" fill="#494949"/><path fill="#fff"/><path d="M202.24 304.25h-20v-2h20zM510.15 626.37l-.9.44h-1.12l-8.88-17.75-8.88 17.76h-1.12l-.9-.43 10.9-21.8z" fill="#494949"/><path d="M509.25 596.8l-.5 3.18-1.43 2.74-2.16 2.16-2.75 1.42-3.15.5-3.16-.5-2.75-1.42-2.17-2.16-1.42-2.74-.5-3.17.5-3.15 1.42-2.74 2.17-2.16 2.74-1.42 3.15-.5 3.16.5 2.76 1.42 2.16 2.17 1.42 2.75.5 3.16z" fill="#fff"/><path d="M502.73 586.36l3.02 1.57 2.4 2.38 1.55 3.04.54 3.32-1 .15 1 .17-.54 3.32-1.56 3.02-2.4 2.38-3 1.57-3.5.56-3.47-.56-3.02-1.57-2.4-2.38-1.55-3.03-.56-3.5.56-3.46 1.56-3.03 2.4-2.37 3-1.57 3.5-.56zm-6.32 1.93l-2.46 1.26-1.94 1.95-1.28 2.47-.46 2.84.46 2.86 1.28 2.46 1.94 1.95 2.47 1.27 2.85.46 2.85-.46 2.46-1.27 1.95-1.95 1.28-2.46.46-2.85-.46-2.83-1.27-2.46-1.94-1.94-2.46-1.27-2.85-.47z" fill="#494949"/><path d="M1058.84 515v55.9H744.82v55.9" stroke="#494949" stroke-width="2" fill="none"/><path fill="#fff"/><path d="M1068.84 526h-20v-2h20z" fill="#494949"/><path fill="#fff"/><path d="M1068.84 536h-20v-2h20zM755.7 626.37l-.88.44h-1.12l-8.88-17.75-8.9 17.76h-1.1l-.9-.43 10.9-21.8z" fill="#494949"/><path d="M754.82 596.8l-.5 3.18-1.43 2.74-2.18 2.16-2.74 1.42-3.16.5-3.16-.5-2.75-1.42-2.15-2.16-1.42-2.74-.5-3.17.5-3.15 1.42-2.74 2.16-2.16 2.76-1.42 3.16-.5 3.16.5 2.74 1.42 2.17 2.17 1.4 2.75.52 3.16z" fill="#fff"/><path d="M748.3 586.36l3.02 1.57 2.38 2.38 1.57 3.04.53 3.32-.98.15.98.17-.53 3.32-1.57 3.02-2.38 2.38-3.03 1.57-3.48.56-3.48-.56-3.03-1.57-2.37-2.38-1.57-3.03-.56-3.5.56-3.46 1.57-3.03 2.38-2.37 3.04-1.57 3.48-.56zm-6.33 1.93l-2.46 1.26-1.94 1.95-1.27 2.47-.47 2.84.46 2.86 1.26 2.46 1.95 1.95 2.47 1.27 2.85.46 2.84-.46 2.46-1.27 1.95-1.95 1.27-2.46.46-2.85-.46-2.83-1.27-2.46-1.95-1.94-2.46-1.27-2.84-.47z" fill="#494949"/><path d="M365.25 747h43.88v-.2H453" stroke="#494949" stroke-width="2" fill="none"/><path fill="#fff"/><path d="M376.25 757h-2v-20h2z" fill="#494949"/><path fill="#fff"/><path d="M386.25 757h-2v-20h2zM453 736.8v1.13l-17.76 8.88 17.76 8.9v1.1l-.45.9-21.8-10.9 21.8-10.88z" fill="#494949"/><path d="M433 746.8l-.5 3.18-1.43 2.74-2.16 2.16-2.74 1.42-3.16.5-3.16-.5-2.75-1.42-2.17-2.16-1.42-2.74-.5-3.17.5-3.15 1.43-2.74 2.16-2.16 2.74-1.42 3.16-.5 3.16.5 2.75 1.42 2.17 2.17 1.42 2.75.5 3.16z" fill="#fff"/><path d="M426.48 736.36l3.02 1.57 2.4 2.38 1.55 3.04.54 3.32-1 .15 1 .17-.55 3.32-1.56 3.02-2.4 2.38-3.02 1.57-3.48.56-3.48-.56-3.02-1.57-2.4-2.38-1.55-3.03-.56-3.5.55-3.46 1.56-3.03 2.4-2.37 3.02-1.57 3.48-.56zm-6.32 1.93l-2.47 1.26-1.95 1.95-1.28 2.47-.46 2.84.47 2.86 1.28 2.46 1.94 1.95 2.46 1.27 2.84.46 2.84-.46 2.47-1.27 1.95-1.95 1.28-2.46.46-2.85-.47-2.83-1.28-2.46-1.94-1.94-2.46-1.27-2.84-.47z" fill="#494949"/><path d="M625.8 187.25V283" stroke="#494949" stroke-width="2" fill="none"/><path fill="#fff"/><path d="M635.8 198.25h-20v-2h20z" fill="#494949"/><path fill="#fff"/><path d="M635.8 208.25h-20v-2h20zM636.68 282.55l-.9.45h-1.1l-8.9-17.76L616.9 283h-1.1l-.9-.45 10.9-21.8z" fill="#494949"/><path d="M635.8 253l-.52 3.16-1.42 2.75-2.17 2.17-2.75 1.42-3.16.5-3.18-.5-2.74-1.43-2.17-2.16-1.4-2.74-.5-3.16.5-3.16 1.4-2.75 2.18-2.17 2.74-1.42 3.17-.5 3.15.5 2.74 1.43 2.16 2.16 1.42 2.74.5 3.16z" fill="#fff"/><path d="M629.26 242.55l3.03 1.56 2.37 2.4 1.57 3.02.53 3.32-.98.16.97.16-.53 3.32-1.57 3.02-2.38 2.4-3.04 1.55-3.47.56-3.5-.55-3.02-1.56-2.38-2.4-1.57-3.02-.56-3.48.56-3.48 1.57-3.02 2.38-2.4 3.03-1.55 3.5-.56zm-6.32 1.92l-2.46 1.28-1.95 1.94-1.27 2.46-.46 2.84.46 2.84 1.27 2.47 1.95 1.95 2.46 1.28 2.85.46 2.83-.47 2.46-1.28 1.94-1.94 1.27-2.46.47-2.84-.46-2.84-1.26-2.47-1.95-1.95-2.47-1.28-2.84-.46z" fill="#494949"/><path d="M626 626.8V522.9h-.2V419" stroke="#494949" stroke-width="2" fill="none"/><path fill="#fff"/><path d="M636 617.8h-20v-2h20z" fill="#494949"/><path fill="#fff"/><path d="M636 607.8h-20v-2h20zM636.68 419.45l-10.9 21.8-10.9-21.8.9-.45h1.12l8.9 17.76 8.87-17.76h1.12z" fill="#494949"/><path d="M635.8 449l-.52 3.16-1.42 2.75-2.17 2.17-2.75 1.42-3.16.5-3.18-.5-2.74-1.43-2.17-2.16-1.4-2.74-.5-3.16.5-3.16 1.4-2.75 2.18-2.17 2.74-1.42 3.17-.5 3.15.5 2.74 1.43 2.16 2.16 1.42 2.74.5 3.16z" fill="#fff"/><path d="M629.26 438.55l3.03 1.56 2.37 2.4 1.57 3.02.53 3.32-.98.16.97.16-.53 3.32-1.57 3.02-2.38 2.4-3.04 1.55-3.47.56-3.5-.55-3.02-1.56-2.38-2.4-1.57-3.02-.56-3.48.56-3.48 1.57-3.02 2.38-2.4 3.03-1.55 3.5-.56zm-6.32 1.92l-2.46 1.28-1.95 1.94-1.27 2.46-.46 2.84.46 2.84 1.27 2.47 1.95 1.95 2.46 1.28 2.85.46 2.83-.47 2.46-1.28 1.94-1.94 1.27-2.46.47-2.84-.46-2.84-1.26-2.47-1.95-1.95-2.47-1.28-2.84-.46z" fill="#494949"/><path d="M1059.44 155v64h-.6v64" stroke="#494949" stroke-width="2" fill="none"/><path d="M1070.34 155.45l-10.9 21.8-10.9-21.8.9-.45h1.12l8.88 17.76 8.9-17.76h1.1z" fill="#494949"/><path d="M1069.44 185l-.5 3.16-1.43 2.75-2.15 2.17-2.75 1.42-3.16.5-3.16-.5-2.74-1.43-2.17-2.16-1.42-2.74-.5-3.16.5-3.16 1.42-2.75 2.17-2.17 2.74-1.42 3.16-.5 3.16.5 2.75 1.43 2.16 2.16 1.43 2.74.5 3.16z" fill="#fff"/><path d="M1062.92 174.55l3.03 1.56 2.38 2.4 1.57 3.02.53 3.32-1 .16 1 .16-.53 3.32-1.57 3.02-2.38 2.4-3.03 1.55-3.48.56-3.47-.55-3.03-1.56-2.38-2.4-1.57-3.02-.57-3.48.56-3.48 1.56-3.02 2.38-2.4 3.03-1.55 3.47-.56zm-6.32 1.92l-2.47 1.28-1.94 1.94-1.3 2.46-.44 2.84.45 2.84 1.3 2.47 1.93 1.95 2.47 1.28 2.84.46 2.85-.47 2.45-1.28 1.95-1.94 1.27-2.46.46-2.84-.46-2.84-1.27-2.47-1.95-1.95-2.46-1.28-2.86-.46z" fill="#494949"/><path fill="#fff"/><path d="M1068.84 274h-20v-2h20z" fill="#494949"/><path fill="#fff"/><path d="M1068.84 264h-20v-2h20z" fill="#494949"/><path d="M19.25 19.25h345.98v264H19.25z" fill="#fff"/><path d="M19.25 19.25h345.98v264H19.25zM19.25 59.25h345.98M79.25 59.25v224M236.84 59.25v224" stroke="#494949" stroke-width="2" fill="none"/><use xlink:href="#a" transform="matrix(1,0,0,1,29.254934098639467,19.254934098639467) translate(116.1 23.6)"/><use xlink:href="#b" transform="matrix(1,0,0,1,24.254934098639467,61.75493409863947) translate(13 17.1)"/><use xlink:href="#c" transform="matrix(1,0,0,1,84.25493409863947,61.75493409863947) translate(0 17.1)"/><use xlink:href="#d" transform="matrix(1,0,0,1,241.83568941326524,61.75493409863947) translate(0 17.1)"/><use xlink:href="#e" transform="matrix(1,0,0,1,84.25493409863947,93.75493409863947) translate(0 17.1)"/><use xlink:href="#f" transform="matrix(1,0,0,1,241.83568941326524,93.75493409863947) translate(0 17.1)"/><use xlink:href="#g" transform="matrix(1,0,0,1,84.25493409863947,125.75493409863947) translate(0 17.1)"/><use xlink:href="#h" transform="matrix(1,0,0,1,241.83568941326524,125.75493409863947) translate(0 17.1)"/><use xlink:href="#i" transform="matrix(1,0,0,1,84.25493409863947,157.75493409863947) translate(0 17.1)"/><use xlink:href="#j" transform="matrix(1,0,0,1,241.83568941326524,157.75493409863947) translate(0 17.1)"/><use xlink:href="#k" transform="matrix(1,0,0,1,84.25493409863947,189.75493409863947) translate(0 17.1)"/><use xlink:href="#j" transform="matrix(1,0,0,1,241.83568941326524,189.75493409863947) translate(0 17.1)"/><use xlink:href="#l" transform="matrix(1,0,0,1,84.25493409863947,221.75493409863947) translate(0 17.1)"/><use xlink:href="#m" transform="matrix(1,0,0,1,241.83568941326524,221.75493409863947) translate(0 17.1)"/><use xlink:href="#n" transform="matrix(1,0,0,1,84.25493409863947,253.75493409863947) translate(0 17.1)"/><use xlink:href="#o" transform="matrix(1,0,0,1,241.83568941326524,253.75493409863947) translate(0 17.1)"/><path d="M452.9 19.25h345.76v168H452.9z" fill="#fff"/><path d="M452.9 19.25h345.76v168H452.9zM452.9 59.25h345.76M512.9 59.25v128M665.6 59.25v128" stroke="#494949" stroke-width="2" fill="none"/><use xlink:href="#p" transform="matrix(1,0,0,1,462.912825255102,19.254934098639453) translate(124.1 23.6)"/><use xlink:href="#b" transform="matrix(1,0,0,1,457.912825255102,61.75493409863945) translate(13 17.1)"/><use xlink:href="#q" transform="matrix(1,0,0,1,517.912825255102,61.75493409863945) translate(0 17.1)"/><use xlink:href="#d" transform="matrix(1,0,0,1,670.586871843442,61.75493409863945) translate(0 17.1)"/><use xlink:href="#r" transform="matrix(1,0,0,1,517.912825255102,93.75493409863945) translate(0 17.1)"/><use xlink:href="#s" transform="matrix(1,0,0,1,670.586871843442,93.75493409863945) translate(0 17.1)"/><use xlink:href="#t" transform="matrix(1,0,0,1,517.912825255102,125.75493409863945) translate(0 17.1)"/><use xlink:href="#u" transform="matrix(1,0,0,1,670.586871843442,125.75493409863945) translate(0 17.1)"/><use xlink:href="#v" transform="matrix(1,0,0,1,517.912825255102,157.75493409863947) translate(0 17.1)"/><use xlink:href="#j" transform="matrix(1,0,0,1,670.586871843442,157.75493409863947) translate(0 17.1)"/><path d="M886.57 19h345.75v136H886.57z" fill="#fff"/><path d="M886.57 19h345.75v136H886.57zM886.57 59h345.75M946.57 59v96M1133.28 59v96" stroke="#494949" stroke-width="2" fill="none"/><use xlink:href="#w" transform="matrix(1,0,0,1,896.5707164115644,19) translate(138.55 23.6)"/><use xlink:href="#x" transform="matrix(1,0,0,1,891.5707164115644,61.5) translate(13.524999999999999 17.1)"/><use xlink:href="#q" transform="matrix(1,0,0,1,951.5707164115644,61.5) translate(0 17.1)"/><use xlink:href="#d" transform="matrix(1,0,0,1,1138.2785290178062,61.5) translate(0 17.1)"/><use xlink:href="#x" transform="matrix(1,0,0,1,891.5707164115644,93.5) translate(13.524999999999999 17.1)"/><use xlink:href="#y" transform="matrix(1,0,0,1,951.5707164115644,93.5) translate(0 17.1)"/><use xlink:href="#d" transform="matrix(1,0,0,1,1138.2785290178062,93.5) translate(0 17.1)"/><use xlink:href="#z" transform="matrix(1,0,0,1,951.5707164115644,125.5) translate(0 17.1)"/><use xlink:href="#A" transform="matrix(1,0,0,1,1138.2785290178062,125.5) translate(0 17.1)"/><path d="M452.8 283h346v136h-346z" fill="#fff"/><path d="M452.8 283h346v136h-346zM452.8 323h346M512.8 323v96M700.7 323v96" stroke="#494949" stroke-width="2" fill="none"/><use xlink:href="#B" transform="matrix(1,0,0,1,462.78535820578225,283) translate(111.05 23.6)"/><use xlink:href="#x" transform="matrix(1,0,0,1,457.78535820578225,325.5) translate(13.524999999999999 17.1)"/><use xlink:href="#q" transform="matrix(1,0,0,1,517.7853582057822,325.5) translate(0 17.1)"/><use xlink:href="#t" transform="matrix(1,0,0,1,705.7108516156235,325.5) translate(0 17.1)"/><use xlink:href="#x" transform="matrix(1,0,0,1,457.78535820578225,357.5) translate(13.524999999999999 17.1)"/><use xlink:href="#C" transform="matrix(1,0,0,1,517.7853582057822,357.5) translate(0 17.1)"/><use xlink:href="#t" transform="matrix(1,0,0,1,705.7108516156235,357.5) translate(0 17.1)"/><use xlink:href="#z" transform="matrix(1,0,0,1,517.7853582057822,389.5) translate(0 17.1)"/><use xlink:href="#A" transform="matrix(1,0,0,1,705.7108516156235,389.5) translate(0 17.1)"/><path d="M886.34 283h345v232h-345z" fill="#fff"/><path d="M886.34 283h345v232h-345zM886.34 323h345M946.34 323v192M1100.53 323v192" stroke="#494949" stroke-width="2" fill="none"/><use xlink:href="#D" transform="matrix(1,0,0,1,896.3364372342684,283) translate(134.55 23.6)"/><use xlink:href="#b" transform="matrix(1,0,0,1,891.3364372342684,325.5) translate(13 17.1)"/><use xlink:href="#y" transform="matrix(1,0,0,1,951.3364372342684,325.5) translate(0 17.1)"/><use xlink:href="#d" transform="matrix(1,0,0,1,1105.5285426763971,325.5) translate(0 17.1)"/><use xlink:href="#E" transform="matrix(1,0,0,1,951.3364372342684,357.5) translate(0 17.1)"/><use xlink:href="#h" transform="matrix(1,0,0,1,1105.5285426763971,357.5) translate(0 17.1)"/><use xlink:href="#F" transform="matrix(1,0,0,1,951.3364372342684,389.5) translate(0 17.1)"/><use xlink:href="#h" transform="matrix(1,0,0,1,1105.5285426763971,389.5) translate(0 17.1)"/><use xlink:href="#k" transform="matrix(1,0,0,1,951.3364372342684,421.5) translate(0 17.1)"/><use xlink:href="#j" transform="matrix(1,0,0,1,1105.5285426763971,421.5) translate(0 17.1)"/><use xlink:href="#l" transform="matrix(1,0,0,1,951.3364372342684,453.5) translate(0 17.1)"/><use xlink:href="#m" transform="matrix(1,0,0,1,1105.5285426763971,453.5) translate(0 17.1)"/><use xlink:href="#n" transform="matrix(1,0,0,1,951.3364372342684,485.5) translate(0 17.1)"/><use xlink:href="#o" transform="matrix(1,0,0,1,1105.5285426763971,485.5) translate(0 17.1)"/><path d="M453 626.8h346v232H453z" fill="#fff"/><path d="M453 626.8h346v232H453zM453 666.8h346M513 666.8v192M700 666.8v192" stroke="#494949" stroke-width="2" fill="none"/><use xlink:href="#G" transform="matrix(1,0,0,1,463,626.8142416454415) translate(139.5 23.6)"/><use xlink:href="#b" transform="matrix(1,0,0,1,458,669.3142416454415) translate(13 17.1)"/><use xlink:href="#C" transform="matrix(1,0,0,1,518,669.3142416454415) translate(0 17.1)"/><use xlink:href="#d" transform="matrix(1,0,0,1,705,669.3142416454415) translate(0 17.1)"/><use xlink:href="#H" transform="matrix(1,0,0,1,458,701.3142416454415) translate(13.524999999999999 17.1)"/><use xlink:href="#c" transform="matrix(1,0,0,1,518,701.3142416454415) translate(0 17.1)"/><use xlink:href="#d" transform="matrix(1,0,0,1,705,701.3142416454415) translate(0 17.1)"/><use xlink:href="#H" transform="matrix(1,0,0,1,458,733.3142416454415) translate(13.524999999999999 17.1)"/><use xlink:href="#I" transform="matrix(1,0,0,1,518,733.3142416454415) translate(0 17.1)"/><use xlink:href="#d" transform="matrix(1,0,0,1,705,733.3142416454415) translate(0 17.1)"/><use xlink:href="#H" transform="matrix(1,0,0,1,458,765.3142416454415) translate(13.524999999999999 17.1)"/><use xlink:href="#J" transform="matrix(1,0,0,1,518,765.3142416454415) translate(0 17.1)"/><use xlink:href="#d" transform="matrix(1,0,0,1,705,765.3142416454415) translate(0 17.1)"/><use xlink:href="#K" transform="matrix(1,0,0,1,518,797.3142416454415) translate(0 17.1)"/><use xlink:href="#L" transform="matrix(1,0,0,1,705,797.3142416454415) translate(0 17.1)"/><use xlink:href="#M" transform="matrix(1,0,0,1,518,829.3142416454415) translate(0 17.1)"/><use xlink:href="#N" transform="matrix(1,0,0,1,705,829.3142416454415) translate(0 17.1)"/><path d="M19.25 691h346v104h-346z" fill="#fff"/><path d="M19.25 691h346v104h-346zM19.25 731h346M79.25 731v64M236.2 731v64" stroke="#494949" stroke-width="2" fill="none"/><use xlink:href="#O" transform="matrix(1,0,0,1,29.254934098639453,691) translate(104.1 23.6)"/><use xlink:href="#b" transform="matrix(1,0,0,1,24.254934098639453,733.5) translate(13 17.1)"/><use xlink:href="#I" transform="matrix(1,0,0,1,84.25493409863945,733.5) translate(0 17.1)"/><use xlink:href="#d" transform="matrix(1,0,0,1,241.20154527730045,733.5) translate(0 17.1)"/><use xlink:href="#P" transform="matrix(1,0,0,1,84.25493409863945,765.5) translate(0 17.1)"/><use xlink:href="#h" transform="matrix(1,0,0,1,241.20154527730045,765.5) translate(0 17.1)"/><defs><path fill="#494949" d="M67-125c0 53 21 87 73 88 37 1 54-22 65-47l45 17C233-25 199 4 140 4 58 4 20-42 15-125 8-235 124-281 211-232c18 10 29 29 36 50l-46 12c-8-25-30-41-62-41-52 0-71 34-72 86" id="Q"/><path fill="#494949" d="M85 4C-2 5 27-109 22-190h50c7 57-23 150 33 157 60-5 35-97 40-157h50l1 190h-47c-2-12 1-28-3-38-12 25-28 42-61 42" id="R"/><path fill="#494949" d="M137-138c1-29-70-34-71-4 15 46 118 7 119 86 1 83-164 76-172 9l43-7c4 19 20 25 44 25 33 8 57-30 24-41C81-84 22-81 20-136c-2-80 154-74 161-7" id="S"/><path fill="#494949" d="M115-3C79 11 28 4 28-45v-112H4v-33h27l15-45h31v45h36v33H77v99c-1 23 16 31 38 25v30" id="T"/><path fill="#494949" d="M110-194c64 0 96 36 96 99 0 64-35 99-97 99-61 0-95-36-95-99 0-62 34-99 96-99zm-1 164c35 0 45-28 45-65 0-40-10-65-43-65-34 0-45 26-45 65 0 36 10 65 43 65" id="U"/><path fill="#494949" d="M220-157c-53 9-28 100-34 157h-49v-107c1-27-5-49-29-50C55-147 81-57 75 0H25l-1-190h47c2 12-1 28 3 38 10-53 101-56 108 0 13-22 24-43 59-42 82 1 51 116 57 194h-49v-107c-1-25-5-48-29-50" id="V"/><path fill="#494949" d="M185-48c-13 30-37 53-82 52C43 2 14-33 14-96s30-98 90-98c62 0 83 45 84 108H66c0 31 8 55 39 56 18 0 30-7 34-22zm-45-69c5-46-57-63-70-21-2 6-4 13-4 21h74" id="W"/><path fill="#494949" d="M135-150c-39-12-60 13-60 57V0H25l-1-190h47c2 13-1 29 3 40 6-28 27-53 61-41v41" id="X"/><g id="a"><use transform="matrix(0.05,0,0,0.05,0,0)" xlink:href="#Q"/><use transform="matrix(0.05,0,0,0.05,12.950000000000001,0)" xlink:href="#R"/><use transform="matrix(0.05,0,0,0.05,23.900000000000002,0)" xlink:href="#S"/><use transform="matrix(0.05,0,0,0.05,33.900000000000006,0)" xlink:href="#T"/><use transform="matrix(0.05,0,0,0.05,39.85000000000001,0)" xlink:href="#U"/><use transform="matrix(0.05,0,0,0.05,50.80000000000001,0)" xlink:href="#V"/><use transform="matrix(0.05,0,0,0.05,66.80000000000001,0)" xlink:href="#W"/><use transform="matrix(0.05,0,0,0.05,76.80000000000001,0)" xlink:href="#X"/><use transform="matrix(0.05,0,0,0.05,83.80000000000001,0)" xlink:href="#S"/></g><path fill="#494949" d="M30-248c87 1 191-15 191 75 0 78-77 80-158 76V0H30v-248zm33 125c57 0 124 11 124-50 0-59-68-47-124-48v98" id="Y"/><path fill="#494949" d="M194 0L95-120 63-95V0H30v-248h33v124l119-124h40L117-140 236 0h-42" id="Z"/><g id="b"><use transform="matrix(0.05,0,0,0.05,0,0)" xlink:href="#Y"/><use transform="matrix(0.05,0,0,0.05,12,0)" xlink:href="#Z"/></g><path fill="#494949" d="M212-179c-10-28-35-45-73-45-59 0-87 40-87 99 0 60 29 101 89 101 43 0 62-24 78-52l27 14C228-24 195 4 139 4 59 4 22-46 18-125c-6-104 99-153 187-111 19 9 31 26 39 46" id="aa"/><path fill="#494949" d="M84 4C-5 8 30-112 23-190h32v120c0 31 7 50 39 49 72-2 45-101 50-169h31l1 190h-30c-1-10 1-25-2-33-11 22-28 36-60 37" id="ab"/><path fill="#494949" d="M135-143c-3-34-86-38-87 0 15 53 115 12 119 90S17 21 10-45l28-5c4 36 97 45 98 0-10-56-113-15-118-90-4-57 82-63 122-42 12 7 21 19 24 35" id="ac"/><path fill="#494949" d="M59-47c-2 24 18 29 38 22v24C64 9 27 4 27-40v-127H5v-23h24l9-43h21v43h35v23H59v120" id="ad"/><path fill="#494949" d="M100-194c62-1 85 37 85 99 1 63-27 99-86 99S16-35 15-95c0-66 28-99 85-99zM99-20c44 1 53-31 53-75 0-43-8-75-51-75s-53 32-53 75 10 74 51 75" id="ae"/><path fill="#494949" d="M210-169c-67 3-38 105-44 169h-31v-121c0-29-5-50-35-48C34-165 62-65 56 0H25l-1-190h30c1 10-1 24 2 32 10-44 99-50 107 0 11-21 27-35 58-36 85-2 47 119 55 194h-31v-121c0-29-5-49-35-48" id="af"/><path fill="#494949" d="M100-194c63 0 86 42 84 106H49c0 40 14 67 53 68 26 1 43-12 49-29l28 8c-11 28-37 45-77 45C44 4 14-33 15-96c1-61 26-98 85-98zm52 81c6-60-76-77-97-28-3 7-6 17-6 28h103" id="ag"/><path fill="#494949" d="M114-163C36-179 61-72 57 0H25l-1-190h30c1 12-1 29 2 39 6-27 23-49 58-41v29" id="ah"/><path fill="#494949" d="M190 0L58-211 59 0H30v-248h39L202-35l-2-213h31V0h-41" id="ai"/><path fill="#494949" d="M115-194c53 0 69 39 70 98 0 66-23 100-70 100C84 3 66-7 56-30L54 0H23l1-261h32v101c10-23 28-34 59-34zm-8 174c40 0 45-34 45-75 0-40-5-75-45-74-42 0-51 32-51 76 0 43 10 73 51 73" id="aj"/><g id="c"><use transform="matrix(0.05,0,0,0.05,0,0)" xlink:href="#aa"/><use transform="matrix(0.05,0,0,0.05,12.950000000000001,0)" xlink:href="#ab"/><use transform="matrix(0.05,0,0,0.05,22.950000000000003,0)" xlink:href="#ac"/><use transform="matrix(0.05,0,0,0.05,31.950000000000003,0)" xlink:href="#ad"/><use transform="matrix(0.05,0,0,0.05,36.95,0)" xlink:href="#ae"/><use transform="matrix(0.05,0,0,0.05,46.95,0)" xlink:href="#af"/><use transform="matrix(0.05,0,0,0.05,61.900000000000006,0)" xlink:href="#ag"/><use transform="matrix(0.05,0,0,0.05,71.9,0)" xlink:href="#ah"/><use transform="matrix(0.05,0,0,0.05,77.85000000000001,0)" xlink:href="#ai"/><use transform="matrix(0.05,0,0,0.05,90.80000000000001,0)" xlink:href="#ab"/><use transform="matrix(0.05,0,0,0.05,100.80000000000001,0)" xlink:href="#af"/><use transform="matrix(0.05,0,0,0.05,115.75,0)" xlink:href="#aj"/><use transform="matrix(0.05,0,0,0.05,125.75,0)" xlink:href="#ag"/><use transform="matrix(0.05,0,0,0.05,135.75,0)" xlink:href="#ah"/></g><path fill="#494949" d="M33 0v-248h34V0H33" id="ak"/><path fill="#494949" d="M127-220V0H93v-220H8v-28h204v28h-85" id="al"/><g id="d"><use transform="matrix(0.05,0,0,0.05,0,0)" xlink:href="#ak"/><use transform="matrix(0.05,0,0,0.05,5,0)" xlink:href="#ai"/><use transform="matrix(0.05,0,0,0.05,17.950000000000003,0)" xlink:href="#al"/></g><path fill="#494949" d="M106-169C34-169 62-67 57 0H25v-261h32l-1 103c12-21 28-36 61-36 89 0 53 116 60 194h-32v-121c2-32-8-49-39-48" id="am"/><path fill="#494949" d="M117-194c89-4 53 116 60 194h-32v-121c0-31-8-49-39-48C34-167 62-67 57 0H25l-1-190h30c1 10-1 24 2 32 11-22 29-35 61-36" id="an"/><g id="e"><use transform="matrix(0.05,0,0,0.05,0,0)" xlink:href="#Y"/><use transform="matrix(0.05,0,0,0.05,12,0)" xlink:href="#am"/><use transform="matrix(0.05,0,0,0.05,22,0)" xlink:href="#ae"/><use transform="matrix(0.05,0,0,0.05,32,0)" xlink:href="#an"/><use transform="matrix(0.05,0,0,0.05,42,0)" xlink:href="#ag"/><use transform="matrix(0.05,0,0,0.05,52,0)" xlink:href="#ai"/><use transform="matrix(0.05,0,0,0.05,64.95,0)" xlink:href="#ab"/><use transform="matrix(0.05,0,0,0.05,74.95,0)" xlink:href="#af"/><use transform="matrix(0.05,0,0,0.05,89.9,0)" xlink:href="#aj"/><use transform="matrix(0.05,0,0,0.05,99.9,0)" xlink:href="#ag"/><use transform="matrix(0.05,0,0,0.05,109.9,0)" xlink:href="#ah"/></g><path fill="#494949" d="M137 0h-34L2-248h35l83 218 83-218h36" id="ao"/><path fill="#494949" d="M205 0l-28-72H64L36 0H1l101-248h38L239 0h-34zm-38-99l-47-123c-12 45-31 82-46 123h93" id="ap"/><path fill="#494949" d="M233-177c-1 41-23 64-60 70L243 0h-38l-65-103H63V0H30v-248c88 3 205-21 203 71zM63-129c60-2 137 13 137-47 0-61-80-42-137-45v92" id="aq"/><path fill="#494949" d="M197 0v-115H63V0H30v-248h33v105h134v-105h34V0h-34" id="ar"/><path fill="#494949" d="M87 75C49 33 22-17 22-94c0-76 28-126 65-167h31c-38 41-64 92-64 168S80 34 118 75H87" id="as"/><path fill="#494949" d="M27 0v-27h64v-190l-56 39v-29l58-41h29v221h61V0H27" id="at"/><path fill="#494949" d="M101-251c82-7 93 87 43 132L82-64C71-53 59-42 53-27h129V0H18c2-99 128-94 128-182 0-28-16-43-45-43s-46 15-49 41l-32-3c6-41 34-60 81-64" id="au"/><path fill="#494949" d="M33-261c38 41 65 92 65 168S71 34 33 75H2C39 34 66-17 66-93S39-220 2-261h31" id="av"/><g id="f"><use transform="matrix(0.05,0,0,0.05,0,0)" xlink:href="#ao"/><use transform="matrix(0.05,0,0,0.05,10.65,0)" xlink:href="#ap"/><use transform="matrix(0.05,0,0,0.05,22.65,0)" xlink:href="#aq"/><use transform="matrix(0.05,0,0,0.05,35.6,0)" xlink:href="#aa"/><use transform="matrix(0.05,0,0,0.05,48.550000000000004,0)" xlink:href="#ar"/><use transform="matrix(0.05,0,0,0.05,61.5,0)" xlink:href="#ap"/><use transform="matrix(0.05,0,0,0.05,73.5,0)" xlink:href="#aq"/><use transform="matrix(0.05,0,0,0.05,86.45,0)" xlink:href="#as"/><use transform="matrix(0.05,0,0,0.05,92.4,0)" xlink:href="#at"/><use transform="matrix(0.05,0,0,0.05,102.4,0)" xlink:href="#au"/><use transform="matrix(0.05,0,0,0.05,112.4,0)" xlink:href="#av"/></g><path fill="#494949" d="M141-36C126-15 110 5 73 4 37 3 15-17 15-53c-1-64 63-63 125-63 3-35-9-54-41-54-24 1-41 7-42 31l-33-3c5-37 33-52 76-52 45 0 72 20 72 64v82c-1 20 7 32 28 27v20c-31 9-61-2-59-35zM48-53c0 20 12 33 32 33 41-3 63-29 60-74-43 2-92-5-92 41" id="aw"/><g id="g"><use transform="matrix(0.05,0,0,0.05,0,0)" xlink:href="#aa"/><use transform="matrix(0.05,0,0,0.05,12.950000000000001,0)" xlink:href="#ab"/><use transform="matrix(0.05,0,0,0.05,22.950000000000003,0)" xlink:href="#ac"/><use transform="matrix(0.05,0,0,0.05,31.950000000000003,0)" xlink:href="#ad"/><use transform="matrix(0.05,0,0,0.05,36.95,0)" xlink:href="#ae"/><use transform="matrix(0.05,0,0,0.05,46.95,0)" xlink:href="#af"/><use transform="matrix(0.05,0,0,0.05,61.900000000000006,0)" xlink:href="#ag"/><use transform="matrix(0.05,0,0,0.05,71.9,0)" xlink:href="#ah"/><use transform="matrix(0.05,0,0,0.05,77.85000000000001,0)" xlink:href="#ai"/><use transform="matrix(0.05,0,0,0.05,90.80000000000001,0)" xlink:href="#aw"/><use transform="matrix(0.05,0,0,0.05,100.80000000000001,0)" xlink:href="#af"/><use transform="matrix(0.05,0,0,0.05,115.75,0)" xlink:href="#ag"/></g><path fill="#494949" d="M126-127c33 6 58 20 58 59 0 88-139 92-164 29-3-8-5-16-6-25l32-3c6 27 21 44 54 44 32 0 52-15 52-46 0-38-36-46-79-43v-28c39 1 72-4 72-42 0-27-17-43-46-43-28 0-47 15-49 41l-32-3c6-42 35-63 81-64 48-1 79 21 79 65 0 36-21 52-52 59" id="ax"/><path fill="#494949" d="M101-251c68 0 85 55 85 127S166 4 100 4C33 4 14-52 14-124c0-73 17-127 87-127zm-1 229c47 0 54-49 54-102s-4-102-53-102c-51 0-55 48-55 102 0 53 5 102 54 102" id="ay"/><g id="h"><use transform="matrix(0.05,0,0,0.05,0,0)" xlink:href="#ao"/><use transform="matrix(0.05,0,0,0.05,10.65,0)" xlink:href="#ap"/><use transform="matrix(0.05,0,0,0.05,22.65,0)" xlink:href="#aq"/><use transform="matrix(0.05,0,0,0.05,35.6,0)" xlink:href="#aa"/><use transform="matrix(0.05,0,0,0.05,48.550000000000004,0)" xlink:href="#ar"/><use transform="matrix(0.05,0,0,0.05,61.5,0)" xlink:href="#ap"/><use transform="matrix(0.05,0,0,0.05,73.5,0)" xlink:href="#aq"/><use transform="matrix(0.05,0,0,0.05,86.45,0)" xlink:href="#as"/><use transform="matrix(0.05,0,0,0.05,92.4,0)" xlink:href="#ax"/><use transform="matrix(0.05,0,0,0.05,102.4,0)" xlink:href="#ay"/><use transform="matrix(0.05,0,0,0.05,112.4,0)" xlink:href="#av"/></g><path d="M205 0l-28-72H64L36 0H1l101-248h38L239 0h-34zm-38-99l-47-123c-12 45-31 82-46 123h93" id="az"/><path d="M85-194c31 0 48 13 60 33l-1-100h32l1 261h-30c-2-10 0-23-3-31C134-8 116 4 85 4 32 4 16-35 15-94c0-66 23-100 70-100zm9 24c-40 0-46 34-46 75 0 40 6 74 45 74 42 0 51-32 51-76 0-42-9-74-50-73" id="aA"/><path d="M114-163C36-179 61-72 57 0H25l-1-190h30c1 12-1 29 2 39 6-27 23-49 58-41v29" id="aB"/><path d="M100-194c63 0 86 42 84 106H49c0 40 14 67 53 68 26 1 43-12 49-29l28 8c-11 28-37 45-77 45C44 4 14-33 15-96c1-61 26-98 85-98zm52 81c6-60-76-77-97-28-3 7-6 17-6 28h103" id="aC"/><path d="M135-143c-3-34-86-38-87 0 15 53 115 12 119 90S17 21 10-45l28-5c4 36 97 45 98 0-10-56-113-15-118-90-4-57 82-63 122-42 12 7 21 19 24 35" id="aD"/><g id="i"><use transform="matrix(0.05,0,0,0.05,0,0)" xlink:href="#az"/><use transform="matrix(0.05,0,0,0.05,12,0)" xlink:href="#aA"/><use transform="matrix(0.05,0,0,0.05,22,0)" xlink:href="#aA"/><use transform="matrix(0.05,0,0,0.05,32,0)" xlink:href="#aB"/><use transform="matrix(0.05,0,0,0.05,37.95,0)" xlink:href="#aC"/><use transform="matrix(0.05,0,0,0.05,47.95,0)" xlink:href="#aD"/><use transform="matrix(0.05,0,0,0.05,56.95,0)" xlink:href="#aD"/></g><path d="M137 0h-34L2-248h35l83 218 83-218h36" id="aE"/><path d="M233-177c-1 41-23 64-60 70L243 0h-38l-65-103H63V0H30v-248c88 3 205-21 203 71zM63-129c60-2 137 13 137-47 0-61-80-42-137-45v92" id="aF"/><path d="M212-179c-10-28-35-45-73-45-59 0-87 40-87 99 0 60 29 101 89 101 43 0 62-24 78-52l27 14C228-24 195 4 139 4 59 4 22-46 18-125c-6-104 99-153 187-111 19 9 31 26 39 46" id="aG"/><path d="M197 0v-115H63V0H30v-248h33v105h134v-105h34V0h-34" id="aH"/><path d="M87 75C49 33 22-17 22-94c0-76 28-126 65-167h31c-38 41-64 92-64 168S80 34 118 75H87" id="aI"/><path d="M126-127c33 6 58 20 58 59 0 88-139 92-164 29-3-8-5-16-6-25l32-3c6 27 21 44 54 44 32 0 52-15 52-46 0-38-36-46-79-43v-28c39 1 72-4 72-42 0-27-17-43-46-43-28 0-47 15-49 41l-32-3c6-42 35-63 81-64 48-1 79 21 79 65 0 36-21 52-52 59" id="aJ"/><path d="M101-251c68 0 85 55 85 127S166 4 100 4C33 4 14-52 14-124c0-73 17-127 87-127zm-1 229c47 0 54-49 54-102s-4-102-53-102c-51 0-55 48-55 102 0 53 5 102 54 102" id="aK"/><path d="M33-261c38 41 65 92 65 168S71 34 33 75H2C39 34 66-17 66-93S39-220 2-261h31" id="aL"/><g id="j"><use transform="matrix(0.05,0,0,0.05,0,0)" xlink:href="#aE"/><use transform="matrix(0.05,0,0,0.05,10.65,0)" xlink:href="#az"/><use transform="matrix(0.05,0,0,0.05,22.65,0)" xlink:href="#aF"/><use transform="matrix(0.05,0,0,0.05,35.6,0)" xlink:href="#aG"/><use transform="matrix(0.05,0,0,0.05,48.550000000000004,0)" xlink:href="#aH"/><use transform="matrix(0.05,0,0,0.05,61.5,0)" xlink:href="#az"/><use transform="matrix(0.05,0,0,0.05,73.5,0)" xlink:href="#aF"/><use transform="matrix(0.05,0,0,0.05,86.45,0)" xlink:href="#aI"/><use transform="matrix(0.05,0,0,0.05,92.4,0)" xlink:href="#aJ"/><use transform="matrix(0.05,0,0,0.05,102.4,0)" xlink:href="#aK"/><use transform="matrix(0.05,0,0,0.05,112.4,0)" xlink:href="#aL"/></g><path d="M24-231v-30h32v30H24zM24 0v-190h32V0H24" id="aM"/><path d="M59-47c-2 24 18 29 38 22v24C64 9 27 4 27-40v-127H5v-23h24l9-43h21v43h35v23H59v120" id="aN"/><path d="M179-190L93 31C79 59 56 82 12 73V49c39 6 53-20 64-50L1-190h34L92-34l54-156h33" id="aO"/><g id="k"><use transform="matrix(0.05,0,0,0.05,0,0)" xlink:href="#aG"/><use transform="matrix(0.05,0,0,0.05,12.950000000000001,0)" xlink:href="#aM"/><use transform="matrix(0.05,0,0,0.05,16.900000000000002,0)" xlink:href="#aN"/><use transform="matrix(0.05,0,0,0.05,21.900000000000002,0)" xlink:href="#aO"/></g><path d="M185-189c-5-48-123-54-124 2 14 75 158 14 163 119 3 78-121 87-175 55-17-10-28-26-33-46l33-7c5 56 141 63 141-1 0-78-155-14-162-118-5-82 145-84 179-34 5 7 8 16 11 25" id="aP"/><path d="M141-36C126-15 110 5 73 4 37 3 15-17 15-53c-1-64 63-63 125-63 3-35-9-54-41-54-24 1-41 7-42 31l-33-3c5-37 33-52 76-52 45 0 72 20 72 64v82c-1 20 7 32 28 27v20c-31 9-61-2-59-35zM48-53c0 20 12 33 32 33 41-3 63-29 60-74-43 2-92-5-92 41" id="aQ"/><g id="l"><use transform="matrix(0.05,0,0,0.05,0,0)" xlink:href="#aP"/><use transform="matrix(0.05,0,0,0.05,12,0)" xlink:href="#aN"/><use transform="matrix(0.05,0,0,0.05,17,0)" xlink:href="#aQ"/><use transform="matrix(0.05,0,0,0.05,27,0)" xlink:href="#aN"/><use transform="matrix(0.05,0,0,0.05,32,0)" xlink:href="#aC"/></g><path d="M101-251c82-7 93 87 43 132L82-64C71-53 59-42 53-27h129V0H18c2-99 128-94 128-182 0-28-16-43-45-43s-46 15-49 41l-32-3c6-41 34-60 81-64" id="aR"/><g id="m"><use transform="matrix(0.05,0,0,0.05,0,0)" xlink:href="#aG"/><use transform="matrix(0.05,0,0,0.05,12.950000000000001,0)" xlink:href="#aH"/><use transform="matrix(0.05,0,0,0.05,25.900000000000002,0)" xlink:href="#az"/><use transform="matrix(0.05,0,0,0.05,37.900000000000006,0)" xlink:href="#aF"/><use transform="matrix(0.05,0,0,0.05,50.85000000000001,0)" xlink:href="#aI"/><use transform="matrix(0.05,0,0,0.05,56.80000000000001,0)" xlink:href="#aR"/><use transform="matrix(0.05,0,0,0.05,66.80000000000001,0)" xlink:href="#aL"/></g><path d="M209 0H11v-25l151-195H24v-28h176v25L50-27h159V0" id="aS"/><path d="M115-194c55 1 70 41 70 98S169 2 115 4C84 4 66-9 55-30l1 105H24l-1-265h31l2 30c10-21 28-34 59-34zm-8 174c40 0 45-34 45-75s-6-73-45-74c-42 0-51 32-51 76 0 43 10 73 51 73" id="aT"/><g id="n"><use transform="matrix(0.05,0,0,0.05,0,0)" xlink:href="#aS"/><use transform="matrix(0.05,0,0,0.05,10.950000000000001,0)" xlink:href="#aM"/><use transform="matrix(0.05,0,0,0.05,14.9,0)" xlink:href="#aT"/></g><path d="M54-142c48-35 137-8 131 61C196 18 31 33 14-55l32-4c7 23 22 37 52 37 35-1 51-22 54-58 4-55-73-65-99-34H22l8-134h141v27H59" id="aU"/><g id="o"><use transform="matrix(0.05,0,0,0.05,0,0)" xlink:href="#aG"/><use transform="matrix(0.05,0,0,0.05,12.950000000000001,0)" xlink:href="#aH"/><use transform="matrix(0.05,0,0,0.05,25.900000000000002,0)" xlink:href="#az"/><use transform="matrix(0.05,0,0,0.05,37.900000000000006,0)" xlink:href="#aF"/><use transform="matrix(0.05,0,0,0.05,50.85000000000001,0)" xlink:href="#aI"/><use transform="matrix(0.05,0,0,0.05,56.80000000000001,0)" xlink:href="#aU"/><use transform="matrix(0.05,0,0,0.05,66.80000000000001,0)" xlink:href="#aL"/></g><path fill="#494949" d="M24-248c93 1 206-16 204 79-1 75-69 88-152 82V0H24v-248zm52 121c47 0 100 7 100-41 0-47-54-39-100-39v80" id="aV"/><path fill="#494949" d="M88-194c31-1 46 15 58 34l-1-101h50l1 261h-48c-2-10 0-23-3-31C134-8 116 4 84 4 32 4 16-41 15-95c0-56 19-97 73-99zm17 164c33 0 40-30 41-66 1-37-9-64-41-64s-38 30-39 65c0 43 13 65 39 65" id="aW"/><path fill="#494949" d="M190-63c-7 42-38 67-86 67-59 0-84-38-90-98-12-110 154-137 174-36l-49 2c-2-19-15-32-35-32-30 0-35 28-38 64-6 74 65 87 74 30" id="aX"/><g id="p"><use transform="matrix(0.05,0,0,0.05,0,0)" xlink:href="#aV"/><use transform="matrix(0.05,0,0,0.05,12,0)" xlink:href="#X"/><use transform="matrix(0.05,0,0,0.05,19,0)" xlink:href="#U"/><use transform="matrix(0.05,0,0,0.05,29.950000000000003,0)" xlink:href="#aW"/><use transform="matrix(0.05,0,0,0.05,40.900000000000006,0)" xlink:href="#R"/><use transform="matrix(0.05,0,0,0.05,51.85,0)" xlink:href="#aX"/><use transform="matrix(0.05,0,0,0.05,61.85,0)" xlink:href="#T"/><use transform="matrix(0.05,0,0,0.05,67.80000000000001,0)" xlink:href="#S"/></g><path fill="#494949" d="M85-194c31 0 48 13 60 33l-1-100h32l1 261h-30c-2-10 0-23-3-31C134-8 116 4 85 4 32 4 16-35 15-94c0-66 23-100 70-100zm9 24c-40 0-46 34-46 75 0 40 6 74 45 74 42 0 51-32 51-76 0-42-9-74-50-73" id="aY"/><path fill="#494949" d="M96-169c-40 0-48 33-48 73s9 75 48 75c24 0 41-14 43-38l32 2c-6 37-31 61-74 61-59 0-76-41-82-99-10-93 101-131 147-64 4 7 5 14 7 22l-32 3c-4-21-16-35-41-35" id="aZ"/><g id="q"><use transform="matrix(0.05,0,0,0.05,0,0)" xlink:href="#Y"/><use transform="matrix(0.05,0,0,0.05,12,0)" xlink:href="#ah"/><use transform="matrix(0.05,0,0,0.05,17.95,0)" xlink:href="#ae"/><use transform="matrix(0.05,0,0,0.05,27.950000000000003,0)" xlink:href="#aY"/><use transform="matrix(0.05,0,0,0.05,37.95,0)" xlink:href="#ab"/><use transform="matrix(0.05,0,0,0.05,47.95,0)" xlink:href="#aZ"/><use transform="matrix(0.05,0,0,0.05,56.95,0)" xlink:href="#ad"/><use transform="matrix(0.05,0,0,0.05,61.95,0)" xlink:href="#aa"/><use transform="matrix(0.05,0,0,0.05,74.9,0)" xlink:href="#ae"/><use transform="matrix(0.05,0,0,0.05,84.9,0)" xlink:href="#aY"/><use transform="matrix(0.05,0,0,0.05,94.9,0)" xlink:href="#ag"/></g><path fill="#494949" d="M24-231v-30h32v30H24zM24 0v-190h32V0H24" id="ba"/><g id="r"><use transform="matrix(0.05,0,0,0.05,0,0)" xlink:href="#Y"/><use transform="matrix(0.05,0,0,0.05,12,0)" xlink:href="#ah"/><use transform="matrix(0.05,0,0,0.05,17.95,0)" xlink:href="#ba"/><use transform="matrix(0.05,0,0,0.05,21.9,0)" xlink:href="#aZ"/><use transform="matrix(0.05,0,0,0.05,30.899999999999995,0)" xlink:href="#ag"/></g><path fill="#494949" d="M63-220v92h138v28H63V0H30v-248h175v28H63" id="bb"/><path fill="#494949" d="M30 0v-248h33v221h125V0H30" id="bc"/><path fill="#494949" d="M140-251c81 0 123 46 123 126C263-46 219 4 140 4 59 4 17-45 17-125s42-126 123-126zm0 227c63 0 89-41 89-101s-29-99-89-99c-61 0-89 39-89 99S79-25 140-24" id="bd"/><g id="s"><use transform="matrix(0.05,0,0,0.05,0,0)" xlink:href="#bb"/><use transform="matrix(0.05,0,0,0.05,10.950000000000001,0)" xlink:href="#bc"/><use transform="matrix(0.05,0,0,0.05,20.950000000000003,0)" xlink:href="#bd"/><use transform="matrix(0.05,0,0,0.05,34.95,0)" xlink:href="#ap"/><use transform="matrix(0.05,0,0,0.05,45.6,0)" xlink:href="#al"/></g><path fill="#494949" d="M179-190L93 31C79 59 56 82 12 73V49c39 6 53-20 64-50L1-190h34L92-34l54-156h33" id="be"/><path fill="#494949" d="M115-194c55 1 70 41 70 98S169 2 115 4C84 4 66-9 55-30l1 105H24l-1-265h31l2 30c10-21 28-34 59-34zm-8 174c40 0 45-34 45-75s-6-73-45-74c-42 0-51 32-51 76 0 43 10 73 51 73" id="bf"/><g id="t"><use transform="matrix(0.05,0,0,0.05,0,0)" xlink:href="#al"/><use transform="matrix(0.05,0,0,0.05,9.950000000000001,0)" xlink:href="#be"/><use transform="matrix(0.05,0,0,0.05,18.950000000000003,0)" xlink:href="#bf"/><use transform="matrix(0.05,0,0,0.05,28.950000000000003,0)" xlink:href="#ag"/></g><g id="u"><use transform="matrix(0.05,0,0,0.05,0,0)" xlink:href="#ao"/><use transform="matrix(0.05,0,0,0.05,10.65,0)" xlink:href="#ap"/><use transform="matrix(0.05,0,0,0.05,22.65,0)" xlink:href="#aq"/><use transform="matrix(0.05,0,0,0.05,35.6,0)" xlink:href="#aa"/><use transform="matrix(0.05,0,0,0.05,48.550000000000004,0)" xlink:href="#ar"/><use transform="matrix(0.05,0,0,0.05,61.5,0)" xlink:href="#ap"/><use transform="matrix(0.05,0,0,0.05,73.5,0)" xlink:href="#aq"/><use transform="matrix(0.05,0,0,0.05,86.45,0)" xlink:href="#as"/><use transform="matrix(0.05,0,0,0.05,92.4,0)" xlink:href="#at"/><use transform="matrix(0.05,0,0,0.05,102.4,0)" xlink:href="#ay"/><use transform="matrix(0.05,0,0,0.05,112.4,0)" xlink:href="#av"/></g><path d="M240 0l2-218c-23 76-54 145-80 218h-23L58-218 59 0H30v-248h44l77 211c21-75 51-140 76-211h43V0h-30" id="bg"/><path d="M117-194c89-4 53 116 60 194h-32v-121c0-31-8-49-39-48C34-167 62-67 57 0H25l-1-190h30c1 10-1 24 2 32 11-22 29-35 61-36" id="bh"/><path d="M84 4C-5 8 30-112 23-190h32v120c0 31 7 50 39 49 72-2 45-101 50-169h31l1 190h-30c-1-10 1-25-2-33-11 22-28 36-60 37" id="bi"/><path d="M101-234c-31-9-42 10-38 44h38v23H63V0H32v-167H5v-23h27c-7-52 17-82 69-68v24" id="bj"/><path d="M96-169c-40 0-48 33-48 73s9 75 48 75c24 0 41-14 43-38l32 2c-6 37-31 61-74 61-59 0-76-41-82-99-10-93 101-131 147-64 4 7 5 14 7 22l-32 3c-4-21-16-35-41-35" id="bk"/><g id="v"><use transform="matrix(0.05,0,0,0.05,0,0)" xlink:href="#bg"/><use transform="matrix(0.05,0,0,0.05,14.950000000000001,0)" xlink:href="#aQ"/><use transform="matrix(0.05,0,0,0.05,24.950000000000003,0)" xlink:href="#bh"/><use transform="matrix(0.05,0,0,0.05,34.95,0)" xlink:href="#bi"/><use transform="matrix(0.05,0,0,0.05,44.95,0)" xlink:href="#bj"/><use transform="matrix(0.05,0,0,0.05,49.95,0)" xlink:href="#aQ"/><use transform="matrix(0.05,0,0,0.05,59.95,0)" xlink:href="#bk"/><use transform="matrix(0.05,0,0,0.05,68.95,0)" xlink:href="#aN"/><use transform="matrix(0.05,0,0,0.05,73.95,0)" xlink:href="#bi"/><use transform="matrix(0.05,0,0,0.05,83.95,0)" xlink:href="#aB"/><use transform="matrix(0.05,0,0,0.05,89.9,0)" xlink:href="#aC"/><use transform="matrix(0.05,0,0,0.05,99.9,0)" xlink:href="#aB"/></g><path fill="#494949" d="M169-182c-1-43-94-46-97-3 18 66 151 10 154 114 3 95-165 93-204 36-6-8-10-19-12-30l50-8c3 46 112 56 116 5-17-69-150-10-154-114-4-87 153-88 188-35 5 8 8 18 10 28" id="bl"/><path fill="#494949" d="M147 0L96-86 75-71V0H25v-261h50v150l67-79h53l-66 74L201 0h-54" id="bm"/><g id="w"><use transform="matrix(0.05,0,0,0.05,0,0)" xlink:href="#bl"/><use transform="matrix(0.05,0,0,0.05,12,0)" xlink:href="#T"/><use transform="matrix(0.05,0,0,0.05,17.95,0)" xlink:href="#U"/><use transform="matrix(0.05,0,0,0.05,28.899999999999995,0)" xlink:href="#aX"/><use transform="matrix(0.05,0,0,0.05,38.9,0)" xlink:href="#bm"/></g><g id="x"><use transform="matrix(0.05,0,0,0.05,0,0)" xlink:href="#Y"/><use transform="matrix(0.05,0,0,0.05,12,0)" xlink:href="#bb"/></g><path fill="#494949" d="M185-189c-5-48-123-54-124 2 14 75 158 14 163 119 3 78-121 87-175 55-17-10-28-26-33-46l33-7c5 56 141 63 141-1 0-78-155-14-162-118-5-82 145-84 179-34 5 7 8 16 11 25" id="bn"/><g id="y"><use transform="matrix(0.05,0,0,0.05,0,0)" xlink:href="#bn"/><use transform="matrix(0.05,0,0,0.05,12,0)" xlink:href="#ad"/><use transform="matrix(0.05,0,0,0.05,17,0)" xlink:href="#ae"/><use transform="matrix(0.05,0,0,0.05,27,0)" xlink:href="#ah"/><use transform="matrix(0.05,0,0,0.05,32.95,0)" xlink:href="#ag"/><use transform="matrix(0.05,0,0,0.05,42.95,0)" xlink:href="#ai"/><use transform="matrix(0.05,0,0,0.05,55.900000000000006,0)" xlink:href="#ab"/><use transform="matrix(0.05,0,0,0.05,65.9,0)" xlink:href="#af"/><use transform="matrix(0.05,0,0,0.05,80.85000000000001,0)" xlink:href="#aj"/><use transform="matrix(0.05,0,0,0.05,90.85000000000001,0)" xlink:href="#ag"/><use transform="matrix(0.05,0,0,0.05,100.85000000000001,0)" xlink:href="#ah"/></g><path fill="#494949" d="M140-251c81 0 123 46 123 126C263-53 228-8 163 1c7 30 30 48 69 40v23c-55 16-95-15-103-61C56-3 17-48 17-125c0-80 42-126 123-126zm0 227c63 0 89-41 89-101s-29-99-89-99c-61 0-89 39-89 99S79-25 140-24" id="bo"/><g id="z"><use transform="matrix(0.05,0,0,0.05,0,0)" xlink:href="#bo"/><use transform="matrix(0.05,0,0,0.05,14,0)" xlink:href="#ab"/><use transform="matrix(0.05,0,0,0.05,24,0)" xlink:href="#aw"/><use transform="matrix(0.05,0,0,0.05,34,0)" xlink:href="#an"/><use transform="matrix(0.05,0,0,0.05,44,0)" xlink:href="#ad"/><use transform="matrix(0.05,0,0,0.05,49,0)" xlink:href="#ba"/><use transform="matrix(0.05,0,0,0.05,52.95,0)" xlink:href="#ad"/><use transform="matrix(0.05,0,0,0.05,57.95,0)" xlink:href="#be"/></g><path fill="#494949" d="M240 0l2-218c-23 76-54 145-80 218h-23L58-218 59 0H30v-248h44l77 211c21-75 51-140 76-211h43V0h-30" id="bp"/><g id="A"><use transform="matrix(0.05,0,0,0.05,0,0)" xlink:href="#bn"/><use transform="matrix(0.05,0,0,0.05,12,0)" xlink:href="#bp"/><use transform="matrix(0.05,0,0,0.05,26.950000000000003,0)" xlink:href="#ap"/><use transform="matrix(0.05,0,0,0.05,38.95,0)" xlink:href="#bc"/><use transform="matrix(0.05,0,0,0.05,48.95,0)" xlink:href="#bc"/><use transform="matrix(0.05,0,0,0.05,58.95,0)" xlink:href="#ak"/><use transform="matrix(0.05,0,0,0.05,63.95,0)" xlink:href="#ai"/><use transform="matrix(0.05,0,0,0.05,76.9,0)" xlink:href="#al"/></g><path fill="#494949" d="M133-34C117-15 103 5 69 4 32 3 11-16 11-54c-1-60 55-63 116-61 1-26-3-47-28-47-18 1-26 9-28 27l-52-2c7-38 36-58 82-57s74 22 75 68l1 82c-1 14 12 18 25 15v27c-30 8-71 5-69-32zm-48 3c29 0 43-24 42-57-32 0-66-3-65 30 0 17 8 27 23 27" id="bq"/><path fill="#494949" d="M25 0v-261h50V0H25" id="br"/><path fill="#494949" d="M25-224v-37h50v37H25zM25 0v-190h50V0H25" id="bs"/><g id="B"><use transform="matrix(0.05,0,0,0.05,0,0)" xlink:href="#bl"/><use transform="matrix(0.05,0,0,0.05,12,0)" xlink:href="#bq"/><use transform="matrix(0.05,0,0,0.05,22,0)" xlink:href="#br"/><use transform="matrix(0.05,0,0,0.05,27,0)" xlink:href="#W"/><use transform="matrix(0.05,0,0,0.05,37,0)" xlink:href="#S"/><use transform="matrix(0.05,0,0,0.05,47,0)" xlink:href="#aW"/><use transform="matrix(0.05,0,0,0.05,57.95,0)" xlink:href="#W"/><use transform="matrix(0.05,0,0,0.05,67.95,0)" xlink:href="#T"/><use transform="matrix(0.05,0,0,0.05,73.9,0)" xlink:href="#bq"/><use transform="matrix(0.05,0,0,0.05,83.9,0)" xlink:href="#bs"/><use transform="matrix(0.05,0,0,0.05,88.9,0)" xlink:href="#br"/><use transform="matrix(0.05,0,0,0.05,93.9,0)" xlink:href="#S"/></g><path fill="#494949" d="M24 0v-261h32V0H24" id="bt"/><g id="C"><use transform="matrix(0.05,0,0,0.05,0,0)" xlink:href="#bn"/><use transform="matrix(0.05,0,0,0.05,12,0)" xlink:href="#aw"/><use transform="matrix(0.05,0,0,0.05,22,0)" xlink:href="#bt"/><use transform="matrix(0.05,0,0,0.05,25.950000000000003,0)" xlink:href="#ag"/><use transform="matrix(0.05,0,0,0.05,35.95,0)" xlink:href="#ac"/><use transform="matrix(0.05,0,0,0.05,44.95,0)" xlink:href="#ai"/><use transform="matrix(0.05,0,0,0.05,57.900000000000006,0)" xlink:href="#ab"/><use transform="matrix(0.05,0,0,0.05,67.9,0)" xlink:href="#af"/><use transform="matrix(0.05,0,0,0.05,82.85000000000001,0)" xlink:href="#aj"/><use transform="matrix(0.05,0,0,0.05,92.85000000000001,0)" xlink:href="#ag"/><use transform="matrix(0.05,0,0,0.05,102.85000000000001,0)" xlink:href="#ah"/></g><g id="D"><use transform="matrix(0.05,0,0,0.05,0,0)" xlink:href="#bl"/><use transform="matrix(0.05,0,0,0.05,12,0)" xlink:href="#T"/><use transform="matrix(0.05,0,0,0.05,17.95,0)" xlink:href="#U"/><use transform="matrix(0.05,0,0,0.05,28.899999999999995,0)" xlink:href="#X"/><use transform="matrix(0.05,0,0,0.05,35.9,0)" xlink:href="#W"/><use transform="matrix(0.05,0,0,0.05,45.9,0)" xlink:href="#S"/></g><g id="E"><use transform="matrix(0.05,0,0,0.05,0,0)" xlink:href="#bn"/><use transform="matrix(0.05,0,0,0.05,12,0)" xlink:href="#ad"/><use transform="matrix(0.05,0,0,0.05,17,0)" xlink:href="#ae"/><use transform="matrix(0.05,0,0,0.05,27,0)" xlink:href="#ah"/><use transform="matrix(0.05,0,0,0.05,32.95,0)" xlink:href="#ag"/><use transform="matrix(0.05,0,0,0.05,42.95,0)" xlink:href="#ai"/><use transform="matrix(0.05,0,0,0.05,55.900000000000006,0)" xlink:href="#aw"/><use transform="matrix(0.05,0,0,0.05,65.9,0)" xlink:href="#af"/><use transform="matrix(0.05,0,0,0.05,80.85000000000001,0)" xlink:href="#ag"/></g><g id="F"><use transform="matrix(0.05,0,0,0.05,0,0)" xlink:href="#ap"/><use transform="matrix(0.05,0,0,0.05,12,0)" xlink:href="#aY"/><use transform="matrix(0.05,0,0,0.05,22,0)" xlink:href="#aY"/><use transform="matrix(0.05,0,0,0.05,32,0)" xlink:href="#ah"/><use transform="matrix(0.05,0,0,0.05,37.95,0)" xlink:href="#ag"/><use transform="matrix(0.05,0,0,0.05,47.95,0)" xlink:href="#ac"/><use transform="matrix(0.05,0,0,0.05,56.95,0)" xlink:href="#ac"/></g><g id="G"><use transform="matrix(0.05,0,0,0.05,0,0)" xlink:href="#bl"/><use transform="matrix(0.05,0,0,0.05,12,0)" xlink:href="#bq"/><use transform="matrix(0.05,0,0,0.05,22,0)" xlink:href="#br"/><use transform="matrix(0.05,0,0,0.05,27,0)" xlink:href="#W"/><use transform="matrix(0.05,0,0,0.05,37,0)" xlink:href="#S"/></g><g id="H"><use transform="matrix(0.05,0,0,0.05,0,0)" xlink:href="#bb"/><use transform="matrix(0.05,0,0,0.05,10.950000000000001,0)" xlink:href="#Z"/></g><path fill="#494949" d="M30 0v-248h187v28H63v79h144v27H63v87h162V0H30" id="bu"/><path fill="#494949" d="M30-248c118-7 216 8 213 122C240-48 200 0 122 0H30v-248zM63-27c89 8 146-16 146-99s-60-101-146-95v194" id="bv"/><g id="I"><use transform="matrix(0.05,0,0,0.05,0,0)" xlink:href="#bu"/><use transform="matrix(0.05,0,0,0.05,12,0)" xlink:href="#af"/><use transform="matrix(0.05,0,0,0.05,26.950000000000003,0)" xlink:href="#bf"/><use transform="matrix(0.05,0,0,0.05,36.95,0)" xlink:href="#bt"/><use transform="matrix(0.05,0,0,0.05,40.900000000000006,0)" xlink:href="#ae"/><use transform="matrix(0.05,0,0,0.05,50.900000000000006,0)" xlink:href="#be"/><use transform="matrix(0.05,0,0,0.05,59.900000000000006,0)" xlink:href="#ag"/><use transform="matrix(0.05,0,0,0.05,69.9,0)" xlink:href="#ag"/><use transform="matrix(0.05,0,0,0.05,79.9,0)" xlink:href="#ak"/><use transform="matrix(0.05,0,0,0.05,84.9,0)" xlink:href="#bv"/></g><path d="M100-194c62-1 85 37 85 99 1 63-27 99-86 99S16-35 15-95c0-66 28-99 85-99zM99-20c44 1 53-31 53-75 0-43-8-75-51-75s-53 32-53 75 10 74 51 75" id="bw"/><path d="M190 0L58-211 59 0H30v-248h39L202-35l-2-213h31V0h-41" id="bx"/><path d="M210-169c-67 3-38 105-44 169h-31v-121c0-29-5-50-35-48C34-165 62-65 56 0H25l-1-190h30c1 10-1 24 2 32 10-44 99-50 107 0 11-21 27-35 58-36 85-2 47 119 55 194h-31v-121c0-29-5-49-35-48" id="by"/><path d="M115-194c53 0 69 39 70 98 0 66-23 100-70 100C84 3 66-7 56-30L54 0H23l1-261h32v101c10-23 28-34 59-34zm-8 174c40 0 45-34 45-75 0-40-5-75-45-74-42 0-51 32-51 76 0 43 10 73 51 73" id="bz"/><g id="J"><use transform="matrix(0.05,0,0,0.05,0,0)" xlink:href="#aP"/><use transform="matrix(0.05,0,0,0.05,12,0)" xlink:href="#aN"/><use transform="matrix(0.05,0,0,0.05,17,0)" xlink:href="#bw"/><use transform="matrix(0.05,0,0,0.05,27,0)" xlink:href="#aB"/><use transform="matrix(0.05,0,0,0.05,32.95,0)" xlink:href="#aC"/><use transform="matrix(0.05,0,0,0.05,42.95,0)" xlink:href="#bx"/><use transform="matrix(0.05,0,0,0.05,55.900000000000006,0)" xlink:href="#bi"/><use transform="matrix(0.05,0,0,0.05,65.9,0)" xlink:href="#by"/><use transform="matrix(0.05,0,0,0.05,80.85000000000001,0)" xlink:href="#bz"/><use transform="matrix(0.05,0,0,0.05,90.85000000000001,0)" xlink:href="#aC"/><use transform="matrix(0.05,0,0,0.05,100.85000000000001,0)" xlink:href="#aB"/></g><path d="M24 0v-261h32V0H24" id="bA"/><path d="M30-248c118-7 216 8 213 122C240-48 200 0 122 0H30v-248zM63-27c89 8 146-16 146-99s-60-101-146-95v194" id="bB"/><g id="K"><use transform="matrix(0.05,0,0,0.05,0,0)" xlink:href="#aP"/><use transform="matrix(0.05,0,0,0.05,12,0)" xlink:href="#aQ"/><use transform="matrix(0.05,0,0,0.05,22,0)" xlink:href="#bA"/><use transform="matrix(0.05,0,0,0.05,25.950000000000003,0)" xlink:href="#aC"/><use transform="matrix(0.05,0,0,0.05,35.95,0)" xlink:href="#aD"/><use transform="matrix(0.05,0,0,0.05,44.95,0)" xlink:href="#bB"/><use transform="matrix(0.05,0,0,0.05,57.900000000000006,0)" xlink:href="#aQ"/><use transform="matrix(0.05,0,0,0.05,67.9,0)" xlink:href="#aN"/><use transform="matrix(0.05,0,0,0.05,72.9,0)" xlink:href="#aC"/></g><path d="M127-220V0H93v-220H8v-28h204v28h-85" id="bC"/><path d="M30 0v-248h187v28H63v79h144v27H63v87h162V0H30" id="bD"/><g id="L"><use transform="matrix(0.05,0,0,0.05,0,0)" xlink:href="#bB"/><use transform="matrix(0.05,0,0,0.05,12.950000000000001,0)" xlink:href="#az"/><use transform="matrix(0.05,0,0,0.05,23.6,0)" xlink:href="#bC"/><use transform="matrix(0.05,0,0,0.05,34.550000000000004,0)" xlink:href="#bD"/></g><g id="M"><use transform="matrix(0.05,0,0,0.05,0,0)" xlink:href="#aP"/><use transform="matrix(0.05,0,0,0.05,12,0)" xlink:href="#aQ"/><use transform="matrix(0.05,0,0,0.05,22,0)" xlink:href="#bA"/><use transform="matrix(0.05,0,0,0.05,25.950000000000003,0)" xlink:href="#aC"/><use transform="matrix(0.05,0,0,0.05,35.95,0)" xlink:href="#aD"/><use transform="matrix(0.05,0,0,0.05,44.95,0)" xlink:href="#bC"/><use transform="matrix(0.05,0,0,0.05,53.900000000000006,0)" xlink:href="#bw"/><use transform="matrix(0.05,0,0,0.05,63.900000000000006,0)" xlink:href="#aN"/><use transform="matrix(0.05,0,0,0.05,68.9,0)" xlink:href="#aQ"/><use transform="matrix(0.05,0,0,0.05,78.9,0)" xlink:href="#bA"/></g><path d="M63-220v92h138v28H63V0H30v-248h175v28H63" id="bE"/><path d="M30 0v-248h33v221h125V0H30" id="bF"/><path d="M140-251c81 0 123 46 123 126C263-46 219 4 140 4 59 4 17-45 17-125s42-126 123-126zm0 227c63 0 89-41 89-101s-29-99-89-99c-61 0-89 39-89 99S79-25 140-24" id="bG"/><g id="N"><use transform="matrix(0.05,0,0,0.05,0,0)" xlink:href="#bE"/><use transform="matrix(0.05,0,0,0.05,10.950000000000001,0)" xlink:href="#bF"/><use transform="matrix(0.05,0,0,0.05,20.950000000000003,0)" xlink:href="#bG"/><use transform="matrix(0.05,0,0,0.05,34.95,0)" xlink:href="#az"/><use transform="matrix(0.05,0,0,0.05,45.6,0)" xlink:href="#bC"/></g><path fill="#494949" d="M135-194c53 0 70 44 70 98 0 56-19 98-73 100-31 1-45-17-59-34 3 33 2 69 2 105H25l-1-265h48c2 10 0 23 3 31 11-24 29-35 60-35zM114-30c33 0 39-31 40-66 0-38-9-64-40-64-56 0-55 130 0 130" id="bH"/><path fill="#494949" d="M135-194c87-1 58 113 63 194h-50c-7-57 23-157-34-157-59 0-34 97-39 157H25l-1-190h47c2 12-1 28 3 38 12-26 28-41 61-42" id="bI"/><g id="O"><use transform="matrix(0.05,0,0,0.05,0,0)" xlink:href="#bl"/><use transform="matrix(0.05,0,0,0.05,12,0)" xlink:href="#bq"/><use transform="matrix(0.05,0,0,0.05,22,0)" xlink:href="#br"/><use transform="matrix(0.05,0,0,0.05,27,0)" xlink:href="#W"/><use transform="matrix(0.05,0,0,0.05,37,0)" xlink:href="#aW"/><use transform="matrix(0.05,0,0,0.05,47.95,0)" xlink:href="#bH"/><use transform="matrix(0.05,0,0,0.05,58.900000000000006,0)" xlink:href="#W"/><use transform="matrix(0.05,0,0,0.05,68.9,0)" xlink:href="#X"/><use transform="matrix(0.05,0,0,0.05,75.9,0)" xlink:href="#S"/><use transform="matrix(0.05,0,0,0.05,85.9,0)" xlink:href="#U"/><use transform="matrix(0.05,0,0,0.05,96.85000000000001,0)" xlink:href="#bI"/><use transform="matrix(0.05,0,0,0.05,107.80000000000001,0)" xlink:href="#S"/></g><g id="P"><use transform="matrix(0.05,0,0,0.05,0,0)" xlink:href="#bn"/><use transform="matrix(0.05,0,0,0.05,12,0)" xlink:href="#aw"/><use transform="matrix(0.05,0,0,0.05,22,0)" xlink:href="#bt"/><use transform="matrix(0.05,0,0,0.05,25.950000000000003,0)" xlink:href="#ag"/><use transform="matrix(0.05,0,0,0.05,35.95,0)" xlink:href="#ac"/><use transform="matrix(0.05,0,0,0.05,44.95,0)" xlink:href="#Y"/><use transform="matrix(0.05,0,0,0.05,56.95,0)" xlink:href="#ag"/><use transform="matrix(0.05,0,0,0.05,66.95,0)" xlink:href="#ah"/><use transform="matrix(0.05,0,0,0.05,72.9,0)" xlink:href="#ac"/><use transform="matrix(0.05,0,0,0.05,81.9,0)" xlink:href="#ae"/><use transform="matrix(0.05,0,0,0.05,91.9,0)" xlink:href="#an"/><use transform="matrix(0.05,0,0,0.05,101.9,0)" xlink:href="#ai"/><use transform="matrix(0.05,0,0,0.05,114.85000000000001,0)" xlink:href="#aw"/><use transform="matrix(0.05,0,0,0.05,124.85000000000001,0)" xlink:href="#af"/><use transform="matrix(0.05,0,0,0.05,139.8,0)" xlink:href="#ag"/></g></defs></g></svg>