<svg xmlns="http://www.w3.org/2000/svg" xmlns:xlink="http://www.w3.org/1999/xlink" xmlns:lucid="lucid" width="288" height="736"><g transform="translate(0 0)" lucid:page-tab-id="0_0"><path d="M0 0h288v736H0z" fill="#fff"/><path d="M20 123.5h230" stroke="#999" stroke-width="2" fill="none"/><path d="M30 133.5v-20M40 133.5v-20" stroke="#999" stroke-width="2" fill="#fff"/><path d="M60 85c0-2.76 2.24-5 5-5h170c2.76 0 5 2.24 5 5v14.67c0 2.76-2.24 5-5 5H65c-2.76 0-5-2.24-5-5z" fill="none"/><use xlink:href="#a" transform="matrix(1,0,0,1,65,85) translate(0 14.222222222222223)"/><use xlink:href="#b" transform="matrix(1,0,0,1,65,85) translate(86.61728395061729 14.222222222222223)"/><use xlink:href="#c" transform="matrix(1,0,0,1,65,85) translate(106.37037037037038 14.222222222222223)"/><path d="M16 21c0-2.76 2.24-5 5-5h310c2.76 0 5 2.24 5 5v34c0 2.76-2.24 5-5 5H21c-2.76 0-5-2.24-5-5z" fill="none"/><use xlink:href="#d" transform="matrix(1,0,0,1,21,21) translate(0 22.333333333333336)"/><use xlink:href="#e" transform="matrix(1,0,0,1,21,21) translate(57.777777777777786 22.333333333333336)"/><use xlink:href="#f" transform="matrix(1,0,0,1,21,21) translate(109.62962962962965 22.333333333333336)"/><use xlink:href="#g" transform="matrix(1,0,0,1,21,21) translate(171.7777777777778 22.333333333333336)"/><path d="M60 147.33c0-2.76 2.24-5 5-5h170c2.76 0 5 2.24 5 5V162c0 2.76-2.24 5-5 5H65c-2.76 0-5-2.24-5-5z" fill="none"/><use xlink:href="#h" transform="matrix(1,0,0,1,65,147.33333333333334) translate(0 14.222222222222223)"/><path d="M20 307.5h230M20 297.5l20 10-20 10" stroke="#999" stroke-width="2" fill="none"/><path d="M40 317.5v-20" stroke="#999" stroke-width="2" fill="#fff"/><path d="M60 269c0-2.76 2.24-5 5-5h170c2.76 0 5 2.24 5 5v14.67c0 2.76-2.24 5-5 5H65c-2.76 0-5-2.24-5-5z" fill="none"/><use xlink:href="#a" transform="matrix(1,0,0,1,65,269) translate(0 14.222222222222223)"/><use xlink:href="#b" transform="matrix(1,0,0,1,65,269) translate(86.61728395061729 14.222222222222223)"/><use xlink:href="#i" transform="matrix(1,0,0,1,65,269) translate(106.37037037037038 14.222222222222223)"/><path d="M16 205c0-2.76 2.24-5 5-5h310c2.76 0 5 2.24 5 5v34c0 2.76-2.24 5-5 5H21c-2.76 0-5-2.24-5-5z" fill="none"/><use xlink:href="#d" transform="matrix(1,0,0,1,21,205) translate(0 22.333333333333336)"/><use xlink:href="#j" transform="matrix(1,0,0,1,21,205) translate(57.777777777777786 22.333333333333336)"/><use xlink:href="#k" transform="matrix(1,0,0,1,21,205) translate(88.81481481481482 22.333333333333336)"/><path d="M60 331.33c0-2.76 2.24-5 5-5h170c2.76 0 5 2.24 5 5V346c0 2.76-2.24 5-5 5H65c-2.76 0-5-2.24-5-5z" fill="none"/><use xlink:href="#h" transform="matrix(1,0,0,1,65,331.33333333333337) translate(0 14.222222222222223)"/><path d="M20 488h230M20 478l20 10-20 10" stroke="#999" stroke-width="2" fill="none"/><path d="M60 488c0 5.52-4.48 10-10 10s-10-4.48-10-10 4.48-10 10-10 10 4.48 10 10" stroke="#999" stroke-width="2" fill="#fff"/><path d="M60 449.5c0-2.76 2.24-5 5-5h170c2.76 0 5 2.24 5 5v14.67c0 2.76-2.24 5-5 5H65c-2.76 0-5-2.24-5-5z" fill="none"/><use xlink:href="#l" transform="matrix(1,0,0,1,65,449.5) translate(0 14.222222222222223)"/><use xlink:href="#m" transform="matrix(1,0,0,1,65,449.5) translate(86.61728395061729 14.222222222222223)"/><use xlink:href="#n" transform="matrix(1,0,0,1,65,449.5) translate(106.37037037037038 14.222222222222223)"/><path d="M16 385.5c0-2.76 2.24-5 5-5h310c2.76 0 5 2.24 5 5v34c0 2.76-2.24 5-5 5H21c-2.76 0-5-2.24-5-5z" fill="none"/><use xlink:href="#o" transform="matrix(1,0,0,1,21,385.5) translate(0 22.333333333333336)"/><use xlink:href="#j" transform="matrix(1,0,0,1,21,385.5) translate(62.07407407407409 22.333333333333336)"/><use xlink:href="#p" transform="matrix(1,0,0,1,21,385.5) translate(93.11111111111113 22.333333333333336)"/><use xlink:href="#j" transform="matrix(1,0,0,1,21,385.5) translate(150.8888888888889 22.333333333333336)"/><use xlink:href="#k" transform="matrix(1,0,0,1,21,385.5) translate(181.92592592592595 22.333333333333336)"/><path d="M60 511.83c0-2.76 2.24-5 5-5h170c2.76 0 5 2.24 5 5v14.67c0 2.76-2.24 5-5 5H65c-2.76 0-5-2.24-5-5z" fill="none"/><use xlink:href="#q" transform="matrix(1,0,0,1,65,511.83333333333337) translate(0 14.222222222222223)"/><path d="M20 667.5h230" stroke="#999" stroke-width="2" fill="none"/><path d="M30 677.5v-20M60 667.5c0 5.52-4.48 10-10 10s-10-4.48-10-10 4.48-10 10-10 10 4.48 10 10" stroke="#999" stroke-width="2" fill="#fff"/><path d="M60 629c0-2.76 2.24-5 5-5h170c2.76 0 5 2.24 5 5v14.67c0 2.76-2.24 5-5 5H65c-2.76 0-5-2.24-5-5z" fill="none"/><use xlink:href="#l" transform="matrix(1,0,0,1,65,629) translate(0 14.222222222222223)"/><use xlink:href="#m" transform="matrix(1,0,0,1,65,629) translate(86.61728395061729 14.222222222222223)"/><use xlink:href="#r" transform="matrix(1,0,0,1,65,629) translate(106.37037037037038 14.222222222222223)"/><path d="M16 565c0-2.76 2.24-5 5-5h310c2.76 0 5 2.24 5 5v34c0 2.76-2.24 5-5 5H21c-2.76 0-5-2.24-5-5z" fill="none"/><use xlink:href="#o" transform="matrix(1,0,0,1,21,565) translate(0 22.333333333333336)"/><use xlink:href="#j" transform="matrix(1,0,0,1,21,565) translate(62.07407407407409 22.333333333333336)"/><use xlink:href="#g" transform="matrix(1,0,0,1,21,565) translate(93.11111111111113 22.333333333333336)"/><path d="M60 691.33c0-2.76 2.24-5 5-5h170c2.76 0 5 2.24 5 5V706c0 2.76-2.24 5-5 5H65c-2.76 0-5-2.24-5-5z" fill="none"/><use xlink:href="#q" transform="matrix(1,0,0,1,65,691.3333333333334) translate(0 14.222222222222223)"/><path d="M60 92.33l-4 .33-3.36.85-3.26 1.46-4.13 2.77L30 110" stroke="#999" stroke-width="2" fill="none"/><path d="M60 92.33l-.33-.94.33-.13z" fill="#999"/><path d="M30 110l8.2-12.55 5.82 7.22z" stroke="#999" stroke-width="2" fill="#999"/><path d="M60 154.67l-1.2-.17-1.7-.73-3.1-2.46-10.32-13.6-.12-.04h-.17l-.04.04-.04.06-.05.12v.02" stroke="#999" stroke-width="2" fill="none"/><path d="M60 156l-.67-.6.67-.73z" fill="#999"/><path d="M43.27 137.9l12.57 8.18-7.2 5.83z" stroke="#999" stroke-width="2" fill="#999"/><path d="M60 276.33l-3.64.3-2.97.8-2.75 1.26-2.98 2.06-5.47 5.63-9.57 10.12-1.58 1.24" stroke="#999" stroke-width="2" fill="none"/><path d="M60 276.33l-.38-.92.38-.15z" fill="#999"/><path d="M31.05 297.76l6.7-13.42 6.6 6.5z" stroke="#999" stroke-width="2" fill="#999"/><path d="M60 338.67l-3.28-.4-2.53-.98-2.46-1.8-4.18-5.37L40 320" stroke="#999" stroke-width="2" fill="none"/><path d="M60 339.86l-.55-.36.55-.83z" fill="#999"/><path d="M40 320l12.27 8.62-7.4 5.57z" stroke="#999" stroke-width="2" fill="#999"/><path d="M60 456.83l-3.6.3-2.95.74-2.68 1.2L48 460.9l-3.76 3.57-13.97 15.32-.27.2" stroke="#999" stroke-width="2" fill="none"/><path d="M60 456.83l-.38-.92.38-.15z" fill="#999"/><path d="M30 480l6.24-13.64 6.83 6.27z" stroke="#999" stroke-width="2" fill="#999"/><path d="M60 519.17l-1.96-.24-1.32-.54-1.07-.83-1-1.33-1.2-3.02L50 500" stroke="#999" stroke-width="2" fill="none"/><path d="M60 520.9l-.82-1.15.82-.58z" fill="#999"/><path d="M50 500l8.22 12.55-8.94 2.43z" stroke="#999" stroke-width="2" fill="#999"/><path d="M60 636.33l-3.75.33-3.1.85-2.95 1.46-3.66 2.74-14.17 13.1" stroke="#999" stroke-width="2" fill="none"/><path d="M60 636.33l-.37-.92.37-.15z" fill="#999"/><path d="M32.37 654.8l7.32-13.08 6.3 6.8z" stroke="#999" stroke-width="2" fill="#999"/><path d="M60 698.67l-1.94-.24-1.3-.54-1.08-.83-1.02-1.35-1.24-3.2L50 680" stroke="#999" stroke-width="2" fill="none"/><path d="M60 700.4l-.8-1.15.8-.58z" fill="#999"/><path d="M50 680l8.4 12.42-8.9 2.57z" stroke="#999" stroke-width="2" fill="#999"/><defs><path fill="#333" d="M240 0l2-218c-23 76-54 145-80 218h-23L58-218 59 0H30v-248h44l77 211c21-75 51-140 76-211h43V0h-30" id="s"/><path fill="#333" d="M84 4C-5 8 30-112 23-190h32v120c0 31 7 50 39 49 72-2 45-101 50-169h31l1 190h-30c-1-10 1-25-2-33-11 22-28 36-60 37" id="t"/><path fill="#333" d="M24 0v-261h32V0H24" id="u"/><path fill="#333" d="M59-47c-2 24 18 29 38 22v24C64 9 27 4 27-40v-127H5v-23h24l9-43h21v43h35v23H59v120" id="v"/><path fill="#333" d="M24-231v-30h32v30H24zM24 0v-190h32V0H24" id="w"/><path fill="#333" d="M115-194c55 1 70 41 70 98S169 2 115 4C84 4 66-9 55-30l1 105H24l-1-265h31l2 30c10-21 28-34 59-34zm-8 174c40 0 45-34 45-75s-6-73-45-74c-42 0-51 32-51 76 0 43 10 73 51 73" id="x"/><path fill="#333" d="M96-169c-40 0-48 33-48 73s9 75 48 75c24 0 41-14 43-38l32 2c-6 37-31 61-74 61-59 0-76-41-82-99-10-93 101-131 147-64 4 7 5 14 7 22l-32 3c-4-21-16-35-41-35" id="y"/><path fill="#333" d="M179-190L93 31C79 59 56 82 12 73V49c39 6 53-20 64-50L1-190h34L92-34l54-156h33" id="z"/><g id="a"><use transform="matrix(0.04938271604938272,0,0,0.04938271604938272,0,0)" xlink:href="#s"/><use transform="matrix(0.04938271604938272,0,0,0.04938271604938272,14.765432098765434,0)" xlink:href="#t"/><use transform="matrix(0.04938271604938272,0,0,0.04938271604938272,24.641975308641978,0)" xlink:href="#u"/><use transform="matrix(0.04938271604938272,0,0,0.04938271604938272,28.543209876543212,0)" xlink:href="#v"/><use transform="matrix(0.04938271604938272,0,0,0.04938271604938272,33.48148148148148,0)" xlink:href="#w"/><use transform="matrix(0.04938271604938272,0,0,0.04938271604938272,37.382716049382715,0)" xlink:href="#x"/><use transform="matrix(0.04938271604938272,0,0,0.04938271604938272,47.25925925925926,0)" xlink:href="#u"/><use transform="matrix(0.04938271604938272,0,0,0.04938271604938272,51.1604938271605,0)" xlink:href="#w"/><use transform="matrix(0.04938271604938272,0,0,0.04938271604938272,55.061728395061735,0)" xlink:href="#y"/><use transform="matrix(0.04938271604938272,0,0,0.04938271604938272,63.95061728395062,0)" xlink:href="#w"/><use transform="matrix(0.04938271604938272,0,0,0.04938271604938272,67.85185185185186,0)" xlink:href="#v"/><use transform="matrix(0.04938271604938272,0,0,0.04938271604938272,72.79012345679013,0)" xlink:href="#z"/></g><path fill="#333" d="M100-194c62-1 85 37 85 99 1 63-27 99-86 99S16-35 15-95c0-66 28-99 85-99zM99-20c44 1 53-31 53-75 0-43-8-75-51-75s-53 32-53 75 10 74 51 75" id="A"/><path fill="#333" d="M101-234c-31-9-42 10-38 44h38v23H63V0H32v-167H5v-23h27c-7-52 17-82 69-68v24" id="B"/><g id="b"><use transform="matrix(0.04938271604938272,0,0,0.04938271604938272,0,0)" xlink:href="#A"/><use transform="matrix(0.04938271604938272,0,0,0.04938271604938272,9.876543209876544,0)" xlink:href="#B"/></g><path fill="#333" d="M140-251c81 0 123 46 123 126C263-46 219 4 140 4 59 4 17-45 17-125s42-126 123-126zm0 227c63 0 89-41 89-101s-29-99-89-99c-61 0-89 39-89 99S79-25 140-24" id="C"/><path fill="#333" d="M117-194c89-4 53 116 60 194h-32v-121c0-31-8-49-39-48C34-167 62-67 57 0H25l-1-190h30c1 10-1 24 2 32 11-22 29-35 61-36" id="D"/><path fill="#333" d="M100-194c63 0 86 42 84 106H49c0 40 14 67 53 68 26 1 43-12 49-29l28 8c-11 28-37 45-77 45C44 4 14-33 15-96c1-61 26-98 85-98zm52 81c6-60-76-77-97-28-3 7-6 17-6 28h103" id="E"/><g id="c"><use transform="matrix(0.04938271604938272,0,0,0.04938271604938272,0,0)" xlink:href="#C"/><use transform="matrix(0.04938271604938272,0,0,0.04938271604938272,13.827160493827162,0)" xlink:href="#D"/><use transform="matrix(0.04938271604938272,0,0,0.04938271604938272,23.703703703703706,0)" xlink:href="#E"/></g><g id="d"><use transform="matrix(0.07407407407407408,0,0,0.07407407407407408,0,0)" xlink:href="#C"/><use transform="matrix(0.07407407407407408,0,0,0.07407407407407408,20.740740740740744,0)" xlink:href="#D"/><use transform="matrix(0.07407407407407408,0,0,0.07407407407407408,35.55555555555556,0)" xlink:href="#E"/></g><path fill="#333" d="M141-36C126-15 110 5 73 4 37 3 15-17 15-53c-1-64 63-63 125-63 3-35-9-54-41-54-24 1-41 7-42 31l-33-3c5-37 33-52 76-52 45 0 72 20 72 64v82c-1 20 7 32 28 27v20c-31 9-61-2-59-35zM48-53c0 20 12 33 32 33 41-3 63-29 60-74-43 2-92-5-92 41" id="F"/><path fill="#333" d="M85-194c31 0 48 13 60 33l-1-100h32l1 261h-30c-2-10 0-23-3-31C134-8 116 4 85 4 32 4 16-35 15-94c0-66 23-100 70-100zm9 24c-40 0-46 34-46 75 0 40 6 74 45 74 42 0 51-32 51-76 0-42-9-74-50-73" id="G"/><g id="e"><use transform="matrix(0.07407407407407408,0,0,0.07407407407407408,0,0)" xlink:href="#F"/><use transform="matrix(0.07407407407407408,0,0,0.07407407407407408,14.814814814814817,0)" xlink:href="#D"/><use transform="matrix(0.07407407407407408,0,0,0.07407407407407408,29.629629629629633,0)" xlink:href="#G"/></g><g id="f"><use transform="matrix(0.07407407407407408,0,0,0.07407407407407408,0,0)" xlink:href="#C"/><use transform="matrix(0.07407407407407408,0,0,0.07407407407407408,20.740740740740744,0)" xlink:href="#D"/><use transform="matrix(0.07407407407407408,0,0,0.07407407407407408,35.55555555555556,0)" xlink:href="#u"/><use transform="matrix(0.07407407407407408,0,0,0.07407407407407408,41.40740740740741,0)" xlink:href="#z"/></g><g id="g"><use transform="matrix(0.07407407407407408,0,0,0.07407407407407408,0,0)" xlink:href="#C"/><use transform="matrix(0.07407407407407408,0,0,0.07407407407407408,20.740740740740744,0)" xlink:href="#D"/><use transform="matrix(0.07407407407407408,0,0,0.07407407407407408,35.55555555555556,0)" xlink:href="#E"/></g><path fill="#333" d="M114-163C36-179 61-72 57 0H25l-1-190h30c1 12-1 29 2 39 6-27 23-49 58-41v29" id="H"/><g id="h"><use transform="matrix(0.04938271604938272,0,0,0.04938271604938272,0,0)" xlink:href="#s"/><use transform="matrix(0.04938271604938272,0,0,0.04938271604938272,14.765432098765434,0)" xlink:href="#F"/><use transform="matrix(0.04938271604938272,0,0,0.04938271604938272,24.641975308641978,0)" xlink:href="#D"/><use transform="matrix(0.04938271604938272,0,0,0.04938271604938272,34.51851851851852,0)" xlink:href="#G"/><use transform="matrix(0.04938271604938272,0,0,0.04938271604938272,44.39506172839506,0)" xlink:href="#F"/><use transform="matrix(0.04938271604938272,0,0,0.04938271604938272,54.27160493827161,0)" xlink:href="#v"/><use transform="matrix(0.04938271604938272,0,0,0.04938271604938272,59.20987654320988,0)" xlink:href="#A"/><use transform="matrix(0.04938271604938272,0,0,0.04938271604938272,69.08641975308643,0)" xlink:href="#H"/><use transform="matrix(0.04938271604938272,0,0,0.04938271604938272,74.96296296296298,0)" xlink:href="#z"/></g><g id="i"><use transform="matrix(0.04938271604938272,0,0,0.04938271604938272,0,0)" xlink:href="#s"/><use transform="matrix(0.04938271604938272,0,0,0.04938271604938272,14.765432098765434,0)" xlink:href="#F"/><use transform="matrix(0.04938271604938272,0,0,0.04938271604938272,24.641975308641978,0)" xlink:href="#D"/><use transform="matrix(0.04938271604938272,0,0,0.04938271604938272,34.51851851851852,0)" xlink:href="#z"/></g><g id="j"><use transform="matrix(0.07407407407407408,0,0,0.07407407407407408,0,0)" xlink:href="#A"/><use transform="matrix(0.07407407407407408,0,0,0.07407407407407408,14.814814814814817,0)" xlink:href="#H"/></g><g id="k"><use transform="matrix(0.07407407407407408,0,0,0.07407407407407408,0,0)" xlink:href="#s"/><use transform="matrix(0.07407407407407408,0,0,0.07407407407407408,22.148148148148152,0)" xlink:href="#F"/><use transform="matrix(0.07407407407407408,0,0,0.07407407407407408,36.96296296296297,0)" xlink:href="#D"/><use transform="matrix(0.07407407407407408,0,0,0.07407407407407408,51.777777777777786,0)" xlink:href="#z"/></g><g id="l"><use transform="matrix(0.04938271604938272,0,0,0.04938271604938272,0,0)" xlink:href="#s"/><use transform="matrix(0.04938271604938272,0,0,0.04938271604938272,14.765432098765434,0)" xlink:href="#t"/><use transform="matrix(0.04938271604938272,0,0,0.04938271604938272,24.641975308641978,0)" xlink:href="#u"/><use transform="matrix(0.04938271604938272,0,0,0.04938271604938272,28.543209876543212,0)" xlink:href="#v"/><use transform="matrix(0.04938271604938272,0,0,0.04938271604938272,33.48148148148148,0)" xlink:href="#w"/><use transform="matrix(0.04938271604938272,0,0,0.04938271604938272,37.382716049382715,0)" xlink:href="#x"/><use transform="matrix(0.04938271604938272,0,0,0.04938271604938272,47.25925925925926,0)" xlink:href="#u"/><use transform="matrix(0.04938271604938272,0,0,0.04938271604938272,51.1604938271605,0)" xlink:href="#w"/><use transform="matrix(0.04938271604938272,0,0,0.04938271604938272,55.061728395061735,0)" xlink:href="#y"/><use transform="matrix(0.04938271604938272,0,0,0.04938271604938272,63.95061728395062,0)" xlink:href="#w"/><use transform="matrix(0.04938271604938272,0,0,0.04938271604938272,67.85185185185186,0)" xlink:href="#v"/><use transform="matrix(0.04938271604938272,0,0,0.04938271604938272,72.79012345679013,0)" xlink:href="#z"/></g><g id="m"><use transform="matrix(0.04938271604938272,0,0,0.04938271604938272,0,0)" xlink:href="#A"/><use transform="matrix(0.04938271604938272,0,0,0.04938271604938272,9.876543209876544,0)" xlink:href="#B"/></g><g id="n"><use transform="matrix(0.04938271604938272,0,0,0.04938271604938272,0,0)" xlink:href="#s"/><use transform="matrix(0.04938271604938272,0,0,0.04938271604938272,14.765432098765434,0)" xlink:href="#F"/><use transform="matrix(0.04938271604938272,0,0,0.04938271604938272,24.641975308641978,0)" xlink:href="#D"/><use transform="matrix(0.04938271604938272,0,0,0.04938271604938272,34.51851851851852,0)" xlink:href="#z"/></g><path fill="#333" d="M209 0H11v-25l151-195H24v-28h176v25L50-27h159V0" id="I"/><g id="o"><use transform="matrix(0.07407407407407408,0,0,0.07407407407407408,0,0)" xlink:href="#I"/><use transform="matrix(0.07407407407407408,0,0,0.07407407407407408,16.222222222222225,0)" xlink:href="#E"/><use transform="matrix(0.07407407407407408,0,0,0.07407407407407408,31.03703703703704,0)" xlink:href="#H"/><use transform="matrix(0.07407407407407408,0,0,0.07407407407407408,39.85185185185187,0)" xlink:href="#A"/></g><g id="p"><use transform="matrix(0.07407407407407408,0,0,0.07407407407407408,0,0)" xlink:href="#C"/><use transform="matrix(0.07407407407407408,0,0,0.07407407407407408,20.740740740740744,0)" xlink:href="#D"/><use transform="matrix(0.07407407407407408,0,0,0.07407407407407408,35.55555555555556,0)" xlink:href="#E"/></g><g id="q"><use transform="matrix(0.04938271604938272,0,0,0.04938271604938272,0,0)" xlink:href="#C"/><use transform="matrix(0.04938271604938272,0,0,0.04938271604938272,13.827160493827162,0)" xlink:href="#x"/><use transform="matrix(0.04938271604938272,0,0,0.04938271604938272,23.703703703703706,0)" xlink:href="#v"/><use transform="matrix(0.04938271604938272,0,0,0.04938271604938272,28.641975308641978,0)" xlink:href="#w"/><use transform="matrix(0.04938271604938272,0,0,0.04938271604938272,32.543209876543216,0)" xlink:href="#A"/><use transform="matrix(0.04938271604938272,0,0,0.04938271604938272,42.41975308641976,0)" xlink:href="#D"/><use transform="matrix(0.04938271604938272,0,0,0.04938271604938272,52.2962962962963,0)" xlink:href="#F"/><use transform="matrix(0.04938271604938272,0,0,0.04938271604938272,62.17283950617284,0)" xlink:href="#u"/></g><g id="r"><use transform="matrix(0.04938271604938272,0,0,0.04938271604938272,0,0)" xlink:href="#C"/><use transform="matrix(0.04938271604938272,0,0,0.04938271604938272,13.827160493827162,0)" xlink:href="#D"/><use transform="matrix(0.04938271604938272,0,0,0.04938271604938272,23.703703703703706,0)" xlink:href="#E"/></g></defs></g></svg>